{"glyphs":{"0":{"ha":758,"x_min":53,"x_max":706,"o":"m 265 692 q 244 652 265 692 q 224 458 224 611 q 265 223 224 306 q 379 140 306 140 q 494 222 453 140 q 535 458 535 304 q 492 693 535 613 q 378 774 450 774 q 265 692 307 774 m 380 -11 q 301 -11 380 -11 q 138 117 222 -11 q 53 459 53 244 q 138 799 53 674 q 378 925 222 925 q 620 799 535 925 q 706 459 706 674 q 622 117 706 244 q 380 -11 538 -11 z "},"1":{"ha":497,"x_min":18,"x_max":406,"o":"m 406 908 l 406 0 l 240 0 l 240 728 l 18 593 l 18 767 l 258 908 l 406 908 z "},"2":{"ha":692,"x_min":46,"x_max":639,"o":"m 639 143 l 639 0 l 46 0 l 46 133 q 326 380 208 249 q 444 617 444 511 q 404 725 444 686 q 288 764 364 764 q 67 678 172 764 l 67 840 q 181 897 113 875 q 317 919 249 919 q 534 847 450 919 q 618 642 618 774 q 276 143 618 394 l 639 143 z "},"3":{"ha":661,"x_min":46,"x_max":604,"o":"m 278 919 q 502 850 421 919 q 583 672 583 781 q 440 458 583 515 q 561 385 518 439 q 604 250 604 332 q 520 65 604 136 q 290 -7 436 -7 q 46 39 144 -7 l 46 201 q 274 143 154 143 q 391 178 349 143 q 433 269 433 214 q 238 390 433 390 l 185 390 l 185 531 l 238 531 q 361 563 311 531 q 411 653 411 594 q 268 769 411 769 q 79 711 174 769 l 79 868 q 278 919 174 919 z "},"4":{"ha":769,"x_min":49,"x_max":739,"o":"m 739 347 l 739 204 l 619 204 l 619 0 l 453 0 l 453 204 l 49 204 l 49 347 l 351 910 l 619 910 l 619 347 l 739 347 m 453 347 l 453 804 l 214 347 l 453 347 z "},"5":{"ha":700,"x_min":61,"x_max":650,"o":"m 267 767 l 267 567 q 344 575 307 575 q 570 500 490 575 q 650 291 650 425 q 558 74 650 157 q 313 -10 467 -10 q 61 39 158 -10 l 61 199 q 274 143 153 143 q 478 300 478 143 q 434 396 478 361 q 297 431 390 431 q 103 383 204 431 l 103 910 l 592 910 l 592 767 l 267 767 z "},"6":{"ha":740,"x_min":58,"x_max":700,"o":"m 506 778 q 325 703 394 778 q 236 510 256 628 q 437 586 319 586 q 627 507 554 586 q 700 292 700 428 q 617 67 700 157 q 381 -22 533 -22 q 143 97 228 -22 q 58 414 58 215 q 179 787 58 644 q 494 929 300 929 q 631 907 569 929 l 631 750 q 506 778 576 778 m 229 365 q 281 185 238 243 q 390 128 325 128 q 491 173 454 128 q 528 290 528 218 q 492 401 528 361 q 393 442 456 442 q 229 365 303 442 z "},"7":{"ha":651,"x_min":24,"x_max":628,"o":"m 24 910 l 628 910 l 628 765 l 267 0 l 89 0 l 451 765 l 24 765 l 24 910 z "},"8":{"ha":751,"x_min":57,"x_max":694,"o":"m 694 247 q 604 59 694 131 q 372 -12 514 -12 q 144 56 231 -12 q 57 240 57 124 q 200 456 57 393 q 71 651 71 521 q 158 852 71 782 q 375 922 244 922 q 592 856 506 922 q 678 657 678 789 q 553 460 678 525 q 694 247 694 404 m 510 656 q 510 686 510 656 q 478 751 510 715 q 377 786 446 786 q 274 749 308 786 q 240 655 240 713 q 279 564 240 597 q 376 531 318 531 q 472 564 433 531 q 510 656 510 597 m 225 248 q 225 221 225 248 q 263 159 225 194 q 374 124 300 124 q 488 161 449 124 q 526 253 526 199 q 487 344 526 307 q 374 381 447 382 q 263 341 300 381 q 225 248 225 301 z "},"9":{"ha":725,"x_min":36,"x_max":672,"o":"m 239 142 q 500 389 467 142 q 315 319 438 319 q 114 399 192 319 q 36 612 36 479 q 118 833 36 744 q 350 921 200 921 q 586 805 500 921 q 672 497 672 689 q 562 119 672 249 q 254 -11 451 -11 q 92 15 164 -11 l 92 175 q 239 142 164 142 m 351 458 q 506 532 447 458 q 459 709 500 649 q 351 769 418 769 q 247 728 285 769 q 208 615 208 686 q 247 501 208 543 q 351 458 286 458 z "},"\u0000":{"ha":0,"x_min":0,"x_max":0,"o":""},"\r":{"ha":0,"x_min":0,"x_max":0,"o":""}," ":{"ha":344,"x_min":0,"x_max":0,"o":""},"!":{"ha":382,"x_min":79,"x_max":299,"o":"m 188 -11 q 165 -11 188 -11 q 110 20 142 -11 q 79 98 79 51 q 110 176 79 144 q 188 208 142 208 q 267 176 235 208 q 299 98 299 144 q 267 20 299 51 q 188 -11 235 -11 m 111 311 l 111 936 l 271 936 l 271 311 l 111 311 z "},"\"":{"ha":489,"x_min":58,"x_max":432,"o":"m 289 596 l 289 946 l 432 946 l 432 596 l 289 596 m 58 596 l 58 946 l 200 946 l 200 596 l 58 596 z "},"#":{"ha":1026,"x_min":67,"x_max":960,"o":"m 960 576 l 786 576 l 738 351 l 903 351 l 903 222 l 711 222 l 664 0 l 519 0 l 567 222 l 354 222 l 307 0 l 164 0 l 211 222 l 67 222 l 67 351 l 238 351 l 286 576 l 125 576 l 125 710 l 314 710 l 361 935 l 506 935 l 458 710 l 671 710 l 718 935 l 861 935 l 814 710 l 960 710 l 960 576 m 594 351 l 642 576 l 429 576 l 382 351 l 594 351 z "},"$":{"ha":708,"x_min":57,"x_max":651,"o":"m 385 790 q 283 761 319 790 q 246 686 246 732 q 297 603 246 636 q 401 547 338 575 q 499 499 464 518 q 572 447 533 479 q 651 268 651 382 q 583 83 651 154 q 397 -6 514 11 l 397 -160 l 257 -160 l 257 -7 q 64 49 142 4 l 64 228 q 325 142 183 142 q 428 173 389 142 q 467 257 467 204 q 431 331 467 301 q 363 374 393 361 q 304 400 332 388 q 117 515 176 453 q 57 683 57 578 q 129 857 57 788 q 325 940 201 926 l 325 1093 l 467 1093 l 467 938 q 607 897 547 926 l 607 728 q 385 790 503 790 z "},"%":{"ha":1285,"x_min":65,"x_max":1221,"o":"m 973 347 q 950 347 973 347 q 896 315 928 347 q 864 237 864 282 q 896 159 864 192 q 973 126 928 126 q 1051 159 1018 126 q 1083 237 1083 192 q 1051 315 1083 282 q 973 347 1018 347 m 312 840 q 289 840 312 840 q 234 808 267 840 q 201 730 201 775 q 234 652 201 685 q 312 619 267 619 q 390 652 357 619 q 422 730 422 685 q 390 808 422 775 q 312 840 357 840 m 138 554 q 101 590 138 554 q 65 729 65 626 q 138 904 65 832 q 313 976 210 976 q 488 904 415 976 q 560 730 560 832 q 487 555 560 628 q 312 482 414 482 q 138 554 210 482 m 799 61 q 763 97 799 61 q 726 236 726 133 q 799 411 726 339 q 973 483 871 483 q 1148 411 1075 483 q 1221 236 1221 339 q 1148 61 1221 133 q 973 -11 1075 -11 q 799 61 871 -11 m 304 -1 l 819 960 l 974 960 l 457 -1 l 304 -1 z "},"&":{"ha":1010,"x_min":78,"x_max":1006,"o":"m 725 65 q 447 -11 611 -11 q 180 64 282 -11 q 78 251 78 139 q 128 394 78 336 q 286 489 178 453 q 176 716 176 607 q 256 891 176 825 q 465 957 336 957 q 674 888 594 957 q 753 704 753 819 q 705 559 753 622 q 546 443 657 496 l 719 274 q 751 400 749 326 l 904 400 q 831 168 900 269 q 1006 0 960 42 l 794 0 q 725 65 776 17 m 583 696 q 551 784 583 751 q 465 817 518 817 q 379 789 411 817 q 347 710 347 761 q 453 536 347 644 q 583 696 583 603 m 385 393 q 280 335 311 368 q 249 251 249 303 q 307 165 249 200 q 455 131 365 131 q 617 169 544 131 l 385 393 z "},"'":{"ha":258,"x_min":58,"x_max":200,"o":"m 58 596 l 58 946 l 200 946 l 200 596 l 58 596 z "},"(":{"ha":456,"x_min":72,"x_max":478,"o":"m 297 -272 q 72 363 72 10 q 289 982 72 717 l 465 982 q 305 681 361 850 q 249 358 249 511 q 307 35 249 204 q 478 -272 365 -133 l 297 -272 z "},")":{"ha":456,"x_min":-22,"x_max":383,"o":"m 167 982 q 383 363 383 714 q 157 -272 383 11 l -22 -272 q 147 35 89 -133 q 206 358 206 204 q 150 681 206 511 q -10 982 94 850 l 167 982 z "},"*":{"ha":653,"x_min":39,"x_max":614,"o":"m 424 626 l 418 626 q 467 579 446 608 l 546 469 l 436 390 l 357 499 q 328 557 336 531 q 297 500 319 531 l 217 390 l 107 469 l 188 579 q 235 625 210 607 l 231 625 q 168 636 200 625 l 39 678 l 82 807 l 210 765 q 269 735 243 754 q 258 801 258 764 l 258 936 l 394 936 l 394 801 q 383 735 394 764 q 443 765 406 753 l 572 807 l 614 678 l 486 636 q 424 626 453 626 z "},"+":{"ha":800,"x_min":69,"x_max":731,"o":"m 731 546 l 731 396 l 475 396 l 475 142 l 321 142 l 321 396 l 69 396 l 69 546 l 321 546 l 321 803 l 475 803 l 475 546 l 731 546 z "},",":{"ha":372,"x_min":-10,"x_max":319,"o":"m -10 -175 l 126 168 l 319 168 l 135 -175 l -10 -175 z "},"-":{"ha":490,"x_min":69,"x_max":422,"o":"m 69 297 l 69 438 l 422 438 l 422 297 l 69 297 z "},".":{"ha":310,"x_min":47,"x_max":263,"o":"m 79 21 q 63 37 79 21 q 47 97 47 53 q 79 173 47 142 q 156 204 111 204 q 231 173 200 204 q 263 97 263 142 q 231 21 263 53 q 156 -11 200 -11 q 79 21 111 -11 z "},"/":{"ha":613,"x_min":-7,"x_max":668,"o":"m -7 -143 l 494 982 l 668 982 l 165 -143 l -7 -143 z "},":":{"ha":371,"x_min":79,"x_max":292,"o":"m 110 31 q 94 46 110 31 q 79 106 79 61 q 110 181 79 150 q 185 213 140 213 q 260 181 229 213 q 292 106 292 150 q 260 31 292 61 q 185 0 229 0 q 110 31 140 0 m 110 485 q 94 501 110 485 q 79 561 79 517 q 110 637 79 606 q 185 668 140 668 q 260 637 229 668 q 292 561 292 606 q 260 485 292 517 q 185 454 229 454 q 110 485 140 454 z "},";":{"ha":372,"x_min":-10,"x_max":319,"o":"m -10 -175 l 126 168 l 319 168 l 135 -175 l -10 -175 m 131 485 q 115 501 131 485 q 100 561 100 517 q 131 637 100 606 q 206 668 161 668 q 282 637 250 668 q 314 561 314 606 q 282 485 314 517 q 206 454 250 454 q 131 485 161 454 z "},"<":{"ha":785,"x_min":69,"x_max":721,"o":"m 69 393 l 69 553 l 721 806 l 721 638 q 238 474 276 492 q 721 307 274 457 l 721 140 l 69 393 z "},"=":{"ha":800,"x_min":69,"x_max":731,"o":"m 69 251 l 69 392 l 731 392 l 731 251 l 69 251 m 69 554 l 69 693 l 731 693 l 731 554 l 69 554 z "},">":{"ha":785,"x_min":65,"x_max":717,"o":"m 717 553 l 717 393 l 65 140 l 65 307 q 547 474 507 454 q 65 638 517 489 l 65 806 l 717 553 z "},"?":{"ha":633,"x_min":81,"x_max":588,"o":"m 260 -11 q 237 -11 260 -11 q 183 20 214 -11 q 151 98 151 51 q 183 176 151 144 q 260 208 214 208 q 339 176 307 208 q 371 98 371 144 q 339 20 371 51 q 260 -11 307 -11 m 81 901 q 297 947 168 947 q 507 879 426 947 q 588 693 588 811 q 563 581 588 631 q 500 501 538 531 q 343 439 425 444 l 340 311 l 186 311 l 182 529 q 417 676 417 529 q 381 769 417 735 q 260 804 344 804 q 81 742 176 804 l 81 901 z "},"@":{"ha":1319,"x_min":67,"x_max":1264,"o":"m 622 -275 q 215 -117 364 -275 q 67 276 67 42 q 153 594 67 450 q 387 820 240 739 q 707 901 533 901 q 1101 758 938 901 q 1264 378 1264 614 q 1184 113 1264 215 q 996 11 1104 11 q 803 151 846 11 q 593 11 739 11 q 422 91 485 11 q 358 299 358 171 q 440 515 358 428 q 635 601 522 601 q 803 506 749 601 q 808 597 806 536 l 944 597 q 922 289 922 390 q 1001 142 922 142 q 1089 203 1054 142 q 1124 367 1124 264 q 1005 663 1124 561 q 690 764 886 764 q 355 619 493 764 q 217 277 217 474 q 334 -28 217 81 q 622 -137 451 -137 q 889 -75 764 -137 l 883 -221 q 622 -275 771 -275 m 790 276 q 793 336 790 317 q 749 442 783 406 q 655 478 714 478 q 552 424 596 478 q 508 293 508 371 q 545 175 508 215 q 634 135 582 135 q 730 172 686 135 q 790 276 774 208 z "},"A":{"ha":936,"x_min":39,"x_max":899,"o":"m 710 0 l 643 213 l 289 213 l 222 0 l 39 0 l 356 936 l 582 936 l 899 0 l 710 0 m 335 356 l 599 356 q 467 806 483 735 q 335 356 456 746 z "},"B":{"ha":822,"x_min":97,"x_max":769,"o":"m 97 936 l 429 936 q 663 865 579 936 q 746 682 746 794 q 704 549 746 606 q 597 475 663 493 q 721 402 672 457 q 769 244 769 347 q 692 71 769 142 q 476 0 614 0 l 97 0 l 97 936 m 272 793 l 272 542 l 378 542 q 519 579 472 542 q 567 673 567 617 q 527 761 567 729 q 407 793 488 793 l 272 793 m 272 143 l 422 143 q 590 271 590 143 q 415 401 590 401 l 272 401 l 272 143 z "},"C":{"ha":846,"x_min":60,"x_max":781,"o":"m 779 726 q 546 788 674 788 q 333 701 418 788 q 247 468 247 614 q 333 236 247 322 q 553 150 418 150 q 781 219 688 150 l 781 44 q 539 -11 694 -11 q 195 120 331 -11 q 60 466 60 251 q 194 815 60 681 q 539 949 328 949 q 779 897 693 949 l 779 726 z "},"D":{"ha":938,"x_min":97,"x_max":879,"o":"m 97 936 l 403 936 q 746 807 613 936 q 879 472 879 678 q 750 133 879 265 q 403 0 621 0 l 97 0 l 97 936 m 276 146 l 400 146 q 624 237 547 146 q 700 472 700 328 q 619 702 700 615 q 397 789 538 789 l 276 789 l 276 146 z "},"E":{"ha":733,"x_min":97,"x_max":656,"o":"m 274 143 l 656 143 l 656 0 l 97 0 l 97 936 l 650 936 l 650 793 l 274 793 l 274 539 l 608 539 l 608 397 l 274 397 l 274 143 z "},"F":{"ha":693,"x_min":97,"x_max":646,"o":"m 646 793 l 274 793 l 274 517 l 599 517 l 599 374 l 274 374 l 274 0 l 97 0 l 97 936 l 646 936 l 646 793 z "},"G":{"ha":963,"x_min":60,"x_max":875,"o":"m 875 546 l 875 96 l 874 96 l 875 81 q 556 -11 747 -11 q 197 118 333 -11 q 60 467 60 247 q 201 819 60 686 q 557 953 342 953 q 831 893 717 953 l 831 714 q 561 790 703 790 q 333 703 419 790 q 247 468 247 615 q 331 235 247 321 q 563 150 415 150 q 703 175 635 150 l 703 396 l 531 396 l 531 546 l 875 546 z "},"H":{"ha":931,"x_min":97,"x_max":833,"o":"m 657 936 l 833 936 l 833 0 l 657 0 l 657 393 l 272 393 l 272 0 l 97 0 l 97 936 l 272 936 l 272 544 l 657 544 l 657 936 z "},"I":{"ha":392,"x_min":108,"x_max":283,"o":"m 108 0 l 108 936 l 283 936 l 283 0 l 108 0 z "},"J":{"ha":526,"x_min":42,"x_max":435,"o":"m 153 153 q 260 267 260 153 l 260 935 l 435 935 l 435 267 q 368 67 435 135 q 185 -1 301 -1 q 42 28 97 -1 l 42 186 q 153 153 94 153 z "},"K":{"ha":872,"x_min":97,"x_max":843,"o":"m 494 467 l 843 0 l 622 0 l 286 464 l 610 936 l 819 936 l 494 467 m 97 0 l 97 936 l 272 936 l 272 0 l 97 0 z "},"L":{"ha":672,"x_min":97,"x_max":638,"o":"m 272 156 l 638 156 l 638 0 l 97 0 l 97 936 l 272 936 l 272 156 z "},"M":{"ha":1222,"x_min":81,"x_max":1142,"o":"m 81 0 l 156 936 l 356 936 q 551 410 526 481 q 600 254 575 339 q 719 596 643 399 l 850 936 l 1050 936 l 1142 0 l 967 0 l 933 365 l 908 693 q 658 14 871 588 l 539 14 l 411 365 l 301 689 q 256 0 301 603 l 81 0 z "},"N":{"ha":956,"x_min":97,"x_max":860,"o":"m 97 0 l 97 936 l 296 936 q 622 364 579 443 q 694 215 664 285 q 683 546 683 331 l 683 936 l 860 936 l 860 0 l 660 0 l 432 389 q 257 725 324 572 q 272 390 272 593 l 272 0 l 97 0 z "},"O":{"ha":1004,"x_min":60,"x_max":944,"o":"m 502 792 q 443 792 502 792 q 315 706 383 792 q 247 472 247 619 q 317 238 247 324 q 503 151 386 151 q 689 237 621 151 q 757 471 757 322 q 689 706 757 619 q 502 792 621 792 m 503 -10 q 402 -10 503 -10 q 181 122 301 -10 q 60 472 60 254 q 180 821 60 689 q 503 953 300 953 q 825 822 706 953 q 944 472 944 690 q 824 122 944 254 q 503 -10 704 -10 z "},"P":{"ha":772,"x_min":97,"x_max":739,"o":"m 97 936 l 390 936 q 644 850 549 936 q 739 625 739 764 q 641 402 739 486 q 394 318 543 318 l 272 318 l 272 0 l 97 0 l 97 936 m 272 460 l 396 460 q 517 513 474 465 q 561 628 561 560 q 515 744 561 696 q 390 793 469 792 l 272 793 l 272 460 z "},"Q":{"ha":1013,"x_min":60,"x_max":996,"o":"m 503 -10 q 181 122 301 -10 q 60 472 60 254 q 180 821 60 689 q 503 953 300 953 q 825 822 706 953 q 944 471 944 690 q 883 206 944 318 q 711 38 822 93 l 996 -128 l 799 -204 l 524 -10 l 503 -10 m 502 792 q 443 792 502 792 q 315 706 383 792 q 247 472 247 619 q 317 238 247 324 q 503 151 386 151 q 689 237 621 151 q 757 471 757 322 q 689 706 757 619 q 502 792 621 792 z "},"R":{"ha":818,"x_min":97,"x_max":790,"o":"m 272 342 l 272 0 l 97 0 l 97 936 l 386 936 q 637 856 546 936 q 728 640 728 775 q 679 472 726 540 q 550 369 632 403 l 790 0 l 581 0 l 368 342 l 272 342 m 272 792 l 272 486 l 389 486 q 510 527 469 486 q 550 641 550 568 q 508 753 550 714 q 386 792 465 792 l 272 792 z "},"S":{"ha":719,"x_min":68,"x_max":663,"o":"m 396 790 q 294 761 331 790 q 257 686 257 732 q 297 610 257 640 q 403 550 336 581 q 506 501 471 519 q 581 449 540 482 q 663 260 663 382 q 573 63 663 138 q 331 -11 483 -11 q 75 49 179 -11 l 75 228 q 336 142 194 142 q 439 173 400 142 q 478 257 478 204 q 468 301 478 282 q 428 340 458 321 q 296 408 369 379 q 213 451 244 432 q 143 501 181 469 q 68 682 68 565 q 156 871 68 799 q 383 943 244 943 q 618 897 522 943 l 618 728 q 396 790 514 790 z "},"T":{"ha":722,"x_min":36,"x_max":688,"o":"m 688 936 l 688 792 l 450 792 l 450 0 l 274 0 l 274 792 l 36 792 l 36 936 l 688 936 z "},"U":{"ha":915,"x_min":92,"x_max":824,"o":"m 649 358 l 649 936 l 824 936 l 824 360 q 726 83 824 178 q 459 -12 628 -12 q 191 81 290 -12 q 92 350 92 175 l 92 936 l 267 936 l 267 351 q 319 197 267 244 q 457 149 372 149 q 649 358 649 149 z "},"V":{"ha":904,"x_min":35,"x_max":868,"o":"m 868 936 l 549 0 l 349 0 l 35 936 l 225 936 q 451 158 411 335 q 564 564 485 314 l 681 936 l 868 936 z "},"W":{"ha":1331,"x_min":35,"x_max":1296,"o":"m 599 922 l 740 922 l 836 590 l 947 188 q 1033 592 982 381 l 1118 936 l 1296 936 l 1057 0 l 854 0 q 671 657 699 543 q 486 0 651 557 l 285 0 l 35 936 l 219 936 q 396 190 339 463 q 599 922 442 369 z "},"X":{"ha":894,"x_min":44,"x_max":851,"o":"m 442 629 l 615 936 l 828 936 l 544 474 l 851 0 l 643 0 l 444 324 q 345 153 424 283 q 254 0 267 24 l 44 0 l 342 474 l 58 936 l 263 936 l 442 629 z "},"Y":{"ha":867,"x_min":25,"x_max":842,"o":"m 519 0 l 344 0 l 344 342 l 25 936 l 229 936 q 431 482 397 572 q 574 800 443 533 l 638 936 l 842 936 l 519 347 l 519 0 z "},"Z":{"ha":835,"x_min":79,"x_max":756,"o":"m 738 936 l 738 807 l 289 143 l 756 143 l 756 0 l 79 0 l 79 133 l 526 793 l 86 793 l 86 936 l 738 936 z "},"[":{"ha":476,"x_min":97,"x_max":461,"o":"m 461 836 l 257 836 l 257 -118 l 461 -118 l 461 -265 l 97 -265 l 97 982 l 461 982 l 461 836 z "},"\\":{"ha":613,"x_min":-57,"x_max":619,"o":"m 118 982 l 619 -143 l 446 -143 l -57 982 l 118 982 z "},"]":{"ha":476,"x_min":15,"x_max":379,"o":"m 379 982 l 379 -265 l 15 -265 l 15 -118 l 219 -118 l 219 836 l 15 836 l 15 982 l 379 982 z "},"^":{"ha":667,"x_min":53,"x_max":614,"o":"m 614 461 l 456 461 l 333 696 l 210 461 l 53 461 l 257 825 l 411 825 l 614 461 z "},"_":{"ha":767,"x_min":32,"x_max":735,"o":"m 32 -196 l 32 -56 l 735 -56 l 735 -196 l 32 -196 z "},"`":{"ha":653,"x_min":176,"x_max":478,"o":"m 351 1108 l 478 874 l 338 874 l 176 1108 l 351 1108 z "},"a":{"ha":704,"x_min":56,"x_max":622,"o":"m 336 717 q 622 450 622 717 l 622 0 l 457 0 l 457 85 q 274 -6 408 -6 q 115 53 174 -6 q 56 206 56 111 q 131 357 56 300 q 347 414 206 414 l 450 414 l 450 457 q 419 546 450 515 q 315 576 389 576 q 108 514 203 576 l 108 668 q 336 717 188 717 m 450 303 l 364 303 q 264 276 299 303 q 229 207 229 249 q 332 118 229 118 q 419 151 388 118 q 450 236 450 183 l 450 303 z "},"b":{"ha":826,"x_min":92,"x_max":774,"o":"m 260 982 l 260 597 q 468 714 333 714 q 688 616 603 714 q 774 360 774 518 q 692 96 774 201 q 472 -10 611 -10 q 260 108 333 -10 l 260 0 l 92 0 l 92 982 l 260 982 m 260 357 q 260 303 260 357 q 310 191 260 249 q 433 133 360 133 q 556 193 507 133 q 604 353 604 253 q 555 513 604 454 q 435 572 506 572 q 313 519 365 572 q 260 357 260 465 z "},"c":{"ha":653,"x_min":53,"x_max":600,"o":"m 224 350 q 284 189 226 250 q 434 128 342 128 q 600 175 526 128 l 600 31 q 417 -12 526 -12 q 153 90 254 -12 q 53 349 53 193 q 153 610 54 504 q 425 715 253 715 q 600 676 528 715 l 600 529 q 438 574 531 574 q 285 513 344 574 q 224 350 225 451 z "},"d":{"ha":825,"x_min":53,"x_max":735,"o":"m 568 982 l 735 982 l 735 0 l 568 0 l 568 110 q 356 -10 496 -10 q 134 96 215 -10 q 53 360 53 201 q 138 616 53 518 q 359 714 224 714 q 568 596 494 714 l 568 982 m 224 353 q 224 303 224 353 q 272 193 224 253 q 394 133 321 133 q 518 191 468 133 q 568 357 568 249 q 515 519 568 465 q 392 572 463 572 q 273 513 322 572 q 224 353 224 454 z "},"e":{"ha":735,"x_min":53,"x_max":672,"o":"m 415 -7 q 150 93 247 -7 q 53 356 53 193 q 144 615 53 519 q 374 711 236 711 q 592 628 511 711 q 672 385 672 544 q 663 285 672 346 l 221 285 q 297 168 239 208 q 453 128 354 128 q 628 183 551 128 l 628 39 q 415 -7 554 -7 m 514 410 l 514 431 q 477 540 511 499 q 381 581 443 581 q 274 537 318 581 q 218 410 231 493 l 514 410 z "},"f":{"ha":472,"x_min":42,"x_max":482,"o":"m 413 858 q 311 744 311 858 l 311 704 l 451 704 l 451 579 l 311 579 l 311 0 l 144 0 l 144 579 l 42 579 l 42 704 l 144 704 l 144 746 q 210 931 144 864 q 390 997 275 997 q 482 985 443 997 l 482 844 q 413 858 446 858 z "},"g":{"ha":793,"x_min":58,"x_max":711,"o":"m 544 704 l 711 704 l 711 64 q 615 -187 711 -103 q 374 -271 518 -271 q 126 -221 231 -271 l 126 -51 q 353 -118 221 -118 q 544 65 544 -118 l 544 126 q 353 22 481 22 q 142 109 226 22 q 58 355 58 196 q 138 613 58 514 q 349 713 218 713 q 544 603 481 713 l 544 704 m 232 360 q 232 311 232 360 q 275 210 232 263 q 385 158 318 158 q 499 212 453 158 q 544 365 544 265 q 500 517 544 464 q 385 569 456 569 q 274 513 315 569 q 232 360 232 457 z "},"h":{"ha":785,"x_min":90,"x_max":701,"o":"m 257 982 l 257 585 q 472 713 314 713 q 638 648 575 713 q 701 461 701 583 l 701 0 l 535 0 l 535 432 q 501 536 535 499 q 410 574 467 574 q 305 528 353 574 q 257 378 257 482 l 257 0 l 90 0 l 90 982 l 257 982 z "},"i":{"ha":361,"x_min":81,"x_max":281,"o":"m 181 814 q 160 814 181 814 q 110 843 139 814 q 81 915 81 872 q 110 986 81 957 q 181 1015 139 1015 q 251 986 222 1015 q 281 915 281 957 q 251 843 281 872 q 181 814 222 814 m 97 0 l 97 704 l 264 704 l 264 0 l 97 0 z "},"j":{"ha":357,"x_min":-58,"x_max":283,"o":"m 183 814 q 161 814 183 814 q 111 843 140 814 q 82 915 82 872 q 111 986 82 957 q 183 1015 140 1015 q 254 986 225 1015 q 283 915 283 957 q 254 843 283 872 q 183 814 225 814 m 26 -140 q 100 -44 100 -140 l 100 704 l 267 704 l 267 -47 q 210 -212 267 -151 q 47 -274 153 -274 q -58 -251 -3 -274 l -58 -119 q 26 -140 -10 -140 z "},"k":{"ha":725,"x_min":90,"x_max":706,"o":"m 257 0 l 90 0 l 90 965 l 257 965 l 257 374 l 506 704 l 700 704 l 442 368 l 706 0 l 510 0 l 257 364 l 257 0 z "},"l":{"ha":361,"x_min":97,"x_max":264,"o":"m 97 0 l 97 982 l 264 982 l 264 0 l 97 0 z "},"m":{"ha":1171,"x_min":90,"x_max":1089,"o":"m 257 704 l 257 593 q 463 713 317 713 q 656 579 610 713 q 739 678 683 643 q 865 713 794 713 q 1031 648 972 713 q 1089 464 1089 583 l 1089 0 l 921 0 l 921 432 q 813 574 921 574 q 716 526 758 574 q 674 378 674 479 l 674 0 l 506 0 l 506 432 q 397 574 506 574 q 300 526 343 574 q 257 378 257 479 l 257 0 l 90 0 l 90 704 l 257 704 z "},"n":{"ha":785,"x_min":90,"x_max":701,"o":"m 257 704 l 257 583 q 474 713 317 713 q 640 649 579 713 q 701 468 701 585 l 701 0 l 535 0 l 535 433 q 501 538 535 503 q 407 574 468 574 q 301 523 346 574 q 257 378 257 472 l 257 0 l 90 0 l 90 704 l 257 704 z "},"o":{"ha":785,"x_min":53,"x_max":732,"o":"m 558 350 q 558 400 558 350 q 518 515 558 450 q 395 579 478 579 q 270 514 313 579 q 228 351 228 449 q 271 188 228 253 q 394 122 314 122 q 517 186 475 122 q 558 350 558 250 m 732 353 q 732 274 732 353 q 642 92 732 194 q 392 -11 553 -11 q 142 89 232 -11 q 53 347 53 189 q 146 610 53 506 q 397 715 239 715 q 643 613 554 715 q 732 353 732 511 z "},"p":{"ha":825,"x_min":90,"x_max":772,"o":"m 257 704 l 257 596 q 471 714 332 714 q 691 615 610 714 q 772 357 772 517 q 691 94 772 197 q 469 -10 610 -10 q 257 106 329 -10 l 257 -265 l 90 -265 l 90 704 l 257 704 m 257 357 q 257 303 257 357 q 308 192 257 250 q 433 133 360 133 q 554 191 507 133 q 601 353 601 249 q 554 515 601 457 q 435 572 507 572 q 310 518 363 572 q 257 357 257 464 z "},"q":{"ha":825,"x_min":53,"x_max":735,"o":"m 568 704 l 735 704 l 735 -265 l 568 -265 l 568 108 q 356 -10 496 -10 q 135 94 217 -10 q 53 357 53 197 q 135 615 53 517 q 356 714 218 714 q 568 596 493 714 l 568 704 m 224 353 q 224 302 224 353 q 273 192 224 251 q 394 133 322 133 q 517 192 467 133 q 568 357 568 250 q 516 518 568 464 q 392 572 464 572 q 272 513 321 572 q 224 353 224 454 z "},"r":{"ha":490,"x_min":89,"x_max":482,"o":"m 257 704 l 257 579 q 435 710 306 710 q 482 706 464 710 l 482 544 q 411 558 450 558 q 300 503 343 558 q 257 364 257 447 l 257 0 l 89 0 l 90 704 l 257 704 z "},"s":{"ha":593,"x_min":75,"x_max":550,"o":"m 338 576 q 270 558 294 576 q 246 510 246 539 q 258 474 246 486 q 279 454 271 461 q 303 439 288 447 q 360 413 340 421 q 503 323 456 372 q 550 203 550 274 q 479 49 550 104 q 284 -7 408 -7 q 79 36 160 -7 l 79 189 q 281 126 172 126 q 352 144 326 126 q 378 185 378 161 q 369 224 378 210 q 338 253 361 239 q 276 284 307 271 q 242 299 244 297 q 236 301 240 300 q 229 304 232 303 q 75 504 75 374 q 149 657 75 601 q 331 713 222 713 q 511 682 440 713 l 511 535 q 338 576 442 576 z "},"t":{"ha":526,"x_min":21,"x_max":479,"o":"m 293 579 l 293 221 q 317 153 293 176 q 388 131 340 131 q 479 160 435 131 l 479 17 q 354 -7 431 -7 q 126 224 126 -7 l 126 579 l 21 579 l 21 704 l 126 704 l 126 874 l 293 874 l 293 704 l 468 704 l 468 579 l 293 579 z "},"u":{"ha":785,"x_min":83,"x_max":694,"o":"m 526 704 l 694 704 l 694 0 l 526 0 l 526 115 q 310 -7 471 -7 q 143 54 203 -7 q 83 228 83 115 l 83 704 l 250 704 l 250 267 q 283 165 250 200 q 380 131 315 131 q 485 179 444 131 q 526 326 526 228 l 526 704 z "},"v":{"ha":728,"x_min":18,"x_max":711,"o":"m 272 0 l 18 704 l 193 704 q 363 131 347 210 q 442 406 376 208 l 539 704 l 711 704 l 453 0 l 272 0 z "},"w":{"ha":1113,"x_min":18,"x_max":1094,"o":"m 240 0 l 18 704 l 192 704 q 331 160 311 269 q 411 472 344 244 l 479 704 l 631 704 q 779 158 761 260 q 861 472 793 240 l 928 704 l 1094 704 l 871 0 l 690 0 q 556 526 576 421 q 421 0 535 419 l 240 0 z "},"x":{"ha":706,"x_min":26,"x_max":686,"o":"m 442 354 l 678 0 l 493 0 l 354 236 l 210 0 l 26 0 l 272 356 l 42 704 l 229 704 l 361 475 l 500 704 l 686 704 l 442 354 z "},"y":{"ha":718,"x_min":8,"x_max":706,"o":"m 129 -262 q 60 -256 89 -262 l 60 -118 q 107 -124 82 -124 q 286 14 233 -124 l 8 704 l 193 704 q 368 206 351 268 q 531 704 372 221 l 706 704 l 451 19 q 129 -262 346 -262 z "},"z":{"ha":651,"x_min":58,"x_max":594,"o":"m 576 704 l 576 588 l 249 135 l 594 135 l 594 0 l 58 0 l 58 124 l 385 571 l 71 571 l 71 704 l 576 704 z "},"{":{"ha":504,"x_min":60,"x_max":475,"o":"m 475 821 q 426 833 454 833 q 376 808 397 833 q 354 753 354 783 q 365 661 354 722 q 375 564 375 600 q 329 426 375 482 q 211 358 283 369 q 329 290 283 347 q 375 150 375 232 q 365 53 375 114 q 354 -38 354 -7 q 375 -94 354 -69 q 425 -118 396 -118 q 475 -106 454 -118 l 475 -262 q 393 -278 432 -278 q 246 -212 304 -278 q 188 -43 188 -146 q 199 47 188 -10 q 210 131 210 104 q 178 229 210 188 q 90 276 147 271 l 60 276 l 60 439 q 90 440 75 439 q 178 485 146 443 q 210 585 210 528 q 199 667 210 610 q 188 758 188 725 q 246 926 188 861 q 393 992 304 992 q 475 978 435 992 l 475 821 z "},"|":{"ha":361,"x_min":101,"x_max":260,"o":"m 101 -269 l 101 965 l 260 965 l 260 -269 l 101 -269 z "},"}":{"ha":504,"x_min":29,"x_max":444,"o":"m 110 992 q 257 926 199 992 q 315 758 315 861 q 305 667 315 725 q 294 585 294 610 q 326 485 294 528 q 414 440 357 443 q 444 439 428 439 l 444 276 l 414 276 q 326 229 357 271 q 294 131 294 188 q 305 47 294 104 q 315 -43 315 -10 q 257 -212 315 -146 q 110 -278 199 -278 q 29 -262 72 -278 l 29 -106 q 78 -118 50 -118 q 128 -94 107 -118 q 150 -38 150 -69 q 140 53 150 -7 q 129 150 129 114 q 175 290 129 232 q 293 358 221 347 q 175 426 221 369 q 129 564 129 482 q 140 661 129 600 q 150 753 150 722 q 128 808 150 783 q 78 833 107 833 q 29 821 50 833 l 29 978 q 110 992 69 992 z "},"~":{"ha":879,"x_min":43,"x_max":835,"o":"m 611 265 q 444 306 536 265 q 308 346 351 346 q 158 260 225 346 l 43 353 q 147 456 86 414 q 283 497 207 497 q 451 457 358 497 q 583 417 543 417 q 655 438 624 417 q 718 499 686 458 l 835 407 q 611 265 742 265 z "}," ":{"ha":344,"x_min":0,"x_max":0,"o":""},"¡":{"ha":382,"x_min":79,"x_max":299,"o":"m 111 -229 l 111 396 l 271 396 l 271 -229 l 111 -229 m 188 499 q 165 499 188 499 q 110 531 142 499 q 79 609 79 563 q 110 687 79 656 q 188 718 142 718 q 267 687 235 718 q 299 609 299 656 q 267 531 299 563 q 188 499 235 499 z "},"¢":{"ha":650,"x_min":50,"x_max":594,"o":"m 594 531 q 435 572 525 572 q 284 512 346 572 q 221 350 222 451 q 283 190 224 250 q 431 129 342 129 q 594 172 521 129 l 594 28 q 485 -6 544 3 l 485 -154 l 344 -154 l 344 -6 q 131 115 211 17 q 51 349 50 213 q 129 583 51 485 q 344 707 207 682 l 344 858 l 485 858 l 485 710 q 594 675 542 701 l 594 531 z "},"£":{"ha":740,"x_min":71,"x_max":692,"o":"m 692 143 l 692 0 l 71 0 l 71 139 q 161 221 136 172 q 186 347 186 269 q 185 385 186 372 l 72 385 l 72 508 l 169 508 q 163 599 163 561 q 242 833 163 750 q 472 917 321 917 q 647 875 575 917 l 647 715 q 504 758 581 758 q 344 596 344 758 q 350 508 344 569 l 589 508 l 589 385 l 364 385 q 365 347 365 372 q 271 143 365 203 l 692 143 z "},"¤":{"ha":779,"x_min":42,"x_max":736,"o":"m 390 604 q 353 604 390 604 q 268 554 317 604 q 219 433 219 504 q 268 311 219 361 q 390 261 317 261 q 512 311 464 261 q 560 433 560 361 q 512 554 560 504 q 390 604 464 604 m 124 268 q 79 432 79 342 q 124 593 79 522 l 42 675 l 142 771 l 224 690 q 389 736 297 736 q 556 693 481 736 l 636 771 l 736 675 l 656 594 q 700 433 700 524 q 653 269 700 343 l 736 189 l 636 92 l 553 172 q 388 129 479 129 q 224 172 297 129 l 142 92 l 42 189 l 124 268 z "},"¥":{"ha":856,"x_min":25,"x_max":829,"o":"m 758 501 l 758 393 l 538 393 l 513 350 l 513 292 l 758 292 l 758 183 l 513 183 l 513 0 l 338 0 l 338 183 l 94 183 l 94 292 l 338 292 l 338 350 l 314 393 l 94 393 l 94 501 l 253 501 l 25 910 l 229 910 l 424 528 l 626 910 l 829 910 l 599 501 l 758 501 z "},"¦":{"ha":361,"x_min":101,"x_max":260,"o":"m 260 -194 l 101 -194 l 101 271 l 260 271 l 260 -194 m 260 511 l 101 511 l 101 976 l 260 976 l 260 511 z "},"§":{"ha":786,"x_min":76,"x_max":699,"o":"m 411 792 q 310 767 344 792 q 275 700 275 743 q 313 635 275 661 q 403 585 343 614 q 512 533 464 557 q 599 480 560 508 q 669 399 639 451 q 699 265 699 346 q 642 117 699 183 q 689 -18 689 58 q 601 -202 689 -136 q 360 -268 514 -268 q 106 -208 207 -268 l 106 -29 q 365 -115 222 -115 q 508 -19 508 -115 q 467 55 508 25 q 281 149 426 85 q 130 253 183 192 q 76 408 76 315 q 138 571 76 500 q 92 697 92 626 q 177 878 92 813 q 399 944 263 944 q 632 899 535 944 l 632 729 q 411 792 531 792 m 269 479 q 246 403 246 446 q 286 328 246 360 q 413 258 326 296 q 511 214 499 221 q 531 270 531 243 q 526 312 531 297 q 510 340 522 326 q 490 362 499 353 q 458 384 481 371 q 423 403 435 397 q 377 426 411 410 q 331 450 343 443 q 269 479 297 467 z "},"¨":{"ha":653,"x_min":60,"x_max":593,"o":"m 495 896 q 474 896 495 896 q 424 924 453 896 q 396 992 396 951 q 424 1061 396 1033 q 495 1089 453 1089 q 565 1061 538 1089 q 593 992 593 1033 q 565 924 593 951 q 495 896 538 896 m 158 896 q 136 896 158 896 q 88 924 115 896 q 60 992 60 951 q 88 1061 60 1033 q 158 1089 115 1089 q 228 1061 200 1089 q 256 992 256 1033 q 228 924 256 951 q 158 896 200 896 z "},"©":{"ha":1065,"x_min":53,"x_max":1013,"o":"m 442 467 q 480 372 444 408 q 573 336 515 336 q 681 371 631 336 l 681 254 q 554 225 631 225 q 378 293 449 225 q 309 467 308 361 q 377 643 310 574 q 560 713 444 713 q 681 683 626 713 l 681 568 q 576 599 633 599 q 481 563 518 599 q 442 467 443 528 m 533 829 q 456 829 533 829 q 276 725 379 829 q 172 467 172 621 q 276 209 172 313 q 533 106 379 106 q 790 210 686 106 q 894 467 894 314 q 790 725 894 621 q 533 829 686 829 m 533 -11 q 434 -11 533 -11 q 194 130 335 -11 q 53 469 53 271 q 194 808 53 667 q 533 949 336 949 q 872 807 731 949 q 1013 468 1013 665 q 872 130 1013 271 q 533 -11 731 -11 z "},"ª":{"ha":529,"x_min":10,"x_max":488,"o":"m 54 1108 q 249 1149 126 1149 q 429 1094 371 1149 q 488 925 488 1039 l 488 544 l 350 544 l 350 618 q 194 540 303 540 q 59 588 108 540 q 10 717 10 636 q 74 846 10 797 q 257 894 138 894 l 344 894 l 344 929 q 318 1005 344 979 q 229 1031 292 1031 q 54 979 132 1031 l 54 1108 m 344 800 l 275 800 q 188 778 218 800 q 157 718 157 756 q 244 644 157 644 q 317 672 289 644 q 344 740 344 699 l 344 800 z "},"«":{"ha":763,"x_min":36,"x_max":711,"o":"m 711 576 l 508 351 l 711 126 l 535 126 l 324 351 l 535 576 l 711 576 m 424 576 l 221 351 l 424 126 l 247 126 l 36 351 l 247 576 l 424 576 z "},"¬":{"ha":810,"x_min":53,"x_max":751,"o":"m 751 201 l 608 201 l 608 440 l 53 440 l 53 578 l 751 578 l 751 201 z "},"­":{"ha":490,"x_min":69,"x_max":422,"o":"m 69 297 l 69 438 l 422 438 l 422 297 l 69 297 z "},"®":{"ha":661,"x_min":14,"x_max":647,"o":"m 103 1004 q 148 1049 103 1004 q 331 1093 193 1093 q 558 1003 468 1093 q 647 776 647 914 q 558 551 647 639 q 331 463 468 463 q 103 551 193 463 q 14 777 14 639 q 103 1004 14 915 m 158 603 q 191 570 158 603 q 332 538 224 538 q 505 603 440 538 q 569 777 569 669 q 505 951 569 885 q 332 1018 440 1018 q 158 951 224 1018 q 93 777 93 885 q 158 603 93 669 m 233 946 l 326 946 q 447 846 447 946 q 396 757 447 782 l 476 629 l 392 629 l 324 744 l 303 744 l 303 629 l 233 629 l 233 946 m 303 888 l 303 801 l 336 801 q 375 846 375 801 q 331 888 375 888 l 303 888 z "},"¯":{"ha":653,"x_min":99,"x_max":554,"o":"m 554 926 l 99 926 l 99 1042 l 554 1042 l 554 926 z "},"°":{"ha":567,"x_min":42,"x_max":525,"o":"m 197 792 q 180 775 197 792 q 163 707 163 757 q 198 621 163 657 q 283 585 233 585 q 368 621 333 585 q 403 707 403 657 q 367 792 403 757 q 282 828 332 828 q 197 792 232 828 m 111 535 q 76 570 111 535 q 42 706 42 604 q 112 877 42 807 q 284 947 182 947 q 456 878 386 947 q 525 707 525 808 q 454 536 525 606 q 282 467 383 467 q 111 535 181 467 z "},"±":{"ha":800,"x_min":69,"x_max":731,"o":"m 475 596 l 731 596 l 731 456 l 475 456 l 475 246 l 321 246 l 321 456 l 69 456 l 69 596 l 321 596 l 321 804 l 475 804 l 475 596 m 69 40 l 69 181 l 731 181 l 731 40 l 69 40 z "},"²":{"ha":507,"x_min":56,"x_max":457,"o":"m 56 544 l 56 636 q 234 798 163 715 q 306 947 306 881 q 213 1032 306 1032 q 71 978 144 1032 l 71 1104 q 232 1150 144 1150 q 378 1100 319 1150 q 436 963 436 1050 q 217 651 436 801 l 457 651 l 457 544 l 56 544 z "},"³":{"ha":476,"x_min":49,"x_max":428,"o":"m 149 899 l 174 899 q 253 917 222 899 q 285 971 285 936 q 201 1039 285 1039 q 69 993 133 1039 l 69 1113 q 219 1150 133 1150 q 360 1103 306 1150 q 414 994 414 1057 q 384 894 414 931 q 303 847 354 858 q 392 806 356 843 q 428 700 428 768 q 372 585 428 632 q 217 539 317 539 q 49 575 117 539 l 49 688 q 188 647 126 647 q 299 720 299 647 q 174 793 299 793 l 149 793 l 149 899 z "},"´":{"ha":653,"x_min":176,"x_max":478,"o":"m 176 874 l 303 1108 l 478 1108 l 317 874 l 176 874 z "},"µ":{"ha":792,"x_min":90,"x_max":701,"o":"m 535 704 l 701 704 l 701 0 l 535 0 l 535 93 q 375 -7 488 -7 q 257 24 311 -7 l 257 -250 l 90 -250 l 90 704 l 257 704 l 257 267 q 297 166 257 201 q 397 131 338 131 q 535 326 535 131 l 535 704 z "},"¶":{"ha":797,"x_min":22,"x_max":703,"o":"m 703 936 l 703 -206 l 569 -206 l 571 936 l 703 936 m 431 936 l 431 -206 l 297 -206 l 297 453 q 94 523 165 453 q 22 694 22 593 q 96 865 22 794 q 315 936 169 936 l 431 936 z "},"·":{"ha":353,"x_min":69,"x_max":285,"o":"m 101 310 q 85 326 101 310 q 69 386 69 342 q 101 462 69 431 q 178 493 133 493 q 253 462 222 493 q 285 386 285 431 q 253 310 285 342 q 178 278 222 278 q 101 310 133 278 z "},"¸":{"ha":653,"x_min":208,"x_max":443,"o":"m 418 -71 q 443 -181 443 -108 q 383 -308 443 -254 q 208 -364 324 -362 l 208 -256 q 318 -162 318 -251 q 283 -71 318 -122 l 418 -71 z "},"¹":{"ha":372,"x_min":14,"x_max":292,"o":"m 292 1144 l 292 544 l 169 544 l 169 1010 l 14 925 l 14 1043 l 192 1144 l 292 1144 z "},"º":{"ha":579,"x_min":6,"x_max":574,"o":"m 288 1038 q 188 982 222 1038 q 153 843 153 926 q 189 705 153 760 q 291 650 225 650 q 391 703 357 650 q 425 840 425 757 q 288 1038 425 1038 m 574 845 q 574 778 574 845 q 499 624 574 711 q 289 536 424 536 q 80 621 154 536 q 6 840 6 706 q 83 1063 6 974 q 293 1151 161 1151 q 499 1065 425 1151 q 574 845 574 979 z "},"»":{"ha":764,"x_min":51,"x_max":725,"o":"m 515 576 l 725 351 l 515 126 l 339 126 l 542 351 l 339 576 l 515 576 m 228 576 l 438 351 l 228 126 l 51 126 l 254 351 l 51 576 l 228 576 z "},"¿":{"ha":633,"x_min":81,"x_max":588,"o":"m 484 688 q 500 672 484 688 q 515 610 515 656 q 484 532 515 564 q 406 500 453 500 q 328 532 360 500 q 296 610 296 564 q 328 688 296 656 q 406 719 360 719 q 484 688 453 719 m 588 -194 q 367 -239 496 -239 q 160 -172 239 -239 q 81 15 81 -104 q 105 128 81 78 q 168 207 129 178 q 324 269 243 264 l 326 397 l 482 397 l 485 179 q 250 32 250 179 q 286 -62 250 -26 q 406 -97 322 -97 q 588 -33 489 -97 l 588 -194 z "},"À":{"ha":936,"x_min":39,"x_max":899,"o":"m 710 0 l 643 213 l 289 213 l 222 0 l 39 0 l 356 936 l 582 936 l 899 0 l 710 0 m 335 356 l 599 356 q 467 806 483 735 q 335 356 456 746 m 536 1004 l 396 1004 l 235 1239 l 410 1239 l 536 1004 z "},"Á":{"ha":936,"x_min":39,"x_max":899,"o":"m 710 0 l 643 213 l 289 213 l 222 0 l 39 0 l 356 936 l 582 936 l 899 0 l 710 0 m 335 356 l 599 356 q 467 806 483 735 q 335 356 456 746 m 714 1239 l 553 1004 l 413 1004 l 539 1239 l 714 1239 z "},"Â":{"ha":936,"x_min":39,"x_max":899,"o":"m 710 0 l 643 213 l 289 213 l 222 0 l 39 0 l 356 936 l 582 936 l 899 0 l 710 0 m 335 356 l 599 356 q 467 806 483 735 q 335 356 456 746 m 471 1142 l 358 1004 l 196 1004 l 397 1239 l 544 1239 l 746 1004 l 583 1004 l 471 1142 z "},"Ã":{"ha":936,"x_min":39,"x_max":899,"o":"m 710 0 l 643 213 l 289 213 l 222 0 l 39 0 l 356 936 l 582 936 l 899 0 l 710 0 m 335 356 l 599 356 q 467 806 483 735 q 335 356 456 746 m 561 1038 q 465 1064 519 1038 q 384 1090 411 1090 q 336 1077 357 1090 q 290 1029 315 1064 l 211 1103 q 274 1180 233 1149 q 364 1211 315 1211 q 469 1185 413 1211 q 553 1158 526 1158 q 642 1218 613 1158 l 731 1147 q 561 1038 676 1038 z "},"Ä":{"ha":936,"x_min":39,"x_max":899,"o":"m 710 0 l 643 213 l 289 213 l 222 0 l 39 0 l 356 936 l 582 936 l 899 0 l 710 0 m 335 356 l 599 356 q 467 806 483 735 q 335 356 456 746 m 406 1123 q 406 1102 406 1123 q 378 1054 406 1082 q 308 1026 350 1026 q 238 1054 265 1026 q 210 1123 210 1082 q 238 1192 210 1164 q 308 1219 265 1219 q 378 1192 350 1219 q 406 1123 406 1164 m 743 1123 q 743 1102 743 1123 q 715 1054 743 1082 q 645 1026 688 1026 q 574 1054 603 1026 q 546 1123 546 1082 q 574 1192 546 1164 q 645 1219 603 1219 q 715 1192 688 1219 q 743 1123 743 1164 z "},"Å":{"ha":936,"x_min":39,"x_max":899,"o":"m 710 0 l 643 213 l 289 213 l 222 0 l 39 0 l 356 936 l 582 936 l 899 0 l 710 0 m 335 356 l 599 356 q 467 806 483 735 q 335 356 456 746 m 597 1040 q 571 1014 597 1040 q 474 989 546 989 q 351 1040 401 989 q 300 1163 300 1090 q 351 1285 300 1235 q 474 1336 401 1336 q 597 1285 546 1336 q 647 1163 647 1235 q 597 1040 647 1090 m 526 1219 q 516 1230 526 1219 q 474 1242 506 1242 q 421 1219 442 1242 q 400 1165 400 1196 q 421 1112 400 1135 q 474 1089 442 1089 q 526 1112 506 1089 q 547 1165 547 1135 q 526 1219 547 1196 z "},"Æ":{"ha":1274,"x_min":19,"x_max":1196,"o":"m 814 143 l 1196 143 l 1196 0 l 643 0 l 643 213 l 317 213 l 204 0 l 19 0 l 501 936 l 1190 936 l 1190 793 l 814 793 l 814 539 l 1149 539 l 1149 397 l 814 397 l 814 143 m 643 356 l 643 849 q 414 396 578 696 l 393 356 l 643 356 z "},"Ç":{"ha":846,"x_min":60,"x_max":781,"o":"m 779 726 q 546 788 674 788 q 333 701 418 788 q 247 468 247 614 q 333 236 247 322 q 553 150 418 150 q 781 219 688 150 l 781 44 q 539 -11 694 -11 q 195 120 331 -11 q 60 466 60 251 q 194 815 60 681 q 539 949 328 949 q 779 897 693 949 l 779 726 m 585 -71 q 610 -181 610 -108 q 550 -308 610 -254 q 375 -364 490 -362 l 375 -256 q 485 -162 485 -251 q 450 -71 485 -122 l 585 -71 z "},"È":{"ha":733,"x_min":97,"x_max":656,"o":"m 274 143 l 656 143 l 656 0 l 97 0 l 97 936 l 650 936 l 650 793 l 274 793 l 274 539 l 608 539 l 608 397 l 274 397 l 274 143 m 467 1004 l 326 1004 l 165 1239 l 340 1239 l 467 1004 z "},"É":{"ha":733,"x_min":97,"x_max":656,"o":"m 274 143 l 656 143 l 656 0 l 97 0 l 97 936 l 650 936 l 650 793 l 274 793 l 274 539 l 608 539 l 608 397 l 274 397 l 274 143 m 622 1239 l 461 1004 l 321 1004 l 447 1239 l 622 1239 z "},"Ê":{"ha":733,"x_min":97,"x_max":656,"o":"m 274 143 l 656 143 l 656 0 l 97 0 l 97 936 l 650 936 l 650 793 l 274 793 l 274 539 l 608 539 l 608 397 l 274 397 l 274 143 m 379 1142 l 267 1004 l 104 1004 l 306 1239 l 453 1239 l 654 1004 l 492 1004 l 379 1142 z "},"Ë":{"ha":733,"x_min":97,"x_max":656,"o":"m 274 143 l 656 143 l 656 0 l 97 0 l 97 936 l 650 936 l 650 793 l 274 793 l 274 539 l 608 539 l 608 397 l 274 397 l 274 143 m 306 1120 q 306 1100 306 1120 q 278 1051 306 1079 q 208 1024 250 1024 q 138 1051 165 1024 q 110 1120 110 1079 q 138 1189 110 1161 q 208 1217 165 1217 q 278 1189 250 1217 q 306 1120 306 1161 m 643 1120 q 643 1100 643 1120 q 615 1051 643 1079 q 545 1024 588 1024 q 474 1051 503 1024 q 446 1120 446 1079 q 474 1189 446 1161 q 545 1217 503 1217 q 615 1189 588 1217 q 643 1120 643 1161 z "},"Ì":{"ha":392,"x_min":-42,"x_max":283,"o":"m 133 1239 l 260 1004 l 119 1004 l -42 1239 l 133 1239 m 108 0 l 108 936 l 283 936 l 283 0 l 108 0 z "},"Í":{"ha":392,"x_min":108,"x_max":432,"o":"m 131 1004 l 257 1239 l 432 1239 l 271 1004 l 131 1004 m 108 0 l 108 936 l 283 936 l 283 0 l 108 0 z "},"Î":{"ha":392,"x_min":-76,"x_max":474,"o":"m 108 0 l 108 936 l 283 936 l 283 0 l 108 0 m 125 1239 l 272 1239 l 474 1004 l 311 1004 l 199 1142 l 86 1004 l -76 1004 l 125 1239 z "},"Ï":{"ha":392,"x_min":-64,"x_max":469,"o":"m 372 1025 q 350 1025 372 1025 q 301 1053 329 1025 q 272 1122 272 1081 q 301 1190 272 1163 q 372 1218 329 1218 q 442 1190 414 1218 q 469 1122 469 1163 q 442 1053 469 1081 q 372 1025 414 1025 m 34 1025 q 13 1025 34 1025 q -36 1053 -8 1025 q -64 1122 -64 1081 q -36 1190 -64 1163 q 34 1218 -8 1218 q 104 1190 76 1218 q 132 1122 132 1163 q 104 1053 132 1081 q 34 1025 76 1025 m 108 0 l 108 936 l 283 936 l 283 0 l 108 0 z "},"Ð":{"ha":1031,"x_min":89,"x_max":972,"o":"m 190 936 l 496 936 q 839 807 706 936 q 972 471 972 678 q 844 132 972 264 q 496 0 715 0 l 190 0 l 190 392 l 89 392 l 89 535 l 190 535 l 190 936 m 369 146 l 493 146 q 717 237 640 146 q 794 472 794 328 q 713 702 794 615 q 490 789 631 789 l 369 789 l 369 535 l 581 535 l 581 392 l 369 392 l 369 146 z "},"Ñ":{"ha":956,"x_min":97,"x_max":860,"o":"m 576 1038 q 481 1064 533 1038 q 400 1090 428 1090 q 351 1077 372 1090 q 306 1029 331 1064 l 226 1103 q 290 1180 249 1149 q 379 1211 331 1211 q 485 1185 428 1211 q 568 1158 542 1158 q 657 1218 628 1158 l 746 1147 q 576 1038 692 1038 m 97 0 l 97 936 l 296 936 q 622 364 579 443 q 694 215 664 285 q 683 546 683 331 l 683 936 l 860 936 l 860 0 l 660 0 l 432 389 q 257 725 324 572 q 272 390 272 593 l 272 0 l 97 0 z "},"Ò":{"ha":1004,"x_min":60,"x_max":944,"o":"m 458 1239 l 585 1004 l 444 1004 l 283 1239 l 458 1239 m 502 792 q 443 792 502 792 q 315 706 383 792 q 247 472 247 619 q 317 238 247 324 q 503 151 386 151 q 689 237 621 151 q 757 471 757 322 q 689 706 757 619 q 502 792 621 792 m 503 -10 q 402 -10 503 -10 q 181 122 301 -10 q 60 472 60 254 q 180 821 60 689 q 503 953 300 953 q 825 822 706 953 q 944 472 944 690 q 824 122 944 254 q 503 -10 704 -10 z "},"Ó":{"ha":1004,"x_min":60,"x_max":944,"o":"m 502 792 q 443 792 502 792 q 315 706 383 792 q 247 472 247 619 q 317 238 247 324 q 503 151 386 151 q 689 237 621 151 q 757 471 757 322 q 689 706 757 619 q 502 792 621 792 m 503 -10 q 402 -10 503 -10 q 181 122 301 -10 q 60 472 60 254 q 180 821 60 689 q 503 953 300 953 q 825 822 706 953 q 944 472 944 690 q 824 122 944 254 q 503 -10 704 -10 m 439 1004 l 565 1239 l 740 1239 l 579 1004 l 439 1004 z "},"Ô":{"ha":1004,"x_min":60,"x_max":944,"o":"m 436 1239 l 583 1239 l 785 1004 l 622 1004 l 510 1142 l 397 1004 l 235 1004 l 436 1239 m 503 -10 q 402 -10 503 -10 q 181 122 301 -10 q 60 472 60 254 q 180 821 60 689 q 503 953 300 953 q 825 822 706 953 q 944 472 944 690 q 824 122 944 254 q 503 -10 704 -10 m 502 792 q 443 792 502 792 q 315 706 383 792 q 247 472 247 619 q 317 238 247 324 q 503 151 386 151 q 689 237 621 151 q 757 471 757 322 q 689 706 757 619 q 502 792 621 792 z "},"Õ":{"ha":1004,"x_min":60,"x_max":944,"o":"m 593 1038 q 497 1064 550 1038 q 417 1090 444 1090 q 368 1077 389 1090 q 322 1029 347 1064 l 243 1103 q 306 1180 265 1149 q 396 1211 347 1211 q 501 1185 444 1211 q 585 1158 558 1158 q 674 1218 644 1158 l 763 1147 q 593 1038 708 1038 m 502 792 q 443 792 502 792 q 315 706 383 792 q 247 472 247 619 q 317 238 247 324 q 503 151 386 151 q 689 237 621 151 q 757 471 757 322 q 689 706 757 619 q 502 792 621 792 m 503 -10 q 402 -10 503 -10 q 181 122 301 -10 q 60 472 60 254 q 180 821 60 689 q 503 953 300 953 q 825 822 706 953 q 944 472 944 690 q 824 122 944 254 q 503 -10 704 -10 z "},"Ö":{"ha":1004,"x_min":60,"x_max":944,"o":"m 502 792 q 443 792 502 792 q 315 706 383 792 q 247 472 247 619 q 317 238 247 324 q 503 151 386 151 q 689 237 621 151 q 757 471 757 322 q 689 706 757 619 q 502 792 621 792 m 503 -10 q 402 -10 503 -10 q 181 122 301 -10 q 60 472 60 254 q 180 821 60 689 q 503 953 300 953 q 825 822 706 953 q 944 472 944 690 q 824 122 944 254 q 503 -10 704 -10 m 680 1026 q 659 1026 680 1026 q 609 1054 638 1026 q 581 1123 581 1082 q 609 1192 581 1164 q 680 1219 638 1219 q 750 1192 722 1219 q 778 1123 778 1164 q 750 1054 778 1082 q 680 1026 722 1026 m 342 1026 q 321 1026 342 1026 q 272 1054 300 1026 q 244 1123 244 1082 q 272 1192 244 1164 q 342 1219 300 1219 q 413 1192 385 1219 q 440 1123 440 1164 q 413 1054 440 1082 q 342 1026 385 1026 z "},"×":{"ha":715,"x_min":67,"x_max":646,"o":"m 646 651 l 465 471 l 646 290 l 539 185 l 358 364 l 179 186 l 71 294 l 249 472 l 67 654 l 174 761 l 356 579 l 536 760 l 646 651 z "},"Ø":{"ha":971,"x_min":54,"x_max":940,"o":"m 832 806 q 939 466 939 678 q 819 122 939 254 q 497 -10 699 -10 q 269 47 367 -10 l 226 -11 l 56 -11 l 164 135 q 54 476 54 264 q 174 821 54 689 q 496 953 294 953 q 728 894 626 953 l 769 951 l 940 951 l 832 806 m 496 800 q 305 712 375 800 q 235 471 235 624 q 272 282 235 361 l 631 764 q 496 800 574 800 m 497 143 q 688 231 618 143 q 758 471 758 319 q 722 658 758 579 l 367 178 q 497 143 419 143 z "},"Ù":{"ha":915,"x_min":92,"x_max":824,"o":"m 410 1239 l 536 1004 l 396 1004 l 235 1239 l 410 1239 m 649 358 l 649 936 l 824 936 l 824 360 q 726 83 824 178 q 459 -12 628 -12 q 191 81 290 -12 q 92 350 92 175 l 92 936 l 267 936 l 267 351 q 319 197 267 244 q 457 149 372 149 q 649 358 649 149 z "},"Ú":{"ha":915,"x_min":92,"x_max":824,"o":"m 649 358 l 649 936 l 824 936 l 824 360 q 726 83 824 178 q 459 -12 628 -12 q 191 81 290 -12 q 92 350 92 175 l 92 936 l 267 936 l 267 351 q 319 197 267 244 q 457 149 372 149 q 649 358 649 149 m 406 1004 l 532 1239 l 707 1239 l 546 1004 l 406 1004 z "},"Û":{"ha":915,"x_min":92,"x_max":824,"o":"m 383 1239 l 531 1239 l 732 1004 l 569 1004 l 457 1142 l 344 1004 l 182 1004 l 383 1239 m 649 358 l 649 936 l 824 936 l 824 360 q 726 83 824 178 q 459 -12 628 -12 q 191 81 290 -12 q 92 350 92 175 l 92 936 l 267 936 l 267 351 q 319 197 267 244 q 457 149 372 149 q 649 358 649 149 z "},"Ü":{"ha":915,"x_min":92,"x_max":824,"o":"m 649 358 l 649 936 l 824 936 l 824 360 q 726 83 824 178 q 459 -12 628 -12 q 191 81 290 -12 q 92 350 92 175 l 92 936 l 267 936 l 267 351 q 319 197 267 244 q 457 149 372 149 q 649 358 649 149 m 631 1025 q 610 1025 631 1025 q 560 1053 589 1025 q 532 1122 532 1081 q 560 1190 532 1163 q 631 1218 589 1218 q 701 1190 674 1218 q 729 1122 729 1163 q 701 1053 729 1081 q 631 1025 674 1025 m 294 1025 q 273 1025 294 1025 q 224 1053 251 1025 q 196 1122 196 1081 q 224 1190 196 1163 q 294 1218 251 1218 q 364 1190 336 1218 q 392 1122 392 1163 q 364 1053 392 1081 q 294 1025 336 1025 z "},"Ý":{"ha":867,"x_min":25,"x_max":842,"o":"m 519 0 l 344 0 l 344 342 l 25 936 l 229 936 q 431 482 397 572 q 574 800 443 533 l 638 936 l 842 936 l 519 347 l 519 0 m 686 1239 l 525 1004 l 385 1004 l 511 1239 l 686 1239 z "},"Þ":{"ha":768,"x_min":97,"x_max":735,"o":"m 272 776 l 386 776 q 641 690 547 776 q 735 465 735 604 q 638 243 735 326 q 390 160 542 160 l 272 160 l 272 0 l 97 0 l 97 936 l 272 936 l 272 776 m 272 301 l 382 301 q 513 347 469 301 q 557 465 557 393 q 514 585 557 536 q 376 633 471 633 l 272 633 l 272 301 z "},"ß":{"ha":800,"x_min":92,"x_max":768,"o":"m 378 163 q 497 124 440 124 q 582 146 554 124 q 610 206 610 168 q 578 277 610 243 q 508 334 546 311 q 438 398 469 357 q 406 491 406 439 q 451 610 406 543 q 497 719 497 678 q 469 785 497 760 q 392 810 442 810 q 256 668 256 810 l 256 0 l 92 0 l 92 658 q 169 881 92 804 q 379 958 246 958 q 590 891 513 958 q 667 731 667 824 q 644 631 667 674 q 601 558 622 588 q 579 506 579 528 q 609 457 579 483 q 674 405 639 431 q 738 327 708 379 q 768 210 768 275 q 702 50 768 111 q 530 -11 636 -11 q 378 15 424 -11 l 378 163 z "},"à":{"ha":704,"x_min":56,"x_max":622,"o":"m 336 717 q 622 450 622 717 l 622 0 l 457 0 l 457 85 q 274 -6 408 -6 q 115 53 174 -6 q 56 206 56 111 q 131 357 56 300 q 347 414 206 414 l 450 414 l 450 457 q 419 546 450 515 q 315 576 389 576 q 108 514 203 576 l 108 668 q 336 717 188 717 m 450 303 l 364 303 q 264 276 299 303 q 229 207 229 249 q 332 118 229 118 q 419 151 388 118 q 450 236 450 183 l 450 303 m 435 772 l 294 772 l 133 1007 l 308 1007 l 435 772 z "},"á":{"ha":704,"x_min":56,"x_max":622,"o":"m 336 717 q 622 450 622 717 l 622 0 l 457 0 l 457 85 q 274 -6 408 -6 q 115 53 174 -6 q 56 206 56 111 q 131 357 56 300 q 347 414 206 414 l 450 414 l 450 457 q 419 546 450 515 q 315 576 389 576 q 108 514 203 576 l 108 668 q 336 717 188 717 m 450 303 l 364 303 q 264 276 299 303 q 229 207 229 249 q 332 118 229 118 q 419 151 388 118 q 450 236 450 183 l 450 303 m 586 1007 l 425 772 l 285 772 l 411 1007 l 586 1007 z "},"â":{"ha":704,"x_min":56,"x_max":629,"o":"m 336 717 q 622 450 622 717 l 622 0 l 457 0 l 457 85 q 274 -6 408 -6 q 115 53 174 -6 q 56 206 56 111 q 131 357 56 300 q 347 414 206 414 l 450 414 l 450 457 q 419 546 450 515 q 315 576 389 576 q 108 514 203 576 l 108 668 q 336 717 188 717 m 450 303 l 364 303 q 264 276 299 303 q 229 207 229 249 q 332 118 229 118 q 419 151 388 118 q 450 236 450 183 l 450 303 m 354 910 l 242 772 l 79 772 l 281 1007 l 428 1007 l 629 772 l 467 772 l 354 910 z "},"ã":{"ha":704,"x_min":56,"x_max":622,"o":"m 336 717 q 622 450 622 717 l 622 0 l 457 0 l 457 85 q 274 -6 408 -6 q 115 53 174 -6 q 56 206 56 111 q 131 357 56 300 q 347 414 206 414 l 450 414 l 450 457 q 419 546 450 515 q 315 576 389 576 q 108 514 203 576 l 108 668 q 336 717 188 717 m 450 303 l 364 303 q 264 276 299 303 q 229 207 229 249 q 332 118 229 118 q 419 151 388 118 q 450 236 450 183 l 450 303 m 443 806 q 347 832 400 806 q 267 858 294 858 q 218 845 239 858 q 172 797 197 832 l 93 871 q 156 948 115 917 q 246 979 197 979 q 351 953 294 979 q 435 926 408 926 q 524 986 494 926 l 613 915 q 443 806 558 806 z "},"ä":{"ha":704,"x_min":56,"x_max":628,"o":"m 336 717 q 622 450 622 717 l 622 0 l 457 0 l 457 85 q 274 -6 408 -6 q 115 53 174 -6 q 56 206 56 111 q 131 357 56 300 q 347 414 206 414 l 450 414 l 450 457 q 419 546 450 515 q 315 576 389 576 q 108 514 203 576 l 108 668 q 336 717 188 717 m 450 303 l 364 303 q 264 276 299 303 q 229 207 229 249 q 332 118 229 118 q 419 151 388 118 q 450 236 450 183 l 450 303 m 290 888 q 290 868 290 888 q 263 819 290 847 q 192 792 235 792 q 122 819 150 792 q 94 888 94 847 q 122 957 94 929 q 192 985 150 985 q 263 957 235 985 q 290 888 290 929 m 628 888 q 628 868 628 888 q 600 819 628 847 q 530 792 572 792 q 459 819 488 792 q 431 888 431 847 q 459 957 431 929 q 530 985 488 985 q 600 957 572 985 q 628 888 628 929 z "},"å":{"ha":704,"x_min":56,"x_max":622,"o":"m 336 717 q 622 450 622 717 l 622 0 l 457 0 l 457 85 q 274 -6 408 -6 q 115 53 174 -6 q 56 206 56 111 q 131 357 56 300 q 347 414 206 414 l 450 414 l 450 457 q 419 546 450 515 q 315 576 389 576 q 108 514 203 576 l 108 668 q 336 717 188 717 m 450 303 l 364 303 q 264 276 299 303 q 229 207 229 249 q 332 118 229 118 q 419 151 388 118 q 450 236 450 183 l 450 303 m 481 808 q 456 782 481 808 q 358 757 431 757 q 235 808 286 757 q 185 931 185 858 q 235 1053 185 1003 q 358 1104 286 1104 q 481 1053 431 1104 q 532 931 532 1003 q 481 808 532 858 m 411 987 q 401 998 411 987 q 358 1010 390 1010 q 306 987 326 1010 q 285 933 285 964 q 306 880 285 903 q 358 857 326 857 q 411 880 390 857 q 432 933 432 903 q 411 987 432 964 z "},"æ":{"ha":1128,"x_min":63,"x_max":1072,"o":"m 624 285 q 700 169 642 210 q 854 128 758 128 q 1026 183 950 128 l 1026 39 q 822 -7 951 -7 q 663 28 739 -7 q 547 128 588 63 q 460 33 522 71 q 294 -6 399 -6 q 126 49 189 -6 q 63 202 63 104 q 138 357 63 300 q 356 414 214 414 l 457 414 l 457 457 q 426 546 457 515 q 322 576 396 576 q 115 514 207 576 l 115 668 q 333 717 199 717 q 549 604 499 717 q 768 711 621 711 q 994 628 915 711 q 1072 382 1072 544 q 1063 285 1072 346 l 624 285 m 914 410 l 914 429 q 877 540 911 500 q 783 581 843 581 q 677 537 722 581 q 619 410 632 493 l 914 410 m 457 240 l 457 301 l 378 301 q 273 276 310 301 q 236 207 236 251 q 339 119 236 119 q 424 152 392 119 q 457 240 457 185 z "},"ç":{"ha":653,"x_min":53,"x_max":600,"o":"m 472 -71 q 497 -181 497 -108 q 438 -308 497 -254 q 263 -364 378 -362 l 263 -256 q 372 -162 372 -251 q 338 -71 372 -122 l 472 -71 m 224 350 q 284 189 226 250 q 434 128 342 128 q 600 175 526 128 l 600 31 q 417 -12 526 -12 q 153 90 254 -12 q 53 349 53 193 q 153 610 54 504 q 425 715 253 715 q 600 676 528 715 l 600 529 q 438 574 531 574 q 285 513 344 574 q 224 350 225 451 z "},"è":{"ha":735,"x_min":53,"x_max":672,"o":"m 415 -7 q 150 93 247 -7 q 53 356 53 193 q 144 615 53 519 q 374 711 236 711 q 592 628 511 711 q 672 385 672 544 q 663 285 672 346 l 221 285 q 297 168 239 208 q 453 128 354 128 q 628 183 551 128 l 628 39 q 415 -7 554 -7 m 514 410 l 514 431 q 477 540 511 499 q 381 581 443 581 q 274 537 318 581 q 218 410 231 493 l 514 410 m 457 772 l 317 772 l 156 1007 l 331 1007 l 457 772 z "},"é":{"ha":735,"x_min":53,"x_max":672,"o":"m 415 -7 q 150 93 247 -7 q 53 356 53 193 q 144 615 53 519 q 374 711 236 711 q 592 628 511 711 q 672 385 672 544 q 663 285 672 346 l 221 285 q 297 168 239 208 q 453 128 354 128 q 628 183 551 128 l 628 39 q 415 -7 554 -7 m 514 410 l 514 431 q 477 540 511 499 q 381 581 443 581 q 274 537 318 581 q 218 410 231 493 l 514 410 m 628 1007 l 467 772 l 326 772 l 453 1007 l 628 1007 z "},"ê":{"ha":735,"x_min":53,"x_max":672,"o":"m 415 -7 q 150 93 247 -7 q 53 356 53 193 q 144 615 53 519 q 374 711 236 711 q 592 628 511 711 q 672 385 672 544 q 663 285 672 346 l 221 285 q 297 168 239 208 q 453 128 354 128 q 628 183 551 128 l 628 39 q 415 -7 554 -7 m 514 410 l 514 431 q 477 540 511 499 q 381 581 443 581 q 274 537 318 581 q 218 410 231 493 l 514 410 m 381 910 l 268 772 l 106 772 l 307 1007 l 454 1007 l 656 772 l 493 772 l 381 910 z "},"ë":{"ha":735,"x_min":53,"x_max":672,"o":"m 415 -7 q 150 93 247 -7 q 53 356 53 193 q 144 615 53 519 q 374 711 236 711 q 592 628 511 711 q 672 385 672 544 q 663 285 672 346 l 221 285 q 297 168 239 208 q 453 128 354 128 q 628 183 551 128 l 628 39 q 415 -7 554 -7 m 514 410 l 514 431 q 477 540 511 499 q 381 581 443 581 q 274 537 318 581 q 218 410 231 493 l 514 410 m 322 890 q 322 869 322 890 q 294 821 322 849 q 224 793 267 793 q 154 821 182 793 q 126 890 126 849 q 154 958 126 931 q 224 986 182 986 q 294 958 267 986 q 322 890 322 931 m 660 890 q 660 869 660 890 q 632 821 660 849 q 562 793 604 793 q 491 821 519 793 q 463 890 463 849 q 491 958 463 931 q 562 986 519 986 q 632 958 604 986 q 660 890 660 931 z "},"ì":{"ha":361,"x_min":-62,"x_max":264,"o":"m 113 1007 l 239 772 l 99 772 l -62 1007 l 113 1007 m 97 0 l 97 704 l 264 704 l 264 0 l 97 0 z "},"í":{"ha":361,"x_min":97,"x_max":421,"o":"m 119 772 l 246 1007 l 421 1007 l 260 772 l 119 772 m 97 0 l 97 704 l 264 704 l 264 0 l 97 0 z "},"î":{"ha":361,"x_min":-93,"x_max":457,"o":"m 97 0 l 97 704 l 264 704 l 264 0 l 97 0 m 108 1007 l 256 1007 l 457 772 l 294 772 l 182 910 l 69 772 l -93 772 l 108 1007 z "},"ï":{"ha":361,"x_min":-85,"x_max":449,"o":"m 351 794 q 330 794 351 794 q 280 822 308 794 q 251 891 251 850 q 280 960 251 932 q 351 988 308 988 q 421 960 393 988 q 449 891 449 932 q 421 822 449 850 q 351 794 393 794 m 13 794 q -8 794 13 794 q -57 822 -29 794 q -85 891 -85 850 q -57 960 -85 932 q 13 988 -29 988 q 83 960 56 988 q 111 891 111 932 q 83 822 111 850 q 13 794 56 794 m 97 0 l 97 704 l 264 704 l 264 0 l 97 0 z "},"ð":{"ha":753,"x_min":50,"x_max":688,"o":"m 551 790 q 688 405 688 607 q 603 94 688 203 q 369 -14 519 -14 q 135 73 219 -14 q 50 285 50 160 q 127 485 50 410 q 322 561 204 561 q 517 483 439 561 q 417 724 497 610 l 221 625 l 221 728 l 357 796 q 179 936 288 869 l 403 936 q 492 863 447 907 l 654 943 l 654 842 l 551 790 m 363 138 q 521 338 506 138 q 358 417 453 417 q 259 378 296 417 q 222 276 222 340 q 260 174 222 211 q 363 138 299 138 z "},"ñ":{"ha":785,"x_min":90,"x_max":701,"o":"m 257 704 l 257 583 q 474 713 317 713 q 640 649 579 713 q 701 468 701 585 l 701 0 l 535 0 l 535 433 q 501 538 535 503 q 407 574 468 574 q 301 523 346 574 q 257 378 257 472 l 257 0 l 90 0 l 90 704 l 257 704 m 489 806 q 393 832 447 806 q 312 858 339 858 q 264 845 285 858 q 218 797 243 832 l 139 871 q 202 948 161 917 q 292 979 243 979 q 397 953 340 979 q 481 926 454 926 q 569 986 540 926 l 658 915 q 489 806 604 806 z "},"ò":{"ha":785,"x_min":53,"x_max":732,"o":"m 346 1007 l 472 772 l 332 772 l 171 1007 l 346 1007 m 558 350 q 558 400 558 350 q 518 515 558 450 q 395 579 478 579 q 270 514 313 579 q 228 351 228 449 q 271 188 228 253 q 394 122 314 122 q 517 186 475 122 q 558 350 558 250 m 732 353 q 732 274 732 353 q 642 92 732 194 q 392 -11 553 -11 q 142 89 232 -11 q 53 347 53 189 q 146 610 53 506 q 397 715 239 715 q 643 613 554 715 q 732 353 732 511 z "},"ó":{"ha":785,"x_min":53,"x_max":732,"o":"m 558 350 q 558 400 558 350 q 518 515 558 450 q 395 579 478 579 q 270 514 313 579 q 228 351 228 449 q 271 188 228 253 q 394 122 314 122 q 517 186 475 122 q 558 350 558 250 m 732 353 q 732 274 732 353 q 642 92 732 194 q 392 -11 553 -11 q 142 89 232 -11 q 53 347 53 189 q 146 610 53 506 q 397 715 239 715 q 643 613 554 715 q 732 353 732 511 m 339 772 l 465 1007 l 640 1007 l 479 772 l 339 772 z "},"ô":{"ha":785,"x_min":53,"x_max":732,"o":"m 324 1006 l 471 1006 l 672 771 l 510 771 l 397 908 l 285 771 l 122 771 l 324 1006 m 732 353 q 732 274 732 353 q 642 92 732 194 q 392 -11 553 -11 q 142 89 232 -11 q 53 347 53 189 q 146 610 53 506 q 397 715 239 715 q 643 613 554 715 q 732 353 732 511 m 558 350 q 558 400 558 350 q 518 515 558 450 q 395 579 478 579 q 270 514 313 579 q 228 351 228 449 q 271 188 228 253 q 394 122 314 122 q 517 186 475 122 q 558 350 558 250 z "},"õ":{"ha":785,"x_min":53,"x_max":732,"o":"m 488 806 q 392 832 444 806 q 311 858 339 858 q 263 845 283 858 q 217 797 242 832 l 138 871 q 201 948 160 917 q 290 979 242 979 q 396 953 339 979 q 479 926 453 926 q 568 986 539 926 l 657 915 q 488 806 603 806 m 558 350 q 558 400 558 350 q 518 515 558 450 q 395 579 478 579 q 270 514 313 579 q 228 351 228 449 q 271 188 228 253 q 394 122 314 122 q 517 186 475 122 q 558 350 558 250 m 732 353 q 732 274 732 353 q 642 92 732 194 q 392 -11 553 -11 q 142 89 232 -11 q 53 347 53 189 q 146 610 53 506 q 397 715 239 715 q 643 613 554 715 q 732 353 732 511 z "},"ö":{"ha":785,"x_min":53,"x_max":732,"o":"m 558 350 q 558 400 558 350 q 518 515 558 450 q 395 579 478 579 q 270 514 313 579 q 228 351 228 449 q 271 188 228 253 q 394 122 314 122 q 517 186 475 122 q 558 350 558 250 m 732 353 q 732 274 732 353 q 642 92 732 194 q 392 -11 553 -11 q 142 89 232 -11 q 53 347 53 189 q 146 610 53 506 q 397 715 239 715 q 643 613 554 715 q 732 353 732 511 m 576 793 q 555 793 576 793 q 505 821 533 793 q 476 890 476 849 q 505 958 476 931 q 576 986 533 986 q 646 958 618 986 q 674 890 674 931 q 646 821 674 849 q 576 793 618 793 m 238 793 q 217 793 238 793 q 168 821 196 793 q 140 890 140 849 q 168 958 140 931 q 238 986 196 986 q 308 958 281 986 q 336 890 336 931 q 308 821 336 849 q 238 793 281 793 z "},"÷":{"ha":800,"x_min":69,"x_max":731,"o":"m 330 161 q 316 175 330 161 q 303 226 303 189 q 330 292 303 264 q 395 319 357 319 q 461 292 433 319 q 489 226 489 264 q 461 161 489 189 q 395 133 433 133 q 330 161 357 133 m 69 397 l 69 547 l 731 547 l 731 397 l 69 397 m 330 653 q 316 667 330 653 q 303 718 303 681 q 330 783 303 756 q 395 811 357 811 q 461 783 433 811 q 489 718 489 756 q 461 653 489 681 q 395 625 433 625 q 330 653 357 625 z "},"ø":{"ha":781,"x_min":60,"x_max":739,"o":"m 658 604 q 739 349 739 504 q 649 92 739 194 q 399 -11 560 -11 q 233 25 303 -11 l 207 -11 l 60 -11 l 140 99 q 60 350 60 196 q 153 610 60 504 q 399 715 246 715 q 564 679 494 715 l 590 715 l 739 715 l 658 604 m 399 596 q 263 526 310 596 q 215 350 215 456 q 236 229 215 283 l 488 575 q 399 596 453 596 m 400 106 q 537 174 490 106 q 583 333 583 242 q 564 476 583 424 l 311 131 q 400 106 349 106 z "},"ù":{"ha":785,"x_min":83,"x_max":694,"o":"m 526 704 l 694 704 l 694 0 l 526 0 l 526 115 q 310 -7 471 -7 q 143 54 203 -7 q 83 228 83 115 l 83 704 l 250 704 l 250 267 q 283 165 250 200 q 380 131 315 131 q 485 179 444 131 q 526 326 526 228 l 526 704 m 463 771 l 322 771 l 161 1006 l 336 1006 l 463 771 z "},"ú":{"ha":785,"x_min":83,"x_max":694,"o":"m 526 704 l 694 704 l 694 0 l 526 0 l 526 115 q 310 -7 471 -7 q 143 54 203 -7 q 83 228 83 115 l 83 704 l 250 704 l 250 267 q 283 165 250 200 q 380 131 315 131 q 485 179 444 131 q 526 326 526 228 l 526 704 m 633 1007 l 472 772 l 332 772 l 458 1007 l 633 1007 z "},"û":{"ha":785,"x_min":83,"x_max":694,"o":"m 526 704 l 694 704 l 694 0 l 526 0 l 526 115 q 310 -7 471 -7 q 143 54 203 -7 q 83 228 83 115 l 83 704 l 250 704 l 250 267 q 283 165 250 200 q 380 131 315 131 q 485 179 444 131 q 526 326 526 228 l 526 704 m 390 910 l 278 772 l 115 772 l 317 1007 l 464 1007 l 665 772 l 503 772 l 390 910 z "},"ü":{"ha":785,"x_min":83,"x_max":694,"o":"m 526 704 l 694 704 l 694 0 l 526 0 l 526 115 q 310 -7 471 -7 q 143 54 203 -7 q 83 228 83 115 l 83 704 l 250 704 l 250 267 q 283 165 250 200 q 380 131 315 131 q 485 179 444 131 q 526 326 526 228 l 526 704 m 319 890 q 319 869 319 890 q 292 821 319 849 q 222 793 264 793 q 151 821 179 793 q 124 890 124 849 q 151 958 124 931 q 222 986 179 986 q 292 958 264 986 q 319 890 319 931 m 657 890 q 657 869 657 890 q 629 821 657 849 q 559 793 601 793 q 488 821 517 793 q 460 890 460 849 q 488 958 460 931 q 559 986 517 986 q 629 958 601 986 q 657 890 657 931 z "},"ý":{"ha":718,"x_min":8,"x_max":706,"o":"m 129 -262 q 60 -256 89 -262 l 60 -118 q 107 -124 82 -124 q 286 14 233 -124 l 8 704 l 193 704 q 368 206 351 268 q 531 704 372 221 l 706 704 l 451 19 q 129 -262 346 -262 m 311 772 l 438 1007 l 613 1007 l 451 772 l 311 772 z "},"þ":{"ha":825,"x_min":90,"x_max":772,"o":"m 257 982 l 257 596 q 471 714 332 714 q 691 615 610 714 q 772 357 772 517 q 691 94 772 197 q 469 -10 610 -10 q 257 106 329 -10 l 257 -265 l 90 -265 l 90 982 l 257 982 m 257 357 q 257 303 257 357 q 308 192 257 250 q 433 133 360 133 q 554 191 507 133 q 601 353 601 249 q 554 515 601 457 q 435 572 507 572 q 310 518 363 572 q 257 357 257 464 z "},"ÿ":{"ha":718,"x_min":8,"x_max":706,"o":"m 129 -262 q 60 -256 89 -262 l 60 -118 q 107 -124 82 -124 q 286 14 233 -124 l 8 704 l 193 704 q 368 206 351 268 q 531 704 372 221 l 706 704 l 451 19 q 129 -262 346 -262 m 203 793 q 182 793 203 793 q 133 821 161 793 q 106 890 106 849 q 133 958 106 931 q 203 986 161 986 q 274 958 246 986 q 301 890 301 931 q 274 821 301 849 q 203 793 246 793 m 541 793 q 520 793 541 793 q 470 821 499 793 q 442 890 442 849 q 470 958 442 931 q 541 986 499 986 q 611 958 583 986 q 639 890 639 931 q 611 821 639 849 q 541 793 583 793 z "},"Ā":{"ha":936,"x_min":39,"x_max":899,"o":"m 710 0 l 643 213 l 289 213 l 222 0 l 39 0 l 356 936 l 582 936 l 899 0 l 710 0 m 335 356 l 599 356 q 467 806 483 735 q 335 356 456 746 m 701 1181 l 701 1065 l 246 1065 l 246 1181 l 701 1181 z "},"ā":{"ha":704,"x_min":56,"x_max":622,"o":"m 336 717 q 622 450 622 717 l 622 0 l 457 0 l 457 85 q 274 -6 408 -6 q 115 53 174 -6 q 56 206 56 111 q 131 357 56 300 q 347 414 206 414 l 450 414 l 450 457 q 419 546 450 515 q 315 576 389 576 q 108 514 203 576 l 108 668 q 336 717 188 717 m 450 303 l 364 303 q 264 276 299 303 q 229 207 229 249 q 332 118 229 118 q 419 151 388 118 q 450 236 450 183 l 450 303 m 581 947 l 581 832 l 125 832 l 125 947 l 581 947 z "},"Ă":{"ha":936,"x_min":39,"x_max":899,"o":"m 710 0 l 643 213 l 289 213 l 222 0 l 39 0 l 356 936 l 582 936 l 899 0 l 710 0 m 335 356 l 599 356 q 467 806 483 735 q 335 356 456 746 m 593 1239 l 724 1239 q 655 1059 724 1119 q 467 999 586 999 q 278 1060 347 999 q 210 1239 210 1121 l 340 1239 q 373 1144 340 1179 q 467 1108 406 1108 q 560 1144 528 1108 q 593 1239 593 1179 z "},"ă":{"ha":704,"x_min":56,"x_max":622,"o":"m 336 717 q 622 450 622 717 l 622 0 l 457 0 l 457 85 q 274 -6 408 -6 q 115 53 174 -6 q 56 206 56 111 q 131 357 56 300 q 347 414 206 414 l 450 414 l 450 457 q 419 546 450 515 q 315 576 389 576 q 108 514 203 576 l 108 668 q 336 717 188 717 m 450 303 l 364 303 q 264 276 299 303 q 229 207 229 249 q 332 118 229 118 q 419 151 388 118 q 450 236 450 183 l 450 303 m 479 1006 l 610 1006 q 541 826 610 886 q 353 765 472 765 q 165 826 233 765 q 96 1006 96 888 l 226 1006 q 259 910 226 946 q 353 875 292 875 q 447 910 414 875 q 479 1006 479 946 z "},"Ą":{"ha":926,"x_min":33,"x_max":914,"o":"m 732 -178 q 803 -239 732 -239 q 914 -201 860 -239 l 914 -319 q 773 -351 858 -351 q 642 -307 688 -351 q 596 -193 596 -262 q 703 7 596 -85 l 639 213 l 285 213 l 218 0 l 33 0 l 351 936 l 578 936 l 893 0 q 732 -178 732 -93 m 329 356 l 594 356 q 463 806 479 735 q 329 356 451 749 z "},"ą":{"ha":700,"x_min":56,"x_max":643,"o":"m 622 450 l 622 0 q 461 -178 461 -92 q 532 -239 461 -239 q 643 -201 586 -239 l 643 -319 q 502 -351 588 -351 q 371 -307 417 -351 q 325 -193 325 -262 q 457 17 325 -75 l 457 86 q 274 -6 400 -6 q 114 51 172 -6 q 56 204 56 108 q 131 357 56 300 q 349 414 207 414 l 450 414 l 450 457 q 419 546 450 515 q 315 576 389 576 q 108 514 200 576 l 108 668 q 336 717 192 717 q 622 450 622 717 m 450 301 l 371 301 q 266 276 303 301 q 229 207 229 251 q 332 119 229 119 q 418 151 386 119 q 450 233 450 183 l 450 301 z "},"Ć":{"ha":846,"x_min":60,"x_max":781,"o":"m 436 1004 l 563 1239 l 738 1239 l 576 1004 l 436 1004 m 779 726 q 546 788 674 788 q 333 701 418 788 q 247 468 247 614 q 333 236 247 322 q 553 150 418 150 q 781 219 688 150 l 781 44 q 539 -11 694 -11 q 195 120 331 -11 q 60 466 60 251 q 194 815 60 681 q 539 949 328 949 q 779 897 693 949 l 779 726 z "},"ć":{"ha":653,"x_min":53,"x_max":643,"o":"m 224 350 q 284 189 226 250 q 434 128 342 128 q 600 175 526 128 l 600 31 q 417 -12 526 -12 q 153 90 254 -12 q 53 349 53 193 q 153 610 54 504 q 425 715 253 715 q 600 676 528 715 l 600 529 q 438 574 531 574 q 285 513 344 574 q 224 350 225 451 m 342 771 l 468 1006 l 643 1006 l 482 771 l 342 771 z "},"Ĉ":{"ha":846,"x_min":60,"x_max":781,"o":"m 418 1239 l 565 1239 l 767 1004 l 604 1004 l 492 1142 l 379 1004 l 217 1004 l 418 1239 m 779 726 q 546 788 674 788 q 333 701 418 788 q 247 468 247 614 q 333 236 247 322 q 553 150 418 150 q 781 219 688 150 l 781 44 q 539 -11 694 -11 q 195 120 331 -11 q 60 466 60 251 q 194 815 60 681 q 539 949 328 949 q 779 897 693 949 l 779 726 z "},"ĉ":{"ha":653,"x_min":53,"x_max":650,"o":"m 301 1007 l 449 1007 l 650 772 l 488 772 l 375 910 l 263 772 l 100 772 l 301 1007 m 600 529 q 438 574 531 574 q 285 513 344 574 q 224 350 225 451 q 284 189 226 250 q 434 128 342 128 q 600 175 526 128 l 600 31 q 417 -12 526 -12 q 153 90 254 -12 q 53 349 53 193 q 153 610 54 504 q 425 715 253 715 q 600 676 528 715 l 600 529 z "},"Ċ":{"ha":846,"x_min":60,"x_max":781,"o":"m 779 726 q 546 788 674 788 q 333 701 418 788 q 247 468 247 614 q 333 236 247 322 q 553 150 418 150 q 781 219 688 150 l 781 44 q 539 -11 694 -11 q 195 120 331 -11 q 60 466 60 251 q 194 815 60 681 q 539 949 328 949 q 779 897 693 949 l 779 726 m 519 1028 q 498 1028 519 1028 q 449 1056 476 1028 q 421 1124 421 1083 q 449 1193 421 1165 q 519 1221 476 1221 q 589 1193 561 1221 q 617 1124 617 1165 q 589 1056 617 1083 q 519 1028 561 1028 z "},"ċ":{"ha":653,"x_min":53,"x_max":600,"o":"m 405 794 q 384 794 405 794 q 335 822 363 794 q 307 891 307 850 q 335 960 307 932 q 405 988 363 988 q 475 960 447 988 q 503 891 503 932 q 475 822 503 850 q 405 794 447 794 m 224 350 q 284 189 226 250 q 434 128 342 128 q 600 175 526 128 l 600 31 q 417 -12 526 -12 q 153 90 254 -12 q 53 349 53 193 q 153 610 54 504 q 425 715 253 715 q 600 676 528 715 l 600 529 q 438 574 531 574 q 285 513 344 574 q 224 350 225 451 z "},"Č":{"ha":846,"x_min":60,"x_max":785,"o":"m 583 1004 l 436 1004 l 235 1239 l 397 1239 l 510 1101 l 622 1239 l 785 1239 l 583 1004 m 779 726 q 546 788 674 788 q 333 701 418 788 q 247 468 247 614 q 333 236 247 322 q 553 150 418 150 q 781 219 688 150 l 781 44 q 539 -11 694 -11 q 195 120 331 -11 q 60 466 60 251 q 194 815 60 681 q 539 949 328 949 q 779 897 693 949 l 779 726 z "},"č":{"ha":653,"x_min":53,"x_max":657,"o":"m 456 772 l 308 772 l 107 1007 l 269 1007 l 382 869 l 494 1007 l 657 1007 l 456 772 m 600 529 q 438 574 531 574 q 285 513 344 574 q 224 350 225 451 q 284 189 226 250 q 434 128 342 128 q 600 175 526 128 l 600 31 q 417 -12 526 -12 q 153 90 254 -12 q 53 349 53 193 q 153 610 54 504 q 425 715 253 715 q 600 676 528 715 l 600 529 z "},"Ď":{"ha":938,"x_min":97,"x_max":879,"o":"m 97 936 l 403 936 q 746 807 613 936 q 879 472 879 678 q 750 133 879 265 q 403 0 621 0 l 97 0 l 97 936 m 276 146 l 400 146 q 624 237 547 146 q 700 472 700 328 q 619 702 700 615 q 397 789 538 789 l 276 789 l 276 146 m 511 1004 l 364 1004 l 163 1239 l 325 1239 l 438 1101 l 550 1239 l 713 1239 l 511 1004 z "},"ď":{"ha":990,"x_min":53,"x_max":1092,"o":"m 913 983 l 1092 983 l 932 700 l 807 700 l 913 983 m 568 982 l 735 982 l 735 0 l 568 0 l 568 110 q 356 -10 496 -10 q 134 96 215 -10 q 53 360 53 201 q 138 616 53 518 q 359 714 224 714 q 568 596 494 714 l 568 982 m 224 353 q 224 303 224 353 q 272 193 224 253 q 394 133 321 133 q 518 191 468 133 q 568 357 568 249 q 515 519 568 465 q 392 572 463 572 q 273 513 322 572 q 224 353 224 454 z "},"Đ":{"ha":1031,"x_min":89,"x_max":972,"o":"m 190 936 l 496 936 q 839 807 706 936 q 972 471 972 678 q 844 132 972 264 q 496 0 715 0 l 190 0 l 190 392 l 89 392 l 89 535 l 190 535 l 190 936 m 369 146 l 493 146 q 717 237 640 146 q 794 472 794 328 q 713 702 794 615 q 490 789 631 789 l 369 789 l 369 535 l 581 535 l 581 392 l 369 392 l 369 146 z "},"đ":{"ha":825,"x_min":53,"x_max":822,"o":"m 822 896 l 822 796 l 735 796 l 735 0 l 568 0 l 568 110 q 356 -10 496 -10 q 134 96 215 -10 q 53 360 53 201 q 138 616 53 518 q 359 714 224 714 q 568 596 494 714 l 568 796 l 336 796 l 336 896 l 568 896 l 568 982 l 735 982 l 735 896 l 822 896 m 224 353 q 224 303 224 353 q 272 193 224 253 q 394 133 321 133 q 518 191 468 133 q 568 357 568 249 q 515 519 568 465 q 392 572 463 572 q 273 513 322 572 q 224 353 224 454 z "},"Ē":{"ha":733,"x_min":97,"x_max":656,"o":"m 274 143 l 656 143 l 656 0 l 97 0 l 97 936 l 650 936 l 650 793 l 274 793 l 274 539 l 608 539 l 608 397 l 274 397 l 274 143 m 601 1183 l 601 1068 l 146 1068 l 146 1183 l 601 1183 z "},"ē":{"ha":735,"x_min":53,"x_max":672,"o":"m 415 -7 q 150 93 247 -7 q 53 356 53 193 q 144 615 53 519 q 374 711 236 711 q 592 628 511 711 q 672 385 672 544 q 663 285 672 346 l 221 285 q 297 168 239 208 q 453 128 354 128 q 628 183 551 128 l 628 39 q 415 -7 554 -7 m 514 410 l 514 431 q 477 540 511 499 q 381 581 443 581 q 274 537 318 581 q 218 410 231 493 l 514 410 m 606 947 l 606 832 l 150 832 l 150 947 l 606 947 z "},"Ĕ":{"ha":733,"x_min":97,"x_max":656,"o":"m 274 143 l 656 143 l 656 0 l 97 0 l 97 936 l 650 936 l 650 793 l 274 793 l 274 539 l 608 539 l 608 397 l 274 397 l 274 143 m 513 1239 l 643 1239 q 574 1059 643 1119 q 386 999 506 999 q 198 1060 267 999 q 129 1239 129 1121 l 260 1239 q 292 1144 260 1179 q 386 1108 325 1108 q 480 1144 447 1108 q 513 1239 513 1179 z "},"ĕ":{"ha":735,"x_min":53,"x_max":672,"o":"m 415 -7 q 150 93 247 -7 q 53 356 53 193 q 144 615 53 519 q 374 711 236 711 q 592 628 511 711 q 672 385 672 544 q 663 285 672 346 l 221 285 q 297 168 239 208 q 453 128 354 128 q 628 183 551 128 l 628 39 q 415 -7 554 -7 m 514 410 l 514 431 q 477 540 511 499 q 381 581 443 581 q 274 537 318 581 q 218 410 231 493 l 514 410 m 504 1007 l 635 1007 q 566 827 635 888 q 378 767 497 767 q 190 828 258 767 q 121 1007 121 889 l 251 1007 q 284 912 251 947 q 378 876 317 876 q 472 912 439 876 q 504 1007 504 947 z "},"Ė":{"ha":733,"x_min":97,"x_max":656,"o":"m 274 143 l 656 143 l 656 0 l 97 0 l 97 936 l 650 936 l 650 793 l 274 793 l 274 539 l 608 539 l 608 397 l 274 397 l 274 143 m 485 1123 q 485 1102 485 1123 q 457 1054 485 1082 q 387 1026 429 1026 q 317 1054 344 1026 q 289 1123 289 1082 q 317 1192 289 1164 q 387 1219 344 1219 q 457 1192 429 1219 q 485 1123 485 1164 z "},"ė":{"ha":735,"x_min":53,"x_max":672,"o":"m 415 -7 q 150 93 247 -7 q 53 356 53 193 q 144 615 53 519 q 374 711 236 711 q 592 628 511 711 q 672 385 672 544 q 663 285 672 346 l 221 285 q 297 168 239 208 q 453 128 354 128 q 628 183 551 128 l 628 39 q 415 -7 554 -7 m 514 410 l 514 431 q 477 540 511 499 q 381 581 443 581 q 274 537 318 581 q 218 410 231 493 l 514 410 m 488 891 q 488 870 488 891 q 460 822 488 850 q 390 794 432 794 q 319 822 347 794 q 292 891 292 850 q 319 960 292 932 q 390 988 347 988 q 460 960 432 988 q 488 891 488 932 z "},"Ę":{"ha":733,"x_min":97,"x_max":656,"o":"m 656 0 l 608 0 q 447 -178 447 -93 q 519 -239 447 -239 q 631 -201 574 -239 l 631 -319 q 488 -351 574 -351 q 357 -307 403 -351 q 311 -193 311 -262 q 421 0 311 -86 l 97 0 l 97 936 l 650 936 l 650 793 l 274 793 l 274 539 l 608 539 l 608 397 l 274 397 l 274 143 l 656 143 l 656 0 z "},"ę":{"ha":735,"x_min":53,"x_max":672,"o":"m 599 -299 q 456 -331 542 -331 q 325 -286 371 -331 q 279 -172 279 -242 q 361 -4 279 -82 q 135 109 217 13 q 53 363 53 206 q 144 615 53 519 q 374 711 236 711 q 592 628 511 711 q 672 385 672 544 q 663 285 672 346 l 221 285 q 297 168 239 208 q 453 128 354 128 q 628 183 551 128 l 628 39 q 561 11 600 22 q 415 -157 415 -76 q 488 -218 415 -218 q 599 -181 542 -218 l 599 -299 m 514 410 l 514 431 q 477 540 511 499 q 381 581 443 581 q 274 537 318 581 q 218 410 231 493 l 514 410 z "},"Ě":{"ha":733,"x_min":97,"x_max":658,"o":"m 274 397 l 274 143 l 656 143 l 656 0 l 97 0 l 97 936 l 650 936 l 650 793 l 274 793 l 274 539 l 608 539 l 608 397 l 274 397 m 457 1004 l 310 1004 l 108 1239 l 271 1239 l 383 1101 l 496 1239 l 658 1239 l 457 1004 z "},"ě":{"ha":735,"x_min":53,"x_max":672,"o":"m 415 -7 q 150 93 247 -7 q 53 356 53 193 q 144 615 53 519 q 374 711 236 711 q 592 628 511 711 q 672 385 672 544 q 663 285 672 346 l 221 285 q 297 168 239 208 q 453 128 354 128 q 628 183 551 128 l 628 39 q 415 -7 554 -7 m 514 410 l 514 431 q 477 540 511 499 q 381 581 443 581 q 274 537 318 581 q 218 410 231 493 l 514 410 m 453 772 l 306 772 l 104 1007 l 267 1007 l 379 869 l 492 1007 l 654 1007 l 453 772 z "},"Ĝ":{"ha":963,"x_min":60,"x_max":875,"o":"m 875 546 l 875 96 l 874 96 l 875 81 q 556 -11 747 -11 q 197 118 333 -11 q 60 467 60 247 q 201 819 60 686 q 557 953 342 953 q 831 893 717 953 l 831 714 q 561 790 703 790 q 333 703 419 790 q 247 468 247 615 q 331 235 247 321 q 563 150 415 150 q 703 175 635 150 l 703 396 l 531 396 l 531 546 l 875 546 m 525 1142 l 413 1004 l 250 1004 l 451 1239 l 599 1239 l 800 1004 l 638 1004 l 525 1142 z "},"ĝ":{"ha":793,"x_min":58,"x_max":711,"o":"m 544 704 l 711 704 l 711 64 q 615 -187 711 -103 q 374 -271 518 -271 q 126 -221 231 -271 l 126 -51 q 353 -118 221 -118 q 544 65 544 -118 l 544 126 q 353 22 481 22 q 142 109 226 22 q 58 355 58 196 q 138 613 58 514 q 349 713 218 713 q 544 603 481 713 l 544 704 m 232 360 q 232 311 232 360 q 275 210 232 263 q 385 158 318 158 q 499 212 453 158 q 544 365 544 265 q 500 517 544 464 q 385 569 456 569 q 274 513 315 569 q 232 360 232 457 m 413 910 l 300 772 l 138 772 l 339 1007 l 486 1007 l 688 772 l 525 772 l 413 910 z "},"Ğ":{"ha":963,"x_min":60,"x_max":875,"o":"m 875 546 l 875 96 l 874 96 l 875 81 q 556 -11 747 -11 q 197 118 333 -11 q 60 467 60 247 q 201 819 60 686 q 557 953 342 953 q 831 893 717 953 l 831 714 q 561 790 703 790 q 333 703 419 790 q 247 468 247 615 q 331 235 247 321 q 563 150 415 150 q 703 175 635 150 l 703 396 l 531 396 l 531 546 l 875 546 m 646 1239 l 776 1239 q 708 1059 776 1119 q 519 999 639 999 q 331 1060 400 999 q 263 1239 263 1121 l 393 1239 q 426 1144 393 1179 q 519 1108 458 1108 q 613 1144 581 1108 q 646 1239 646 1179 z "},"ğ":{"ha":793,"x_min":58,"x_max":711,"o":"m 544 704 l 711 704 l 711 64 q 615 -187 711 -103 q 374 -271 518 -271 q 126 -221 231 -271 l 126 -51 q 353 -118 221 -118 q 544 65 544 -118 l 544 126 q 353 22 481 22 q 142 109 226 22 q 58 355 58 196 q 138 613 58 514 q 349 713 218 713 q 544 603 481 713 l 544 704 m 232 360 q 232 311 232 360 q 275 210 232 263 q 385 158 318 158 q 499 212 453 158 q 544 365 544 265 q 500 517 544 464 q 385 569 456 569 q 274 513 315 569 q 232 360 232 457 m 549 1007 l 679 1007 q 610 827 679 888 q 422 767 542 767 q 234 828 303 767 q 165 1007 165 889 l 296 1007 q 328 912 296 947 q 422 876 361 876 q 516 912 483 876 q 549 1007 549 947 z "},"Ġ":{"ha":963,"x_min":60,"x_max":875,"o":"m 875 546 l 875 96 l 874 96 l 875 81 q 556 -11 747 -11 q 197 118 333 -11 q 60 467 60 247 q 201 819 60 686 q 557 953 342 953 q 831 893 717 953 l 831 714 q 561 790 703 790 q 333 703 419 790 q 247 468 247 615 q 331 235 247 321 q 563 150 415 150 q 703 175 635 150 l 703 396 l 531 396 l 531 546 l 875 546 m 628 1123 q 628 1102 628 1123 q 600 1054 628 1082 q 530 1026 572 1026 q 460 1054 488 1026 q 432 1123 432 1082 q 460 1192 432 1164 q 530 1219 488 1219 q 600 1192 572 1219 q 628 1123 628 1164 z "},"ġ":{"ha":793,"x_min":58,"x_max":711,"o":"m 544 704 l 711 704 l 711 64 q 615 -187 711 -103 q 374 -271 518 -271 q 126 -221 231 -271 l 126 -51 q 353 -118 221 -118 q 544 65 544 -118 l 544 126 q 353 22 481 22 q 142 109 226 22 q 58 355 58 196 q 138 613 58 514 q 349 713 218 713 q 544 603 481 713 l 544 704 m 232 360 q 232 311 232 360 q 275 210 232 263 q 385 158 318 158 q 499 212 453 158 q 544 365 544 265 q 500 517 544 464 q 385 569 456 569 q 274 513 315 569 q 232 360 232 457 m 535 891 q 535 870 535 891 q 507 822 535 850 q 437 794 479 794 q 367 822 394 794 q 339 891 339 850 q 367 960 339 932 q 437 988 394 988 q 507 960 479 988 q 535 891 535 932 z "},"Ģ":{"ha":963,"x_min":60,"x_max":875,"o":"m 875 546 l 875 96 l 874 96 l 875 81 q 556 -11 747 -11 q 197 118 333 -11 q 60 467 60 247 q 201 819 60 686 q 557 953 342 953 q 831 893 717 953 l 831 714 q 561 790 703 790 q 333 703 419 790 q 247 468 247 615 q 331 235 247 321 q 563 150 415 150 q 703 175 635 150 l 703 396 l 531 396 l 531 546 l 875 546 m 326 -354 l 432 -71 l 611 -71 l 451 -354 l 326 -354 z "},"ģ":{"ha":793,"x_min":58,"x_max":711,"o":"m 544 704 l 711 704 l 711 64 q 615 -187 711 -103 q 374 -271 518 -271 q 126 -221 231 -271 l 126 -51 q 353 -118 221 -118 q 544 65 544 -118 l 544 126 q 353 22 481 22 q 142 109 226 22 q 58 355 58 196 q 138 613 58 514 q 349 713 218 713 q 544 603 481 713 l 544 704 m 232 360 q 232 311 232 360 q 275 210 232 263 q 385 158 318 158 q 499 212 453 158 q 544 365 544 265 q 500 517 544 464 q 385 569 456 569 q 274 513 315 569 q 232 360 232 457 m 636 1056 l 531 772 l 353 772 l 511 1056 l 636 1056 z "},"Ĥ":{"ha":931,"x_min":97,"x_max":833,"o":"m 657 936 l 833 936 l 833 0 l 657 0 l 657 393 l 272 393 l 272 0 l 97 0 l 97 936 l 272 936 l 272 544 l 657 544 l 657 936 m 465 1142 l 353 1004 l 190 1004 l 392 1239 l 539 1239 l 740 1004 l 578 1004 l 465 1142 z "},"ĥ":{"ha":785,"x_min":-99,"x_max":701,"o":"m 257 982 l 257 585 q 472 713 314 713 q 638 648 575 713 q 701 461 701 583 l 701 0 l 535 0 l 535 432 q 501 536 535 499 q 410 574 467 574 q 305 528 353 574 q 257 378 257 482 l 257 0 l 90 0 l 90 982 l 257 982 m 289 1050 l 176 1188 l 64 1050 l -99 1050 l 103 1285 l 250 1285 l 451 1050 l 289 1050 z "},"Ħ":{"ha":1056,"x_min":57,"x_max":1000,"o":"m 1000 797 l 1000 697 l 897 697 l 897 0 l 721 0 l 721 393 l 335 393 l 335 0 l 160 0 l 160 697 l 57 697 l 57 797 l 160 797 l 160 936 l 335 936 l 335 797 l 721 797 l 721 936 l 897 936 l 897 797 l 1000 797 m 721 544 l 721 697 l 335 697 l 335 544 l 721 544 z "},"ħ":{"ha":785,"x_min":3,"x_max":701,"o":"m 257 796 l 257 585 q 472 713 314 713 q 638 648 575 713 q 701 461 701 583 l 701 0 l 535 0 l 535 432 q 501 536 535 499 q 410 574 467 574 q 305 528 353 574 q 257 378 257 482 l 257 0 l 90 0 l 90 796 l 3 796 l 3 896 l 90 896 l 90 982 l 257 982 l 257 896 l 486 896 l 486 796 l 257 796 z "},"Ĩ":{"ha":392,"x_min":-69,"x_max":450,"o":"m 281 1036 q 185 1063 239 1036 q 104 1089 132 1089 q 56 1076 76 1089 q 10 1028 35 1063 l -69 1101 q -6 1178 -47 1147 q 83 1210 35 1210 q 189 1183 132 1210 q 272 1157 246 1157 q 361 1217 332 1157 l 450 1146 q 281 1036 396 1036 m 108 0 l 108 936 l 283 936 l 283 0 l 108 0 z "},"ĩ":{"ha":361,"x_min":-81,"x_max":439,"o":"m 269 803 q 174 829 228 803 q 92 856 119 856 q 44 842 65 856 q -1 794 24 829 l -81 868 q -17 945 -58 914 q 72 976 24 976 q 178 950 121 976 q 261 924 235 924 q 350 983 321 924 l 439 913 q 269 803 385 803 m 97 0 l 97 704 l 264 704 l 264 0 l 97 0 z "},"Ī":{"ha":392,"x_min":-32,"x_max":424,"o":"m 424 1064 l -32 1064 l -32 1179 l 424 1179 l 424 1064 m 108 0 l 108 936 l 283 936 l 283 0 l 108 0 z "},"ī":{"ha":361,"x_min":-47,"x_max":408,"o":"m 408 832 l -47 832 l -47 947 l 408 947 l 408 832 m 97 0 l 97 704 l 264 704 l 264 0 l 97 0 z "},"Ĭ":{"ha":392,"x_min":-58,"x_max":456,"o":"m 108 0 l 108 936 l 283 936 l 283 0 l 108 0 m -58 1239 l 72 1239 q 105 1144 72 1179 q 199 1108 138 1108 q 292 1144 260 1108 q 325 1239 325 1179 l 456 1239 q 387 1059 456 1119 q 199 999 318 999 q 10 1060 79 999 q -58 1239 -58 1121 z "},"ĭ":{"ha":361,"x_min":-76,"x_max":438,"o":"m 97 0 l 97 704 l 264 704 l 264 0 l 97 0 m -76 1007 l 54 1007 q 87 912 54 947 q 181 876 119 876 q 274 912 242 876 q 307 1007 307 947 l 438 1007 q 369 827 438 888 q 181 767 300 767 q -8 828 61 767 q -76 1007 -76 889 z "},"Į":{"ha":392,"x_min":-14,"x_max":306,"o":"m 283 936 l 283 0 q 122 -178 122 -93 q 194 -239 122 -239 q 306 -201 250 -239 l 306 -319 q 163 -351 249 -351 q 32 -307 78 -351 q -14 -193 -14 -262 q 108 10 -14 -83 l 108 936 l 283 936 z "},"į":{"ha":361,"x_min":-33,"x_max":286,"o":"m 264 704 l 264 0 q 103 -178 103 -93 q 175 -239 103 -239 q 286 -201 229 -239 l 286 -319 q 144 -351 229 -351 q 13 -307 58 -351 q -33 -193 -33 -262 q 97 15 -33 -75 l 97 704 l 264 704 m 251 843 q 237 828 251 843 q 181 814 222 814 q 110 843 139 814 q 81 915 81 872 q 110 986 81 957 q 181 1015 139 1015 q 251 986 222 1015 q 281 915 281 957 q 251 843 281 872 z "},"İ":{"ha":392,"x_min":100,"x_max":296,"o":"m 198 1026 q 177 1026 198 1026 q 128 1054 156 1026 q 100 1123 100 1082 q 128 1192 100 1164 q 198 1219 156 1219 q 268 1192 240 1219 q 296 1123 296 1164 q 268 1054 296 1082 q 198 1026 240 1026 m 108 0 l 108 936 l 283 936 l 283 0 l 108 0 z "},"ı":{"ha":361,"x_min":97,"x_max":264,"o":"m 97 0 l 97 704 l 264 704 l 264 0 l 97 0 z "},"Ĳ":{"ha":876,"x_min":108,"x_max":785,"o":"m 503 153 q 610 267 610 153 l 610 935 l 785 935 l 785 267 q 718 67 785 135 q 535 -1 651 -1 q 392 28 447 -1 l 392 186 q 503 153 444 153 m 108 0 l 108 936 l 283 936 l 283 0 l 108 0 z "},"ĳ":{"ha":700,"x_min":79,"x_max":626,"o":"m 526 814 q 505 814 526 814 q 454 843 483 814 q 425 915 425 872 q 454 986 425 957 q 526 1015 483 1015 q 597 986 568 1015 q 626 915 626 957 q 597 843 626 872 q 526 814 568 814 m 369 -140 q 443 -44 443 -140 l 443 704 l 610 704 l 610 -47 q 553 -212 610 -151 q 390 -274 496 -274 q 285 -251 340 -274 l 285 -119 q 369 -140 333 -140 m 179 814 q 158 814 179 814 q 108 843 138 814 q 79 915 79 872 q 108 986 79 957 q 179 1015 138 1015 q 250 986 221 1015 q 279 915 279 957 q 250 843 279 872 q 179 814 221 814 m 96 0 l 96 704 l 263 704 l 263 0 l 96 0 z "},"Ĵ":{"ha":547,"x_min":42,"x_max":625,"o":"m 276 1239 l 424 1239 l 625 1004 l 463 1004 l 350 1142 l 238 1004 l 75 1004 l 276 1239 m 153 153 q 260 267 260 153 l 260 935 l 435 935 l 435 267 q 368 67 435 135 q 185 -1 301 -1 q 42 28 97 -1 l 42 186 q 153 153 94 153 z "},"ĵ":{"ha":357,"x_min":-90,"x_max":460,"o":"m 26 -140 q 100 -44 100 -140 l 100 704 l 267 704 l 267 -47 q 210 -212 267 -151 q 47 -274 153 -274 q -58 -251 -3 -274 l -58 -119 q 26 -140 -10 -140 m 111 1007 l 258 1007 l 460 772 l 297 772 l 185 910 l 72 772 l -90 772 l 111 1007 z "},"Ķ":{"ha":872,"x_min":97,"x_max":843,"o":"m 494 467 l 843 0 l 622 0 l 286 464 l 610 936 l 819 936 l 494 467 m 250 -354 l 356 -71 l 535 -71 l 375 -354 l 250 -354 m 272 936 l 272 0 l 97 0 l 97 936 l 272 936 z "},"ķ":{"ha":725,"x_min":90,"x_max":706,"o":"m 257 0 l 90 0 l 90 965 l 257 965 l 257 374 l 506 704 l 700 704 l 442 368 l 706 0 l 510 0 l 257 364 l 257 0 m 189 -354 l 294 -71 l 474 -71 l 315 -354 l 189 -354 z "},"ĸ":{"ha":725,"x_min":90,"x_max":706,"o":"m 257 0 l 90 0 l 90 704 l 257 704 l 257 374 l 506 704 l 700 704 l 442 368 l 706 0 l 510 0 l 257 364 l 257 0 z "},"Ĺ":{"ha":672,"x_min":97,"x_max":657,"o":"m 272 936 l 272 156 l 638 156 l 638 0 l 97 0 l 97 936 l 272 936 m 657 1239 l 496 1004 l 356 1004 l 482 1239 l 657 1239 z "},"ĺ":{"ha":361,"x_min":97,"x_max":410,"o":"m 97 0 l 97 982 l 264 982 l 264 0 l 97 0 m 108 1050 l 235 1285 l 410 1285 l 249 1050 l 108 1050 z "},"Ļ":{"ha":672,"x_min":97,"x_max":638,"o":"m 272 156 l 638 156 l 638 0 l 97 0 l 97 936 l 272 936 l 272 156 m 193 -354 l 299 -71 l 478 -71 l 318 -354 l 193 -354 z "},"ļ":{"ha":361,"x_min":-17,"x_max":268,"o":"m -17 -354 l 89 -71 l 268 -71 l 110 -354 l -17 -354 m 97 0 l 97 982 l 264 982 l 264 0 l 97 0 z "},"Ľ":{"ha":672,"x_min":97,"x_max":656,"o":"m 272 936 l 272 156 l 638 156 l 638 0 l 97 0 l 97 936 l 272 936 m 656 972 l 497 689 l 371 689 l 476 972 l 656 972 z "},"ľ":{"ha":374,"x_min":97,"x_max":633,"o":"m 350 701 l 456 983 l 633 983 l 475 701 l 350 701 m 97 0 l 97 982 l 264 982 l 264 0 l 97 0 z "},"Ŀ":{"ha":692,"x_min":97,"x_max":638,"o":"m 272 156 l 638 156 l 638 0 l 97 0 l 97 936 l 272 936 l 272 156 m 575 461 q 560 447 575 461 q 503 432 546 432 q 431 461 460 432 q 401 533 401 490 q 431 604 401 575 q 503 633 460 633 q 575 604 546 633 q 604 533 604 575 q 575 461 604 490 z "},"ŀ":{"ha":633,"x_min":90,"x_max":594,"o":"m 419 439 q 405 453 419 439 q 390 510 390 468 q 419 581 390 551 q 492 610 449 610 q 565 581 536 610 q 594 510 594 551 q 565 439 594 468 q 492 410 536 410 q 419 439 449 410 m 90 0 l 90 982 l 257 982 l 257 0 l 90 0 z "},"Ł":{"ha":749,"x_min":54,"x_max":700,"o":"m 335 156 l 700 156 l 700 0 l 158 0 l 158 304 l 54 242 l 54 388 l 158 450 l 158 936 l 335 936 l 335 557 l 554 689 l 554 543 l 335 411 l 335 156 z "},"ł":{"ha":447,"x_min":39,"x_max":424,"o":"m 308 0 l 142 0 l 142 386 l 39 315 l 39 461 l 142 532 l 142 982 l 308 982 l 308 647 l 424 726 l 424 581 l 308 501 l 308 0 z "},"Ń":{"ha":956,"x_min":97,"x_max":860,"o":"m 97 0 l 97 936 l 296 936 q 622 364 579 443 q 694 215 664 285 q 683 546 683 331 l 683 936 l 860 936 l 860 0 l 660 0 l 432 389 q 257 725 324 572 q 272 390 272 593 l 272 0 l 97 0 m 432 1004 l 558 1239 l 733 1239 l 572 1004 l 432 1004 z "},"ń":{"ha":785,"x_min":90,"x_max":701,"o":"m 257 704 l 257 583 q 474 713 317 713 q 640 649 579 713 q 701 468 701 585 l 701 0 l 535 0 l 535 433 q 501 538 535 503 q 407 574 468 574 q 301 523 346 574 q 257 378 257 472 l 257 0 l 90 0 l 90 704 l 257 704 m 664 1007 l 503 772 l 363 772 l 489 1007 l 664 1007 z "},"Ņ":{"ha":956,"x_min":97,"x_max":860,"o":"m 97 0 l 97 936 l 296 936 q 622 364 579 443 q 694 215 664 285 q 683 546 683 331 l 683 936 l 860 936 l 860 0 l 660 0 l 432 389 q 257 725 324 572 q 272 390 272 593 l 272 0 l 97 0 m 294 -354 l 400 -71 l 579 -71 l 421 -354 l 294 -354 z "},"ņ":{"ha":785,"x_min":90,"x_max":701,"o":"m 257 704 l 257 583 q 474 713 317 713 q 640 649 579 713 q 701 468 701 585 l 701 0 l 535 0 l 535 433 q 501 538 535 503 q 407 574 468 574 q 301 523 346 574 q 257 378 257 472 l 257 0 l 90 0 l 90 704 l 257 704 m 207 -354 l 313 -71 l 492 -71 l 332 -354 l 207 -354 z "},"Ň":{"ha":956,"x_min":97,"x_max":860,"o":"m 564 1004 l 417 1004 l 215 1239 l 378 1239 l 490 1101 l 603 1239 l 765 1239 l 564 1004 m 97 0 l 97 936 l 296 936 q 622 364 579 443 q 694 215 664 285 q 683 546 683 331 l 683 936 l 860 936 l 860 0 l 660 0 l 432 389 q 257 725 324 572 q 272 390 272 593 l 272 0 l 97 0 z "},"ň":{"ha":785,"x_min":90,"x_max":701,"o":"m 257 704 l 257 583 q 474 713 317 713 q 640 649 579 713 q 701 468 701 585 l 701 0 l 535 0 l 535 433 q 501 538 535 503 q 407 574 468 574 q 301 523 346 574 q 257 378 257 472 l 257 0 l 90 0 l 90 704 l 257 704 m 483 772 l 336 772 l 135 1007 l 297 1007 l 410 869 l 522 1007 l 685 1007 l 483 772 z "},"ŉ":{"ha":879,"x_min":-29,"x_max":797,"o":"m 353 704 l 353 583 q 569 713 413 713 q 736 649 675 713 q 797 468 797 585 l 797 0 l 631 0 l 631 433 q 597 538 631 503 q 503 574 564 574 q 397 523 442 574 q 353 378 353 472 l 353 0 l 186 0 l 186 704 l 353 704 m 82 964 l 243 964 l 90 675 l -29 675 l 82 964 z "},"Ŋ":{"ha":956,"x_min":97,"x_max":860,"o":"m 683 936 l 860 936 l 860 -7 q 792 -207 860 -139 q 621 -275 725 -275 q 465 -246 517 -275 l 465 -87 q 576 -121 518 -121 q 683 -7 683 -121 l 683 0 l 660 0 l 432 389 q 257 725 324 572 q 272 390 272 593 l 272 0 l 97 0 l 97 936 l 296 936 q 622 364 579 443 q 694 215 664 285 q 683 546 683 331 l 683 936 z "},"ŋ":{"ha":785,"x_min":90,"x_max":703,"o":"m 701 311 l 703 311 l 703 -47 q 645 -212 703 -151 q 482 -274 588 -274 q 376 -251 432 -274 l 376 -119 q 461 -140 428 -140 q 535 -44 535 -140 l 535 433 q 501 538 535 503 q 407 574 468 574 q 301 523 346 574 q 257 378 257 472 l 257 0 l 90 0 l 90 704 l 257 704 l 257 583 q 474 713 317 713 q 640 649 579 713 q 701 468 701 585 l 701 311 z "},"Ō":{"ha":1004,"x_min":60,"x_max":944,"o":"m 502 792 q 443 792 502 792 q 315 706 383 792 q 247 472 247 619 q 317 238 247 324 q 503 151 386 151 q 689 237 621 151 q 757 471 757 322 q 689 706 757 619 q 502 792 621 792 m 503 -10 q 402 -10 503 -10 q 181 122 301 -10 q 60 472 60 254 q 180 821 60 689 q 503 953 300 953 q 825 822 706 953 q 944 472 944 690 q 824 122 944 254 q 503 -10 704 -10 m 729 1064 l 274 1064 l 274 1179 l 729 1179 l 729 1064 z "},"ō":{"ha":785,"x_min":53,"x_max":732,"o":"m 558 350 q 558 400 558 350 q 518 515 558 450 q 395 579 478 579 q 270 514 313 579 q 228 351 228 449 q 271 188 228 253 q 394 122 314 122 q 517 186 475 122 q 558 350 558 250 m 732 353 q 732 274 732 353 q 642 92 732 194 q 392 -11 553 -11 q 142 89 232 -11 q 53 347 53 189 q 146 610 53 506 q 397 715 239 715 q 643 613 554 715 q 732 353 732 511 m 622 832 l 167 832 l 167 947 l 622 947 l 622 832 z "},"Ŏ":{"ha":1004,"x_min":60,"x_max":944,"o":"m 503 -10 q 402 -10 503 -10 q 181 122 301 -10 q 60 472 60 254 q 180 821 60 689 q 503 953 300 953 q 825 822 706 953 q 944 472 944 690 q 824 122 944 254 q 503 -10 704 -10 m 502 792 q 443 792 502 792 q 315 706 383 792 q 247 472 247 619 q 317 238 247 324 q 503 151 386 151 q 689 237 621 151 q 757 471 757 322 q 689 706 757 619 q 502 792 621 792 m 258 1239 l 389 1239 q 422 1144 389 1179 q 515 1108 454 1108 q 609 1144 576 1108 q 642 1239 642 1179 l 772 1239 q 703 1059 772 1119 q 515 999 635 999 q 327 1060 396 999 q 258 1239 258 1121 z "},"ŏ":{"ha":785,"x_min":53,"x_max":732,"o":"m 732 353 q 732 274 732 353 q 642 92 732 194 q 392 -11 553 -11 q 142 89 232 -11 q 53 347 53 189 q 146 610 53 506 q 397 715 239 715 q 643 613 554 715 q 732 353 732 511 m 558 350 q 558 400 558 350 q 518 515 558 450 q 395 579 478 579 q 270 514 313 579 q 228 351 228 449 q 271 188 228 253 q 394 122 314 122 q 517 186 475 122 q 558 350 558 250 m 146 1007 l 276 1007 q 309 912 276 947 q 403 876 342 876 q 497 912 464 876 q 529 1007 529 947 l 660 1007 q 591 827 660 888 q 403 767 522 767 q 215 828 283 767 q 146 1007 146 889 z "},"Ő":{"ha":1004,"x_min":60,"x_max":944,"o":"m 502 792 q 443 792 502 792 q 315 706 383 792 q 247 472 247 619 q 317 238 247 324 q 503 151 386 151 q 689 237 621 151 q 757 471 757 322 q 689 706 757 619 q 502 792 621 792 m 503 -10 q 402 -10 503 -10 q 181 122 301 -10 q 60 472 60 254 q 180 821 60 689 q 503 953 300 953 q 825 822 706 953 q 944 472 944 690 q 824 122 944 254 q 503 -10 704 -10 m 332 1004 l 457 1239 l 619 1239 l 457 1004 l 332 1004 m 575 1004 l 710 1239 l 885 1239 l 701 1004 l 575 1004 z "},"ő":{"ha":785,"x_min":53,"x_max":785,"o":"m 558 350 q 558 400 558 350 q 518 515 558 450 q 395 579 478 579 q 270 514 313 579 q 228 351 228 449 q 271 188 228 253 q 394 122 314 122 q 517 186 475 122 q 558 350 558 250 m 732 353 q 732 274 732 353 q 642 92 732 194 q 392 -11 553 -11 q 142 89 232 -11 q 53 347 53 189 q 146 610 53 506 q 397 715 239 715 q 643 613 554 715 q 732 353 732 511 m 232 772 l 357 1007 l 519 1007 l 357 772 l 232 772 m 475 772 l 610 1007 l 785 1007 l 601 772 l 475 772 z "},"Œ":{"ha":1381,"x_min":60,"x_max":1303,"o":"m 911 143 l 1303 143 l 1303 0 l 743 0 l 743 81 q 496 -10 638 -10 q 177 122 294 -10 q 60 471 60 253 q 177 821 60 689 q 494 953 294 953 q 743 864 639 953 l 743 936 l 1297 936 l 1297 793 l 911 793 l 911 539 l 1256 539 l 1256 397 l 911 397 l 911 143 m 247 471 q 247 397 247 471 q 313 237 247 322 q 497 151 379 151 q 678 237 614 151 q 743 472 743 322 q 678 706 743 621 q 495 792 613 792 q 313 706 378 792 q 247 471 247 619 z "},"œ":{"ha":1228,"x_min":53,"x_max":1172,"o":"m 915 -7 q 640 108 742 -7 q 389 -11 550 -11 q 140 89 228 -11 q 53 347 53 189 q 144 610 53 506 q 390 715 235 715 q 638 601 546 715 q 873 711 731 711 q 1094 628 1015 711 q 1172 382 1172 544 q 1164 285 1172 338 l 722 285 q 799 169 740 210 q 953 128 858 128 q 1128 183 1049 128 l 1128 39 q 915 -7 1051 -7 m 228 351 q 228 302 228 351 q 269 188 228 253 q 391 122 311 122 q 513 186 471 122 q 554 350 554 250 q 514 515 554 450 q 391 579 474 579 q 268 515 308 579 q 228 351 228 450 m 1014 410 l 1014 439 q 976 543 1010 506 q 881 581 942 581 q 776 538 821 581 q 719 410 732 494 l 1014 410 z "},"Ŕ":{"ha":818,"x_min":97,"x_max":790,"o":"m 272 342 l 272 0 l 97 0 l 97 936 l 386 936 q 637 856 546 936 q 728 640 728 775 q 679 472 726 540 q 550 369 632 403 l 790 0 l 581 0 l 368 342 l 272 342 m 272 792 l 272 486 l 389 486 q 510 527 469 486 q 550 641 550 568 q 508 753 550 714 q 386 792 465 792 l 272 792 m 628 1239 l 467 1004 l 326 1004 l 453 1239 l 628 1239 z "},"ŕ":{"ha":490,"x_min":89,"x_max":528,"o":"m 257 704 l 257 579 q 435 710 306 710 q 482 706 464 710 l 482 544 q 411 558 450 558 q 300 503 343 558 q 257 364 257 447 l 257 0 l 89 0 l 90 704 l 257 704 m 528 1007 l 367 772 l 226 772 l 353 1007 l 528 1007 z "},"Ŗ":{"ha":818,"x_min":97,"x_max":790,"o":"m 272 342 l 272 0 l 97 0 l 97 936 l 386 936 q 637 856 546 936 q 728 640 728 775 q 679 472 726 540 q 550 369 632 403 l 790 0 l 581 0 l 368 342 l 272 342 m 272 792 l 272 486 l 389 486 q 510 527 469 486 q 550 641 550 568 q 508 753 550 714 q 386 792 465 792 l 272 792 m 225 -354 l 331 -71 l 510 -71 l 350 -354 l 225 -354 z "},"ŗ":{"ha":490,"x_min":-28,"x_max":482,"o":"m 257 704 l 257 579 q 435 710 306 710 q 482 706 464 710 l 482 544 q 411 558 450 558 q 300 503 343 558 q 257 364 257 447 l 257 0 l 89 0 l 90 704 l 257 704 m -28 -354 l 78 -71 l 257 -71 l 97 -354 l -28 -354 z "},"Ř":{"ha":818,"x_min":97,"x_max":790,"o":"m 272 342 l 272 0 l 97 0 l 97 936 l 386 936 q 637 856 546 936 q 728 640 728 775 q 679 472 726 540 q 550 369 632 403 l 790 0 l 581 0 l 368 342 l 272 342 m 272 792 l 272 486 l 389 486 q 510 527 469 486 q 550 641 550 568 q 508 753 550 714 q 386 792 465 792 l 272 792 m 493 1004 l 346 1004 l 144 1239 l 307 1239 l 419 1101 l 532 1239 l 694 1239 l 493 1004 z "},"ř":{"ha":490,"x_min":14,"x_max":564,"o":"m 257 704 l 257 579 q 435 710 306 710 q 482 706 464 710 l 482 544 q 411 558 450 558 q 300 503 343 558 q 257 364 257 447 l 257 0 l 89 0 l 90 704 l 257 704 m 363 772 l 215 772 l 14 1007 l 176 1007 l 289 869 l 401 1007 l 564 1007 l 363 772 z "},"Ś":{"ha":719,"x_min":68,"x_max":663,"o":"m 396 790 q 294 761 331 790 q 257 686 257 732 q 297 610 257 640 q 403 550 336 581 q 506 501 471 519 q 581 449 540 482 q 663 260 663 382 q 573 63 663 138 q 331 -11 483 -11 q 75 49 179 -11 l 75 228 q 336 142 194 142 q 439 173 400 142 q 478 257 478 204 q 468 301 478 282 q 428 340 458 321 q 296 408 369 379 q 213 451 244 432 q 143 501 181 469 q 68 682 68 565 q 156 871 68 799 q 383 943 244 943 q 618 897 522 943 l 618 728 q 396 790 514 790 m 304 1004 l 431 1239 l 606 1239 l 444 1004 l 304 1004 z "},"ś":{"ha":593,"x_min":75,"x_max":557,"o":"m 338 576 q 270 558 294 576 q 246 510 246 539 q 258 474 246 486 q 279 454 271 461 q 303 439 288 447 q 360 413 340 421 q 503 323 456 372 q 550 203 550 274 q 479 49 550 104 q 284 -7 408 -7 q 79 36 160 -7 l 79 189 q 281 126 172 126 q 352 144 326 126 q 378 185 378 161 q 369 224 378 210 q 338 253 361 239 q 276 284 307 271 q 242 299 244 297 q 236 301 240 300 q 229 304 232 303 q 75 504 75 374 q 149 657 75 601 q 331 713 222 713 q 511 682 440 713 l 511 535 q 338 576 442 576 m 256 772 l 382 1007 l 557 1007 l 396 772 l 256 772 z "},"Ŝ":{"ha":719,"x_min":68,"x_max":663,"o":"m 296 1239 l 443 1239 l 644 1004 l 482 1004 l 369 1142 l 257 1004 l 94 1004 l 296 1239 m 396 790 q 294 761 331 790 q 257 686 257 732 q 297 610 257 640 q 403 550 336 581 q 506 501 471 519 q 581 449 540 482 q 663 260 663 382 q 573 63 663 138 q 331 -11 483 -11 q 75 49 179 -11 l 75 228 q 336 142 194 142 q 439 173 400 142 q 478 257 478 204 q 468 301 478 282 q 428 340 458 321 q 296 408 369 379 q 213 451 244 432 q 143 501 181 469 q 68 682 68 565 q 156 871 68 799 q 383 943 244 943 q 618 897 522 943 l 618 728 q 396 790 514 790 z "},"ŝ":{"ha":593,"x_min":50,"x_max":600,"o":"m 251 1007 l 399 1007 l 600 772 l 438 772 l 325 910 l 213 772 l 50 772 l 251 1007 m 338 576 q 270 558 294 576 q 246 510 246 539 q 258 474 246 486 q 279 454 271 461 q 303 439 288 447 q 360 413 340 421 q 503 323 456 372 q 550 203 550 274 q 479 49 550 104 q 284 -7 408 -7 q 79 36 160 -7 l 79 189 q 281 126 172 126 q 352 144 326 126 q 378 185 378 161 q 369 224 378 210 q 338 253 361 239 q 276 284 307 271 q 242 299 244 297 q 236 301 240 300 q 229 304 232 303 q 75 504 75 374 q 149 657 75 601 q 331 713 222 713 q 511 682 440 713 l 511 535 q 338 576 442 576 z "},"Ş":{"ha":719,"x_min":68,"x_max":663,"o":"m 433 -71 q 458 -181 458 -108 q 399 -308 458 -254 q 224 -364 339 -362 l 224 -256 q 333 -162 333 -251 q 299 -71 333 -122 l 433 -71 m 396 790 q 294 761 331 790 q 257 686 257 732 q 297 610 257 640 q 403 550 336 581 q 506 501 471 519 q 581 449 540 482 q 663 260 663 382 q 573 63 663 138 q 331 -11 483 -11 q 75 49 179 -11 l 75 228 q 336 142 194 142 q 439 173 400 142 q 478 257 478 204 q 468 301 478 282 q 428 340 458 321 q 296 408 369 379 q 213 451 244 432 q 143 501 181 469 q 68 682 68 565 q 156 871 68 799 q 383 943 244 943 q 618 897 522 943 l 618 728 q 396 790 514 790 z "},"ş":{"ha":593,"x_min":75,"x_max":550,"o":"m 379 -71 q 404 -181 404 -108 q 344 -308 404 -254 q 169 -364 285 -362 l 169 -256 q 279 -162 279 -251 q 244 -71 279 -122 l 379 -71 m 338 576 q 270 558 294 576 q 246 510 246 539 q 258 474 246 486 q 279 454 271 461 q 303 439 288 447 q 360 413 340 421 q 503 323 456 372 q 550 203 550 274 q 479 49 550 104 q 284 -7 408 -7 q 79 36 160 -7 l 79 189 q 281 126 172 126 q 352 144 326 126 q 378 185 378 161 q 369 224 378 210 q 338 253 361 239 q 276 284 307 271 q 242 299 244 297 q 236 301 240 300 q 229 304 232 303 q 75 504 75 374 q 149 657 75 601 q 331 713 222 713 q 511 682 440 713 l 511 535 q 338 576 442 576 z "},"Š":{"ha":719,"x_min":68,"x_max":663,"o":"m 442 1004 l 294 1004 l 93 1239 l 256 1239 l 368 1101 l 481 1239 l 643 1239 l 442 1004 m 396 790 q 294 761 331 790 q 257 686 257 732 q 297 610 257 640 q 403 550 336 581 q 506 501 471 519 q 581 449 540 482 q 663 260 663 382 q 573 63 663 138 q 331 -11 483 -11 q 75 49 179 -11 l 75 228 q 336 142 194 142 q 439 173 400 142 q 478 257 478 204 q 468 301 478 282 q 428 340 458 321 q 296 408 369 379 q 213 451 244 432 q 143 501 181 469 q 68 682 68 565 q 156 871 68 799 q 383 943 244 943 q 618 897 522 943 l 618 728 q 396 790 514 790 z "},"š":{"ha":593,"x_min":53,"x_max":603,"o":"m 401 772 l 254 772 l 53 1007 l 215 1007 l 328 869 l 440 1007 l 603 1007 l 401 772 m 338 576 q 270 558 294 576 q 246 510 246 539 q 258 474 246 486 q 279 454 271 461 q 303 439 288 447 q 360 413 340 421 q 503 323 456 372 q 550 203 550 274 q 479 49 550 104 q 284 -7 408 -7 q 79 36 160 -7 l 79 189 q 281 126 172 126 q 352 144 326 126 q 378 185 378 161 q 369 224 378 210 q 338 253 361 239 q 276 284 307 271 q 242 299 244 297 q 236 301 240 300 q 229 304 232 303 q 75 504 75 374 q 149 657 75 601 q 331 713 222 713 q 511 682 440 713 l 511 535 q 338 576 442 576 z "},"Ţ":{"ha":722,"x_min":36,"x_max":688,"o":"m 688 936 l 688 792 l 450 792 l 450 0 l 274 0 l 274 792 l 36 792 l 36 936 l 688 936 m 160 -354 l 267 -71 l 444 -71 l 286 -354 l 160 -354 z "},"ţ":{"ha":526,"x_min":21,"x_max":479,"o":"m 293 579 l 293 221 q 317 153 293 176 q 388 131 340 131 q 479 160 435 131 l 479 17 q 354 -7 431 -7 q 126 224 126 -7 l 126 579 l 21 579 l 21 704 l 126 704 l 126 874 l 293 874 l 293 704 l 468 704 l 468 579 l 293 579 m 103 -354 l 208 -71 l 388 -71 l 229 -354 l 103 -354 z "},"Ť":{"ha":722,"x_min":36,"x_max":688,"o":"m 688 936 l 688 792 l 450 792 l 450 0 l 274 0 l 274 792 l 36 792 l 36 936 l 688 936 m 436 1004 l 289 1004 l 88 1239 l 250 1239 l 363 1101 l 475 1239 l 638 1239 l 436 1004 z "},"ť":{"ha":526,"x_min":21,"x_max":653,"o":"m 474 1089 l 653 1089 l 494 806 l 368 806 l 474 1089 m 293 579 l 293 221 q 317 153 293 176 q 388 131 340 131 q 479 160 435 131 l 479 17 q 354 -7 431 -7 q 126 224 126 -7 l 126 579 l 21 579 l 21 704 l 126 704 l 126 874 l 293 874 l 293 704 l 468 704 l 468 579 l 293 579 z "},"Ŧ":{"ha":722,"x_min":36,"x_max":688,"o":"m 688 792 l 450 792 l 450 522 l 607 522 l 607 392 l 450 392 l 450 0 l 274 0 l 274 392 l 117 392 l 117 522 l 274 522 l 274 792 l 36 792 l 36 936 l 688 936 l 688 792 z "},"ŧ":{"ha":565,"x_min":40,"x_max":499,"o":"m 313 328 l 313 221 q 336 153 313 176 q 407 131 360 131 q 499 160 454 131 l 499 17 q 374 -7 450 -7 q 146 224 146 -7 l 146 328 l 40 328 l 40 446 l 146 446 l 146 583 l 40 583 l 40 704 l 146 704 l 146 874 l 313 874 l 313 704 l 488 704 l 488 583 l 313 583 l 313 446 l 489 446 l 489 328 l 313 328 z "},"Ũ":{"ha":915,"x_min":92,"x_max":824,"o":"m 558 1036 q 463 1063 517 1036 q 381 1089 408 1089 q 333 1076 354 1089 q 288 1028 313 1063 l 208 1101 q 272 1178 231 1147 q 361 1210 313 1210 q 467 1183 410 1210 q 550 1157 524 1157 q 639 1217 610 1157 l 728 1146 q 558 1036 674 1036 m 649 358 l 649 936 l 824 936 l 824 360 q 726 83 824 178 q 459 -12 628 -12 q 191 81 290 -12 q 92 350 92 175 l 92 936 l 267 936 l 267 351 q 319 197 267 244 q 457 149 372 149 q 649 358 649 149 z "},"ũ":{"ha":785,"x_min":83,"x_max":694,"o":"m 526 704 l 694 704 l 694 0 l 526 0 l 526 115 q 310 -7 471 -7 q 143 54 203 -7 q 83 228 83 115 l 83 704 l 250 704 l 250 267 q 283 165 250 200 q 380 131 315 131 q 485 179 444 131 q 526 326 526 228 l 526 704 m 486 801 q 390 828 444 801 q 309 854 336 854 q 261 841 282 854 q 215 793 240 828 l 136 867 q 199 944 158 913 q 289 975 240 975 q 394 949 338 975 q 478 922 451 922 q 567 982 538 922 l 656 911 q 486 801 601 801 z "},"Ū":{"ha":915,"x_min":92,"x_max":824,"o":"m 694 1064 l 239 1064 l 239 1179 l 694 1179 l 694 1064 m 649 358 l 649 936 l 824 936 l 824 360 q 726 83 824 178 q 459 -12 628 -12 q 191 81 290 -12 q 92 350 92 175 l 92 936 l 267 936 l 267 351 q 319 197 267 244 q 457 149 372 149 q 649 358 649 149 z "},"ū":{"ha":785,"x_min":83,"x_max":694,"o":"m 526 704 l 694 704 l 694 0 l 526 0 l 526 115 q 310 -7 471 -7 q 143 54 203 -7 q 83 228 83 115 l 83 704 l 250 704 l 250 267 q 283 165 250 200 q 380 131 315 131 q 485 179 444 131 q 526 326 526 228 l 526 704 m 615 947 l 615 832 l 160 832 l 160 947 l 615 947 z "},"Ŭ":{"ha":915,"x_min":92,"x_max":824,"o":"m 649 358 l 649 936 l 824 936 l 824 360 q 726 83 824 178 q 459 -12 628 -12 q 191 81 290 -12 q 92 350 92 175 l 92 936 l 267 936 l 267 351 q 319 197 267 244 q 457 149 372 149 q 649 358 649 149 m 199 1239 l 329 1239 q 362 1144 329 1179 q 456 1108 394 1108 q 549 1144 517 1108 q 582 1239 582 1179 l 713 1239 q 644 1059 713 1119 q 456 999 575 999 q 267 1060 336 999 q 199 1239 199 1121 z "},"ŭ":{"ha":785,"x_min":83,"x_max":694,"o":"m 526 704 l 694 704 l 694 0 l 526 0 l 526 115 q 310 -7 471 -7 q 143 54 203 -7 q 83 228 83 115 l 83 704 l 250 704 l 250 267 q 283 165 250 200 q 380 131 315 131 q 485 179 444 131 q 526 326 526 228 l 526 704 m 522 1007 l 653 1007 q 584 827 653 888 q 396 767 515 767 q 208 828 276 767 q 139 1007 139 889 l 269 1007 q 302 912 269 947 q 396 876 335 876 q 490 912 457 876 q 522 1007 522 947 z "},"Ů":{"ha":915,"x_min":92,"x_max":824,"o":"m 649 358 l 649 936 l 824 936 l 824 360 q 726 83 824 178 q 459 -12 628 -12 q 191 81 290 -12 q 92 350 92 175 l 92 936 l 267 936 l 267 351 q 319 197 267 244 q 457 149 372 149 q 649 358 649 149 m 408 1219 q 398 1207 408 1219 q 388 1165 388 1196 q 408 1112 388 1135 q 461 1089 429 1089 q 514 1112 493 1089 q 535 1165 535 1135 q 514 1219 535 1196 q 461 1242 493 1242 q 408 1219 429 1242 m 338 1040 q 313 1065 338 1040 q 288 1163 288 1090 q 338 1285 288 1235 q 461 1336 389 1336 q 584 1285 533 1336 q 635 1163 635 1235 q 584 1040 635 1090 q 461 989 533 989 q 338 1040 389 989 z "},"ů":{"ha":785,"x_min":83,"x_max":694,"o":"m 526 704 l 694 704 l 694 0 l 526 0 l 526 115 q 310 -7 471 -7 q 143 54 203 -7 q 83 228 83 115 l 83 704 l 250 704 l 250 267 q 283 165 250 200 q 380 131 315 131 q 485 179 444 131 q 526 326 526 228 l 526 704 m 519 808 q 493 782 519 808 q 396 757 468 757 q 273 808 324 757 q 222 931 222 858 q 273 1053 222 1003 q 396 1104 324 1104 q 519 1053 468 1104 q 569 931 569 1003 q 519 808 569 858 m 449 987 q 438 998 449 987 q 396 1010 428 1010 q 343 987 364 1010 q 322 933 322 964 q 343 880 322 903 q 396 857 364 857 q 449 880 428 857 q 469 933 469 903 q 449 987 469 964 z "},"Ű":{"ha":915,"x_min":92,"x_max":828,"o":"m 275 1004 l 400 1239 l 563 1239 l 400 1004 l 275 1004 m 518 1004 l 653 1239 l 828 1239 l 644 1004 l 518 1004 m 649 358 l 649 936 l 824 936 l 824 360 q 726 83 824 178 q 459 -12 628 -12 q 191 81 290 -12 q 92 350 92 175 l 92 936 l 267 936 l 267 351 q 319 197 267 244 q 457 149 372 149 q 649 358 649 149 z "},"ű":{"ha":785,"x_min":83,"x_max":767,"o":"m 526 326 l 526 704 l 694 704 l 694 0 l 526 0 l 526 115 q 310 -7 471 -7 q 143 54 203 -7 q 83 228 83 115 l 83 704 l 250 704 l 250 267 q 283 165 250 200 q 380 131 315 131 q 485 179 444 131 q 526 326 526 228 m 501 1007 l 339 772 l 214 772 l 339 1007 l 501 1007 m 583 772 l 457 772 l 592 1007 l 767 1007 l 583 772 z "},"Ų":{"ha":915,"x_min":92,"x_max":824,"o":"m 649 936 l 824 936 l 824 360 q 766 133 824 222 q 604 10 708 44 q 446 -167 446 -83 q 518 -228 446 -228 q 629 -190 572 -228 l 629 -308 q 487 -340 572 -340 q 356 -296 401 -340 q 310 -182 310 -251 q 396 -10 310 -89 q 173 99 254 7 q 92 350 92 192 l 92 936 l 267 936 l 267 351 q 319 197 267 244 q 457 149 372 149 q 649 358 649 149 l 649 936 z "},"ų":{"ha":785,"x_min":83,"x_max":717,"o":"m 694 704 l 694 0 q 533 -178 533 -93 q 606 -239 533 -239 q 717 -201 661 -239 l 717 -319 q 574 -351 660 -351 q 443 -307 489 -351 q 397 -193 397 -262 q 526 15 397 -79 l 526 115 q 310 -7 471 -7 q 143 54 203 -7 q 83 228 83 115 l 83 704 l 250 704 l 250 267 q 283 165 250 200 q 380 131 315 131 q 485 179 444 131 q 526 326 526 228 l 526 704 l 694 704 z "},"Ŵ":{"ha":1331,"x_min":35,"x_max":1296,"o":"m 601 1239 l 749 1239 l 950 1004 l 788 1004 l 675 1142 l 563 1004 l 400 1004 l 601 1239 m 599 922 l 740 922 l 836 590 l 947 188 q 1033 592 982 381 l 1118 936 l 1296 936 l 1057 0 l 854 0 q 671 657 699 543 q 486 0 651 557 l 285 0 l 35 936 l 219 936 q 396 190 339 463 q 599 922 442 369 z "},"ŵ":{"ha":1113,"x_min":18,"x_max":1094,"o":"m 485 1007 l 632 1007 l 833 772 l 671 772 l 558 910 l 446 772 l 283 772 l 485 1007 m 240 0 l 18 704 l 192 704 q 331 160 311 269 q 411 472 344 244 l 479 704 l 631 704 q 779 158 761 260 q 861 472 793 240 l 928 704 l 1094 704 l 871 0 l 690 0 q 556 526 576 421 q 421 0 535 419 l 240 0 z "},"Ŷ":{"ha":867,"x_min":25,"x_max":842,"o":"m 519 0 l 344 0 l 344 342 l 25 936 l 229 936 q 431 482 397 572 q 574 800 443 533 l 638 936 l 842 936 l 519 347 l 519 0 m 433 1142 l 321 1004 l 158 1004 l 360 1239 l 507 1239 l 708 1004 l 546 1004 l 433 1142 z "},"ŷ":{"ha":718,"x_min":8,"x_max":706,"o":"m 129 -262 q 60 -256 89 -262 l 60 -118 q 107 -124 82 -124 q 286 14 233 -124 l 8 704 l 193 704 q 368 206 351 268 q 531 704 372 221 l 706 704 l 451 19 q 129 -262 346 -262 m 288 1007 l 435 1007 l 636 772 l 474 772 l 361 910 l 249 772 l 86 772 l 288 1007 z "},"Ÿ":{"ha":867,"x_min":25,"x_max":842,"o":"m 519 0 l 344 0 l 344 342 l 25 936 l 229 936 q 431 482 397 572 q 574 800 443 533 l 638 936 l 842 936 l 519 347 l 519 0 m 369 1122 q 369 1101 369 1122 q 342 1053 369 1081 q 272 1025 314 1025 q 201 1053 229 1025 q 174 1122 174 1081 q 201 1190 174 1163 q 272 1218 229 1218 q 342 1190 314 1218 q 369 1122 369 1163 m 707 1122 q 707 1101 707 1122 q 679 1053 707 1081 q 609 1025 651 1025 q 538 1053 567 1025 q 510 1122 510 1081 q 538 1190 510 1163 q 609 1218 567 1218 q 679 1190 651 1218 q 707 1122 707 1163 z "},"Ź":{"ha":835,"x_min":79,"x_max":756,"o":"m 738 936 l 738 807 l 289 143 l 756 143 l 756 0 l 79 0 l 79 133 l 526 793 l 86 793 l 86 936 l 738 936 m 374 1004 l 500 1239 l 675 1239 l 514 1004 l 374 1004 z "},"ź":{"ha":651,"x_min":58,"x_max":594,"o":"m 576 704 l 576 588 l 249 135 l 594 135 l 594 0 l 58 0 l 58 124 l 385 571 l 71 571 l 71 704 l 576 704 m 278 772 l 404 1007 l 579 1007 l 418 772 l 278 772 z "},"Ż":{"ha":835,"x_min":79,"x_max":756,"o":"m 437 1026 q 416 1026 437 1026 q 367 1054 394 1026 q 339 1123 339 1082 q 367 1192 339 1164 q 437 1219 394 1219 q 507 1192 479 1219 q 535 1123 535 1164 q 507 1054 535 1082 q 437 1026 479 1026 m 738 936 l 738 807 l 289 143 l 756 143 l 756 0 l 79 0 l 79 133 l 526 793 l 86 793 l 86 936 l 738 936 z "},"ż":{"ha":651,"x_min":58,"x_max":594,"o":"m 344 793 q 323 793 344 793 q 274 821 301 793 q 246 890 246 849 q 274 958 246 931 q 344 986 301 986 q 414 958 386 986 q 442 890 442 931 q 414 821 442 849 q 344 793 386 793 m 576 704 l 576 588 l 249 135 l 594 135 l 594 0 l 58 0 l 58 124 l 385 571 l 71 571 l 71 704 l 576 704 z "},"Ž":{"ha":835,"x_min":79,"x_max":756,"o":"m 499 1004 l 351 1004 l 150 1239 l 313 1239 l 425 1101 l 538 1239 l 700 1239 l 499 1004 m 738 936 l 738 807 l 289 143 l 756 143 l 756 0 l 79 0 l 79 133 l 526 793 l 86 793 l 86 936 l 738 936 z "},"ž":{"ha":651,"x_min":58,"x_max":626,"o":"m 425 772 l 278 772 l 76 1007 l 239 1007 l 351 869 l 464 1007 l 626 1007 l 425 772 m 576 704 l 576 588 l 249 135 l 594 135 l 594 0 l 58 0 l 58 124 l 385 571 l 71 571 l 71 704 l 576 704 z "},"ſ":{"ha":390,"x_min":94,"x_max":432,"o":"m 363 931 q 261 817 261 931 l 261 0 l 94 0 l 94 817 q 160 1001 94 935 q 340 1068 225 1068 q 432 1057 397 1068 l 432 917 q 363 931 396 931 z "},"ƒ":{"ha":657,"x_min":-61,"x_max":642,"o":"m 533 944 q 642 931 601 944 l 642 792 q 563 806 603 806 q 438 654 461 806 l 417 528 l 551 528 l 551 403 l 397 403 l 319 -78 q 234 -282 299 -208 q 58 -356 169 -356 q -61 -337 -18 -356 l -61 -199 q 34 -218 -18 -218 q 113 -181 86 -218 q 153 -65 140 -143 l 229 403 l 103 403 l 103 528 l 250 528 l 272 667 q 533 944 317 944 z "},"Ș":{"ha":719,"x_min":68,"x_max":663,"o":"m 174 -354 l 279 -71 l 458 -71 l 300 -354 l 174 -354 m 396 790 q 294 761 331 790 q 257 686 257 732 q 297 610 257 640 q 403 550 336 581 q 506 501 471 519 q 581 449 540 482 q 663 260 663 382 q 573 63 663 138 q 331 -11 483 -11 q 75 49 179 -11 l 75 228 q 336 142 194 142 q 439 173 400 142 q 478 257 478 204 q 468 301 478 282 q 428 340 458 321 q 296 408 369 379 q 213 451 244 432 q 143 501 181 469 q 68 682 68 565 q 156 871 68 799 q 383 943 244 943 q 618 897 522 943 l 618 728 q 396 790 514 790 z "},"ș":{"ha":593,"x_min":75,"x_max":550,"o":"m 338 576 q 270 558 294 576 q 246 510 246 539 q 258 474 246 486 q 279 454 271 461 q 303 439 288 447 q 360 413 340 421 q 503 323 456 372 q 550 203 550 274 q 479 49 550 104 q 284 -7 408 -7 q 79 36 160 -7 l 79 189 q 281 126 172 126 q 352 144 326 126 q 378 185 378 161 q 369 224 378 210 q 338 253 361 239 q 276 284 307 271 q 242 299 244 297 q 236 301 240 300 q 229 304 232 303 q 75 504 75 374 q 149 657 75 601 q 331 713 222 713 q 511 682 440 713 l 511 535 q 338 576 442 576 m 114 -354 l 219 -71 l 399 -71 l 239 -354 l 114 -354 z "},"Ț":{"ha":722,"x_min":36,"x_max":688,"o":"m 688 936 l 688 792 l 450 792 l 450 0 l 274 0 l 274 792 l 36 792 l 36 936 l 688 936 m 164 -354 l 271 -71 l 449 -71 l 290 -354 l 164 -354 z "},"ț":{"ha":526,"x_min":21,"x_max":479,"o":"m 293 579 l 293 221 q 317 153 293 176 q 388 131 340 131 q 479 160 435 131 l 479 17 q 354 -7 431 -7 q 126 224 126 -7 l 126 579 l 21 579 l 21 704 l 126 704 l 126 874 l 293 874 l 293 704 l 468 704 l 468 579 l 293 579 m 153 -354 l 258 -71 l 436 -71 l 278 -354 l 153 -354 z "},"ȷ":{"ha":357,"x_min":-58,"x_max":267,"o":"m 26 -140 q 100 -44 100 -140 l 100 704 l 267 704 l 267 -47 q 210 -212 267 -151 q 47 -274 153 -274 q -58 -251 -3 -274 l -58 -119 q 26 -140 -10 -140 z "},"ʼ":{"ha":318,"x_min":26,"x_max":349,"o":"m 26 621 l 158 964 l 349 964 l 168 621 l 26 621 z "},"ˆ":{"ha":653,"x_min":51,"x_max":601,"o":"m 253 1108 l 400 1108 l 601 874 l 439 874 l 326 1011 l 214 874 l 51 874 l 253 1108 z "},"ˇ":{"ha":653,"x_min":51,"x_max":601,"o":"m 400 874 l 253 874 l 51 1108 l 214 1108 l 326 971 l 439 1108 l 601 1108 l 400 874 z "},"ˉ":{"ha":653,"x_min":99,"x_max":554,"o":"m 554 926 l 99 926 l 99 1042 l 554 1042 l 554 926 z "},"˘":{"ha":653,"x_min":69,"x_max":583,"o":"m 69 1108 l 200 1108 q 233 1013 200 1049 q 326 978 265 978 q 420 1013 388 978 q 453 1108 453 1049 l 583 1108 q 515 928 583 989 q 326 868 446 868 q 138 929 207 868 q 69 1108 69 990 z "},"˙":{"ha":653,"x_min":228,"x_max":424,"o":"m 326 897 q 305 897 326 897 q 256 925 283 897 q 228 994 228 953 q 256 1063 228 1035 q 326 1090 283 1090 q 396 1063 368 1090 q 424 994 424 1035 q 396 925 424 953 q 326 897 368 897 z "},"˚":{"ha":653,"x_min":153,"x_max":500,"o":"m 274 1048 q 263 1036 274 1048 q 253 994 253 1025 q 274 941 253 964 q 326 918 294 918 q 379 941 358 918 q 400 994 400 964 q 379 1048 400 1025 q 326 1071 358 1071 q 274 1048 294 1071 m 203 869 q 178 894 203 869 q 153 992 153 919 q 203 1115 153 1064 q 326 1165 254 1165 q 449 1115 399 1165 q 500 992 500 1064 q 449 869 500 919 q 326 818 399 818 q 203 869 254 818 z "},"˛":{"ha":653,"x_min":167,"x_max":486,"o":"m 486 -301 q 344 -333 429 -333 q 213 -289 258 -333 q 167 -177 167 -244 q 210 -51 167 -110 q 303 40 254 7 q 406 93 353 72 l 464 18 q 303 -160 303 -75 q 375 -221 303 -221 q 486 -183 431 -221 l 486 -301 z "},"˜":{"ha":653,"x_min":71,"x_max":590,"o":"m 421 882 q 325 908 378 882 q 244 935 272 935 q 196 922 217 935 q 150 874 175 908 l 71 947 q 134 1024 93 993 q 224 1056 175 1056 q 329 1029 272 1056 q 413 1003 386 1003 q 501 1063 472 1003 l 590 992 q 421 882 536 882 z "},"˝":{"ha":653,"x_min":50,"x_max":603,"o":"m 50 874 l 175 1108 l 338 1108 l 175 874 l 50 874 m 293 874 l 428 1108 l 603 1108 l 419 874 l 293 874 z "},"π":{"ha":829,"x_min":31,"x_max":811,"o":"m 811 704 l 811 579 l 692 579 l 692 0 l 525 0 l 525 579 l 317 579 l 317 274 q 253 60 317 121 q 56 0 190 0 l 56 139 q 129 163 108 139 q 150 258 150 188 l 150 579 l 31 579 l 31 704 l 811 704 z "},"ँ":{"ha":0,"x_min":-490,"x_max":104,"o":"m -254 1281 q -267 1294 -254 1281 q -279 1343 -279 1307 q -254 1405 -279 1379 q -192 1431 -229 1431 q -130 1405 -156 1431 q -104 1343 -104 1379 q -130 1281 -104 1307 q -192 1256 -156 1256 q -254 1281 -229 1256 m 104 1267 q 18 1087 104 1153 q -197 1021 -68 1021 q -408 1084 -325 1021 q -490 1267 -490 1147 l -332 1267 q -294 1176 -332 1211 q -192 1140 -256 1140 q -91 1176 -128 1140 q -54 1267 -54 1211 l 104 1267 z "},"ं":{"ha":0,"x_min":-290,"x_max":-92,"o":"m -262 1048 q -276 1062 -262 1048 q -290 1118 -290 1076 q -262 1188 -290 1160 q -192 1217 -235 1217 q -121 1188 -150 1217 q -92 1118 -92 1160 q -121 1048 -92 1076 q -192 1019 -150 1019 q -262 1048 -235 1019 z "},"ः":{"ha":403,"x_min":107,"x_max":306,"o":"m 135 144 q 121 158 135 144 q 107 214 107 172 q 135 285 107 256 q 206 314 164 314 q 277 285 249 314 q 306 214 306 256 q 277 144 306 172 q 206 115 249 115 q 135 144 164 115 m 135 602 q 121 616 135 602 q 107 672 107 631 q 135 743 107 714 q 206 772 164 772 q 277 743 249 772 q 306 672 306 714 q 277 602 306 631 q 206 574 249 574 q 135 602 164 574 z "},"अ":{"ha":953,"x_min":42,"x_max":990,"o":"m 990 917 l 990 785 l 843 785 l 843 0 l 679 0 l 679 338 l 514 338 l 514 319 q 440 144 514 211 q 224 76 365 76 q 42 108 125 76 l 42 260 q 204 214 132 214 q 357 342 357 214 q 208 450 357 450 l 156 450 l 156 589 l 199 589 q 326 688 326 589 q 217 782 326 782 q 75 749 144 782 l 75 896 q 226 922 143 922 q 422 865 353 922 q 490 707 490 807 q 453 586 490 635 q 351 519 417 538 q 457 471 411 511 l 679 471 l 679 785 l 565 785 l 565 917 l 990 917 z "},"आ":{"ha":1332,"x_min":42,"x_max":1369,"o":"m 1369 917 l 1369 785 l 1222 785 l 1222 0 l 1060 0 l 1060 785 l 843 785 l 843 0 l 679 0 l 679 338 l 514 338 l 514 319 q 440 144 514 211 q 224 76 365 76 q 42 108 125 76 l 42 260 q 204 214 132 214 q 357 342 357 214 q 208 450 357 450 l 156 450 l 156 589 l 199 589 q 326 688 326 589 q 217 782 326 782 q 75 749 144 782 l 75 896 q 226 922 143 922 q 422 865 353 922 q 490 707 490 807 q 453 586 490 635 q 351 519 417 538 q 457 471 411 511 l 679 471 l 679 785 l 565 785 l 565 917 l 1369 917 z "},"इ":{"ha":710,"x_min":-37,"x_max":747,"o":"m 600 785 l 600 571 l 342 571 q 250 507 250 571 q 280 459 250 474 q 378 442 310 444 q 598 386 528 439 q 668 233 668 333 q 598 67 668 132 q 421 1 528 1 q 239 49 314 1 l 239 -93 l 78 -93 l 78 244 l 228 244 q 294 158 247 192 q 394 125 342 125 q 476 152 446 125 q 507 221 507 179 q 371 304 507 300 q 85 499 85 310 q 158 651 85 599 q 344 703 231 703 l 438 703 l 438 785 l -37 785 l -37 917 l 747 917 l 747 785 l 600 785 z "},"ई":{"ha":710,"x_min":-37,"x_max":747,"o":"m 590 785 l 590 571 l 342 571 q 250 507 250 571 q 280 459 250 474 q 378 442 310 444 q 598 386 528 439 q 668 233 668 333 q 598 67 668 132 q 421 1 528 1 q 239 49 314 1 l 239 -93 l 78 -93 l 78 244 l 228 244 q 294 158 247 192 q 394 125 342 125 q 476 152 446 125 q 507 221 507 179 q 371 304 507 300 q 85 499 85 310 q 158 651 85 599 q 344 703 231 703 l 428 703 l 428 785 l -37 785 l -37 917 l 390 917 q 346 1050 346 975 q 413 1210 346 1151 q 573 1268 479 1268 q 724 1240 667 1268 l 724 1090 q 615 1125 669 1125 q 536 1100 560 1125 q 513 1025 513 1075 q 558 917 513 975 l 747 917 l 747 785 l 590 785 z "},"उ":{"ha":626,"x_min":-37,"x_max":664,"o":"m 664 917 l 664 785 l 488 785 q 528 662 528 733 q 483 543 528 590 q 358 482 438 496 q 516 419 457 474 q 575 275 575 365 q 487 87 575 154 q 240 19 399 19 q 42 51 131 19 l 42 201 q 231 156 129 156 q 411 289 411 156 q 363 379 411 346 q 214 413 314 413 l 154 413 l 154 551 l 206 551 q 324 580 283 551 q 364 672 364 608 q 314 785 364 735 l -37 785 l -37 917 l 664 917 z "},"ऊ":{"ha":990,"x_min":-37,"x_max":1028,"o":"m 1028 917 l 1028 785 l 488 785 q 528 662 528 733 q 483 543 528 590 q 358 482 438 496 q 493 438 438 475 q 567 542 514 503 q 699 581 621 581 q 891 508 822 581 q 960 313 960 436 q 888 109 960 189 q 686 29 815 29 q 646 33 664 29 l 646 164 q 669 161 656 161 q 797 314 797 161 q 769 411 797 374 q 689 449 742 449 q 606 401 636 449 q 575 281 575 353 l 575 275 q 487 87 575 154 q 240 19 399 19 q 42 51 131 19 l 42 201 q 231 156 129 156 q 411 289 411 156 q 363 379 411 346 q 214 413 314 413 l 154 413 l 154 551 l 206 551 q 324 580 283 551 q 364 672 364 608 q 314 785 364 735 l -37 785 l -37 917 l 1028 917 z "},"ऋ":{"ha":1218,"x_min":-37,"x_max":1256,"o":"m 682 785 l 682 521 l 829 606 l 829 692 l 983 692 l 983 569 q 1086 454 983 454 l 1121 454 l 1121 324 l 1058 324 q 936 239 936 324 q 961 189 936 207 q 1025 171 986 171 q 1161 206 1108 171 l 1161 69 q 1018 40 1111 40 q 851 88 925 40 q 778 228 778 135 q 814 332 778 289 q 911 393 850 375 q 847 465 869 417 l 682 372 l 682 0 l 517 0 l 517 290 l 92 44 l 92 203 l 353 350 q 306 474 342 429 q 192 519 271 519 q 85 496 138 519 l 85 642 q 206 663 136 663 q 481 422 435 663 l 517 443 l 517 785 l -37 785 l -37 917 l 1256 917 l 1256 785 l 682 785 z "},"ऌ":{"ha":1111,"x_min":-37,"x_max":1149,"o":"m 982 785 l 982 244 q 866 215 906 243 q 826 142 826 186 q 856 74 826 97 q 947 51 885 51 q 1069 81 1010 51 l 1069 -49 q 925 -75 1006 -75 q 736 -22 808 -75 q 664 132 664 32 q 704 247 664 196 q 817 317 744 297 l 817 526 q 739 540 775 540 q 604 386 604 540 l 604 293 l 440 293 l 440 389 q 336 525 440 525 q 256 485 286 525 q 225 353 225 446 q 281 198 225 260 q 450 136 338 136 q 513 142 486 136 l 513 8 q 432 1 481 1 q 164 103 264 1 q 64 368 64 204 q 132 581 64 500 q 318 661 200 661 q 455 626 400 661 q 522 535 510 590 q 729 669 558 669 q 817 653 772 669 l 817 785 l -37 785 l -37 917 l 1149 917 l 1149 785 l 982 785 z "},"ऍ":{"ha":790,"x_min":-37,"x_max":828,"o":"m 828 917 l 828 785 l 717 785 l 717 604 q 653 435 717 494 q 485 376 589 376 q 404 385 435 376 l 404 514 q 454 507 432 507 q 531 533 507 507 q 556 617 556 560 l 556 785 l 264 785 l 264 364 q 322 225 264 271 q 488 179 381 179 q 692 224 596 179 l 692 76 q 471 39 589 39 q 202 119 303 39 q 101 364 101 200 l 101 785 l -37 785 l -37 917 l 828 917 m 551 1267 l 710 1267 q 628 1087 710 1153 q 418 1021 546 1021 q 212 1083 290 1021 q 133 1267 133 1146 l 292 1267 q 326 1175 292 1210 q 422 1140 360 1140 q 518 1175 485 1140 q 551 1267 551 1210 z "},"ऎ":{"ha":790,"x_min":-37,"x_max":828,"o":"m 828 917 l 828 785 l 717 785 l 717 604 q 653 435 717 494 q 485 376 589 376 q 404 385 435 376 l 404 514 q 454 507 432 507 q 531 533 507 507 q 556 617 556 560 l 556 785 l 264 785 l 264 364 q 322 225 264 271 q 488 179 381 179 q 692 224 596 179 l 692 76 q 471 39 589 39 q 202 119 303 39 q 101 364 101 200 l 101 785 l -37 785 l -37 917 l 556 917 q 535 994 553 971 q 468 1018 517 1018 l 415 1018 q 214 1079 272 1018 q 156 1256 156 1139 l 319 1256 q 344 1172 319 1193 q 433 1150 369 1150 l 483 1150 q 718 917 715 1150 l 828 917 z "},"ए":{"ha":790,"x_min":-37,"x_max":828,"o":"m 828 917 l 828 785 l 717 785 l 717 604 q 653 435 717 494 q 485 376 589 376 q 404 385 435 376 l 404 514 q 454 507 432 507 q 531 533 507 507 q 556 617 556 560 l 556 785 l 264 785 l 264 364 q 322 225 264 271 q 488 179 381 179 q 692 224 596 179 l 692 76 q 471 39 589 39 q 202 119 303 39 q 101 364 101 200 l 101 785 l -37 785 l -37 917 l 828 917 z "},"ऐ":{"ha":790,"x_min":-37,"x_max":828,"o":"m 828 917 l 828 785 l 717 785 l 717 604 q 653 435 717 494 q 485 376 589 376 q 404 385 435 376 l 404 514 q 454 507 432 507 q 531 533 507 507 q 556 617 556 560 l 556 785 l 264 785 l 264 364 q 322 225 264 271 q 488 179 381 179 q 692 224 596 179 l 692 76 q 471 39 589 39 q 202 119 303 39 q 101 364 101 200 l 101 785 l -37 785 l -37 917 l 539 917 l 438 1067 q 325 1131 397 1131 q 243 1118 286 1131 l 243 1256 q 338 1265 301 1265 q 569 1139 489 1264 l 714 917 l 828 917 z "},"ऑ":{"ha":1335,"x_min":42,"x_max":1371,"o":"m 1371 917 l 1371 785 l 1224 785 l 1224 0 l 1061 0 l 1061 785 l 843 785 l 843 0 l 679 0 l 679 338 l 514 338 l 514 319 q 440 144 514 211 q 224 76 365 76 q 42 108 125 76 l 42 260 q 204 214 132 214 q 357 342 357 214 q 208 450 357 450 l 156 450 l 156 589 l 199 589 q 326 688 326 589 q 217 782 326 782 q 75 749 144 782 l 75 896 q 226 922 143 922 q 422 865 353 922 q 490 707 490 807 q 453 586 490 635 q 351 519 417 538 q 457 471 411 511 l 679 471 l 679 785 l 565 785 l 565 917 l 1371 917 m 1097 1267 l 1256 1267 q 1174 1087 1256 1153 q 964 1021 1092 1021 q 758 1083 836 1021 q 679 1267 679 1146 l 838 1267 q 872 1175 838 1210 q 968 1140 906 1140 q 1064 1175 1031 1140 q 1097 1267 1097 1210 z "},"ऒ":{"ha":1335,"x_min":42,"x_max":1372,"o":"m 1372 917 l 1372 785 l 1225 785 l 1225 0 l 1063 0 l 1063 785 l 843 785 l 843 0 l 679 0 l 679 338 l 514 338 l 514 319 q 440 144 514 211 q 224 76 365 76 q 42 108 125 76 l 42 260 q 204 214 132 214 q 357 342 357 214 q 208 450 357 450 l 156 450 l 156 589 l 199 589 q 326 688 326 589 q 217 782 326 782 q 75 749 144 782 l 75 896 q 226 922 143 922 q 422 865 353 922 q 490 707 490 807 q 453 586 490 635 q 351 519 417 538 q 457 471 411 511 l 679 471 l 679 785 l 565 785 l 565 917 l 1063 917 q 1042 994 1060 971 q 975 1018 1024 1018 l 922 1018 q 719 1079 779 1018 q 663 1256 663 1139 l 826 1256 q 851 1172 826 1193 q 940 1150 876 1150 l 990 1150 q 1225 917 1222 1150 l 1372 917 z "},"ओ":{"ha":1335,"x_min":42,"x_max":1368,"o":"m 1368 917 l 1368 785 l 1221 785 l 1221 0 l 1058 0 l 1058 785 l 843 785 l 843 0 l 679 0 l 679 338 l 514 338 l 514 319 q 440 144 514 211 q 224 76 365 76 q 42 108 125 76 l 42 260 q 204 214 132 214 q 357 342 357 214 q 208 450 357 450 l 156 450 l 156 589 l 199 589 q 326 688 326 589 q 217 782 326 782 q 75 749 144 782 l 75 896 q 226 922 143 922 q 422 865 353 922 q 490 707 490 807 q 453 586 490 635 q 351 519 417 538 q 457 471 411 511 l 679 471 l 679 785 l 565 785 l 565 917 l 1049 917 l 947 1067 q 835 1131 907 1131 q 753 1118 797 1131 l 753 1256 q 847 1265 811 1265 q 1079 1139 999 1264 l 1224 917 l 1368 917 z "},"औ":{"ha":1335,"x_min":42,"x_max":1372,"o":"m 1372 917 l 1372 785 l 1225 785 l 1225 0 l 1063 0 l 1063 785 l 843 785 l 843 0 l 679 0 l 679 338 l 514 338 l 514 319 q 440 144 514 211 q 224 76 365 76 q 42 108 125 76 l 42 260 q 204 214 132 214 q 357 342 357 214 q 208 450 357 450 l 156 450 l 156 589 l 199 589 q 326 688 326 589 q 217 782 326 782 q 75 749 144 782 l 75 896 q 226 922 143 922 q 422 865 353 922 q 490 707 490 807 q 453 586 490 635 q 351 519 417 538 q 457 471 411 511 l 679 471 l 679 785 l 565 785 l 565 917 l 1018 917 q 782 1003 882 1003 q 703 992 740 1003 l 703 1115 q 800 1126 747 1126 q 911 1096 853 1126 q 1097 954 978 1061 l 969 1110 q 797 1197 897 1197 q 703 1185 747 1197 l 703 1311 q 807 1322 740 1322 q 1067 1167 971 1322 l 1222 917 l 1372 917 z "},"क":{"ha":1104,"x_min":-37,"x_max":1142,"o":"m 1142 785 l 633 785 l 633 614 q 786 674 697 674 q 981 600 907 674 q 1054 405 1054 526 q 970 208 1054 283 q 758 133 886 133 q 726 135 736 133 l 726 267 q 751 265 735 265 q 852 305 814 265 q 890 405 890 344 q 855 504 890 465 q 763 543 819 543 q 669 505 706 543 q 633 407 633 467 l 633 0 l 469 0 l 469 178 q 317 119 407 119 q 123 193 197 119 q 49 388 49 267 q 133 585 49 510 q 344 660 217 660 q 376 658 365 660 l 376 526 q 351 528 368 528 q 251 488 289 528 q 213 388 213 449 q 248 289 213 328 q 340 250 283 250 q 433 288 397 250 q 469 386 469 326 l 469 785 l -37 785 l -37 917 l 1142 917 l 1142 785 z "},"ख":{"ha":1136,"x_min":-37,"x_max":1174,"o":"m 1174 917 l 1174 785 l 1026 785 l 1026 0 l 863 0 l 863 207 q 708 161 804 161 q 542 231 613 161 q 471 411 471 301 q 544 590 471 521 q 728 660 618 660 q 776 654 751 660 l 776 532 q 749 535 769 535 q 659 499 693 535 q 625 407 625 463 q 658 318 625 351 q 744 285 692 285 q 829 316 796 285 q 863 406 863 347 l 863 785 l 453 785 l 453 603 q 400 447 453 507 q 238 371 340 381 l 528 0 l 331 0 l 47 368 l 47 497 l 147 497 q 290 614 290 497 l 290 785 l -37 785 l -37 917 l 1174 917 z "},"ग":{"ha":807,"x_min":-37,"x_max":844,"o":"m -37 917 l 844 917 l 844 785 l 697 785 l 697 0 l 536 0 l 536 785 l 349 785 l 349 478 q 297 333 349 382 q 170 285 244 285 q 42 304 96 285 l 42 436 q 117 418 76 418 q 186 492 186 418 l 186 785 l -37 785 l -37 917 z "},"घ":{"ha":889,"x_min":-37,"x_max":926,"o":"m 926 917 l 926 785 l 779 785 l 779 0 l 617 0 l 617 218 q 509 138 581 167 q 357 108 438 108 q 149 169 231 108 q 67 333 67 229 q 119 462 67 413 q 264 522 172 511 q 132 565 182 525 q 82 671 82 604 q 129 785 82 738 l -37 785 l -37 917 l 926 917 m 617 468 l 617 785 l 301 785 q 246 686 246 744 q 389 592 246 592 l 449 592 l 449 454 l 376 454 q 269 425 308 454 q 231 346 231 396 q 271 270 231 296 q 374 244 311 244 q 549 305 481 244 q 617 468 617 365 z "},"ङ":{"ha":867,"x_min":-37,"x_max":904,"o":"m -37 917 l 904 917 l 904 785 l 583 785 l 583 572 l 311 572 q 224 506 224 572 q 263 453 224 467 q 394 438 303 439 q 661 232 661 433 q 576 65 660 131 q 340 0 493 0 q 64 67 186 0 l 64 219 q 350 135 203 135 q 460 159 421 135 q 499 226 499 183 q 463 284 499 268 q 322 302 426 300 q 140 351 217 304 q 63 499 63 397 q 135 652 63 601 q 311 703 207 703 l 422 703 l 422 785 l -37 785 l -37 917 m 677 558 q 691 572 677 558 q 743 586 704 586 q 810 558 782 586 q 838 492 838 531 q 810 426 838 453 q 743 399 782 399 q 677 426 704 399 q 650 492 650 453 q 677 558 650 531 z "},"च":{"ha":903,"x_min":-37,"x_max":940,"o":"m 940 917 l 940 785 l 793 785 l 793 0 l 632 0 l 632 244 q 379 131 557 132 q 189 194 261 131 q 117 362 117 258 q 206 514 117 465 l 32 514 l 32 649 l 521 649 l 521 514 q 274 375 274 514 q 312 292 274 321 q 417 263 350 263 q 574 324 515 263 q 632 451 632 385 l 632 785 l -37 785 l -37 917 l 940 917 z "},"छ":{"ha":899,"x_min":-37,"x_max":936,"o":"m 936 785 l 736 785 l 736 650 q 840 440 840 582 q 720 174 840 275 q 414 72 600 72 q 172 135 269 72 q 74 310 74 199 q 122 433 74 386 q 256 486 171 479 q 137 538 182 490 q 92 660 92 586 q 143 785 92 733 l -37 785 l -37 917 l 936 917 l 936 785 m 582 692 l 582 785 l 321 785 q 254 661 254 736 q 286 582 254 613 q 369 551 318 551 l 417 551 l 417 415 l 365 415 q 238 317 238 415 q 288 236 238 265 q 415 207 338 207 q 603 267 532 207 q 675 429 675 326 q 641 525 675 490 q 557 560 607 560 q 483 551 507 560 l 483 682 q 575 692 514 692 l 582 692 z "},"ज":{"ha":910,"x_min":-37,"x_max":949,"o":"m -37 917 l 949 917 l 949 785 l 800 785 l 800 0 l 636 0 l 636 503 l 408 503 q 497 331 497 447 q 420 147 497 214 q 231 81 343 81 q 42 111 119 81 l 42 256 q 184 219 110 219 q 300 253 258 219 q 342 356 342 288 q 286 463 342 424 q 126 503 231 503 l 126 638 l 636 638 l 636 785 l -37 785 l -37 917 z "},"झ":{"ha":1074,"x_min":-37,"x_max":1111,"o":"m 1111 917 l 1111 785 l 964 785 l 964 0 l 800 0 l 800 331 l 643 331 q 661 236 661 290 q 592 73 661 136 q 417 10 524 10 q 233 61 311 10 l 233 -69 l 72 -69 l 72 254 l 221 254 q 292 167 244 200 q 392 135 340 135 q 472 159 443 135 q 500 228 500 183 q 363 319 500 315 q 89 507 89 325 q 161 657 89 607 q 349 707 233 707 l 443 707 l 443 785 l -37 785 l -37 917 l 1111 917 m 369 457 l 800 457 l 800 785 l 606 785 l 606 575 l 357 575 q 254 514 254 575 q 282 472 254 483 q 369 457 310 460 z "},"ञ":{"ha":950,"x_min":-37,"x_max":988,"o":"m 988 917 l 988 785 l 840 785 l 840 0 l 676 0 l 676 338 l 564 338 q 467 160 549 228 q 254 88 385 93 q 38 138 135 88 l 38 286 q 228 228 136 228 q 362 270 321 228 q 403 380 403 313 q 364 487 403 447 q 262 526 325 526 q 140 503 199 526 l 140 640 q 288 661 192 661 q 458 610 385 661 q 556 469 532 560 l 676 469 l 676 785 l -37 785 l -37 917 l 988 917 z "},"ट":{"ha":708,"x_min":-37,"x_max":746,"o":"m 604 785 l 604 513 q 486 521 567 521 q 300 472 367 521 q 233 338 233 424 q 296 205 233 251 q 461 158 358 158 q 571 175 514 158 q 663 214 628 192 l 663 67 q 450 19 574 19 q 171 105 274 19 q 68 331 68 190 q 163 560 68 472 q 421 651 258 649 l 443 651 l 443 785 l -37 785 l -37 917 l 746 917 l 746 785 l 604 785 z "},"ठ":{"ha":793,"x_min":-37,"x_max":831,"o":"m 831 785 l 510 785 l 510 639 q 674 543 613 613 q 735 358 735 474 q 644 163 735 242 q 400 83 553 83 q 153 160 247 82 q 60 367 60 239 q 142 565 60 494 q 347 649 225 636 l 347 785 l -37 785 l -37 917 l 831 917 l 831 785 m 400 213 q 439 213 400 213 q 524 255 478 213 q 569 370 569 297 q 523 482 569 443 q 400 522 476 521 q 274 484 324 522 q 224 372 224 446 q 273 255 224 297 q 400 213 322 213 z "},"ड":{"ha":735,"x_min":-37,"x_max":772,"o":"m 583 785 l 583 572 l 311 572 q 224 506 224 572 q 263 453 224 467 q 394 438 303 439 q 661 232 661 433 q 576 65 660 131 q 340 0 493 0 q 64 67 186 0 l 64 219 q 350 135 203 135 q 460 159 421 135 q 499 226 499 183 q 463 284 499 268 q 322 302 426 300 q 140 351 217 304 q 63 499 63 397 q 135 652 63 601 q 311 703 207 703 l 422 703 l 422 785 l -37 785 l -37 917 l 772 917 l 772 785 l 583 785 z "},"ढ":{"ha":779,"x_min":-37,"x_max":817,"o":"m 369 404 q 519 435 433 435 q 663 385 604 435 q 721 242 721 335 q 639 84 721 149 q 407 19 557 19 q 156 111 257 19 q 54 349 54 203 q 160 579 54 496 q 433 665 265 663 l 465 665 l 465 785 l -37 785 l -37 917 l 817 917 l 817 785 l 628 785 l 628 524 q 486 538 551 538 q 294 488 369 538 q 219 351 219 439 q 276 206 219 263 q 422 150 333 150 q 524 176 483 150 q 564 239 564 201 q 476 315 564 315 q 369 285 417 315 l 369 404 z "},"ण":{"ha":1042,"x_min":-37,"x_max":1079,"o":"m 1079 917 l 1079 785 l 932 785 l 932 0 l 769 0 l 769 785 l 583 785 l 583 490 q 514 294 583 361 q 319 226 444 226 q 63 488 63 226 l 63 785 l -37 785 l -37 917 l 1079 917 m 422 478 l 422 785 l 225 785 l 225 478 q 322 364 225 364 q 422 478 422 364 z "},"त":{"ha":833,"x_min":-37,"x_max":871,"o":"m 871 917 l 871 785 l 724 785 l 724 0 l 561 0 l 561 513 l 450 513 q 238 328 238 513 q 279 189 238 239 q 404 139 321 139 q 431 140 422 139 l 431 4 q 381 1 400 1 q 156 92 238 1 q 74 328 74 183 q 167 560 74 474 q 442 647 261 647 l 561 647 l 561 785 l -37 785 l -37 917 l 871 917 z "},"थ":{"ha":918,"x_min":32,"x_max":946,"o":"m 543 704 q 219 406 543 497 q 292 309 240 343 q 425 275 343 275 q 576 329 507 275 q 644 497 644 383 l 644 917 l 946 917 l 946 785 l 808 785 l 808 0 l 644 0 l 644 238 q 549 165 617 194 q 400 135 481 135 q 150 231 256 135 q 32 496 44 328 q 306 588 222 542 q 389 708 389 633 q 371 769 389 746 q 317 793 353 793 q 262 770 281 793 q 243 715 243 747 q 260 635 243 682 l 104 635 q 88 726 88 681 q 149 870 88 813 q 315 928 210 928 q 481 867 419 928 q 543 704 543 807 z "},"द":{"ha":789,"x_min":-37,"x_max":826,"o":"m -37 917 l 826 917 l 826 785 l 667 785 l 667 546 l 394 546 q 265 503 313 546 q 218 385 218 460 q 260 269 218 311 q 370 226 301 226 q 483 265 439 226 q 535 374 526 303 l 693 374 l 693 -14 l 532 -14 l 532 164 q 453 110 507 129 q 346 90 399 90 q 131 174 213 90 q 50 385 50 257 q 138 594 50 513 q 386 676 225 676 l 503 676 l 503 785 l -37 785 l -37 917 z "},"ध":{"ha":889,"x_min":-37,"x_max":926,"o":"m 926 917 l 926 785 l 779 785 l 779 0 l 617 0 l 617 200 q 510 122 578 150 q 364 93 443 93 q 150 156 233 93 q 67 322 67 218 q 122 449 67 403 q 269 504 176 496 q 132 548 182 508 q 82 667 82 588 q 153 785 82 747 l -37 785 l -37 917 l 406 917 l 406 785 l 403 785 q 286 755 326 785 q 246 671 246 725 q 394 572 246 572 l 456 572 l 456 435 l 382 435 q 232 335 232 435 q 272 257 232 285 q 381 229 313 229 q 552 288 488 229 q 617 443 617 346 l 617 917 l 926 917 z "},"न":{"ha":714,"x_min":-37,"x_max":751,"o":"m -37 917 l 751 917 l 751 785 l 604 785 l 604 0 l 440 0 l 440 446 l 240 446 q 204 433 215 446 q 193 383 193 419 q 207 288 193 346 l 76 288 q 32 456 32 367 q 67 544 32 511 q 172 576 103 576 l 440 576 l 440 785 l -37 785 l -37 917 z "},"ऩ":{"ha":714,"x_min":-37,"x_max":751,"o":"m -37 917 l 751 917 l 751 785 l 604 785 l 604 0 l 440 0 l 440 446 l 240 446 q 204 433 215 446 q 193 383 193 419 q 207 288 193 346 l 76 288 q 32 456 32 367 q 67 544 32 511 q 172 576 103 576 l 440 576 l 440 785 l -37 785 l -37 917 m 128 143 q 142 157 128 143 q 194 171 156 171 q 261 144 233 171 q 289 77 289 117 q 261 10 289 38 q 194 -17 233 -17 q 128 10 156 -17 q 101 76 101 38 q 128 143 101 115 z "},"प":{"ha":789,"x_min":-37,"x_max":826,"o":"m 826 917 l 826 785 l 679 785 l 679 0 l 515 0 l 515 307 q 344 240 451 240 q 88 521 88 240 l 88 785 l -37 785 l -37 917 l 826 917 m 515 525 l 515 785 l 251 785 l 251 515 q 281 405 251 439 q 372 371 311 371 q 474 412 433 371 q 515 525 515 453 z "},"फ":{"ha":1144,"x_min":-37,"x_max":1182,"o":"m 1182 785 l 679 785 l 679 626 q 851 686 743 686 q 1028 611 960 686 q 1097 413 1097 536 q 1015 218 1097 290 q 806 146 932 146 q 772 147 782 146 l 772 281 q 796 278 786 278 q 898 315 861 278 q 935 415 935 351 q 901 517 935 479 q 812 556 868 556 q 717 518 756 556 q 679 418 679 481 l 679 0 l 515 0 l 515 307 q 344 242 450 242 q 88 519 88 242 l 88 785 l -37 785 l -37 917 l 1182 917 l 1182 785 m 515 525 l 515 785 l 251 785 l 251 515 q 281 406 251 439 q 372 372 311 372 q 474 413 433 372 q 515 525 515 453 z "},"ब":{"ha":869,"x_min":-37,"x_max":907,"o":"m 907 917 l 907 785 l 760 785 l 760 0 l 596 0 l 596 199 q 375 107 508 107 q 151 190 242 107 q 60 403 60 274 q 147 617 60 532 q 375 701 233 701 q 488 689 439 701 l 488 547 q 393 563 443 563 q 314 549 343 563 l 569 325 q 596 413 596 364 l 596 785 l -37 785 l -37 917 l 907 917 m 250 497 q 222 391 222 457 q 269 280 222 325 q 385 235 315 235 q 508 267 454 235 l 250 497 z "},"भ":{"ha":801,"x_min":-4,"x_max":839,"o":"m 532 508 l 532 917 l 839 917 l 839 785 l 692 785 l 692 0 l 532 0 l 532 378 l 297 378 l 297 197 l 156 197 l 111 293 q 74 417 74 372 q 136 501 74 486 l 136 714 q 72 789 136 789 q -4 769 32 789 l -4 897 q 107 924 43 924 q 297 736 297 924 l 297 508 l 532 508 z "},"म":{"ha":806,"x_min":-37,"x_max":843,"o":"m 536 785 l 290 785 l 290 504 l 536 504 l 536 785 m -37 785 l -37 917 l 843 917 l 843 785 l 696 785 l 696 0 l 536 0 l 536 372 l 290 372 l 290 196 l 151 196 l 107 294 q 68 421 68 382 q 129 496 68 481 l 129 785 l -37 785 z "},"य":{"ha":876,"x_min":-37,"x_max":914,"o":"m 233 432 q 298 336 250 372 q 424 300 346 300 q 553 349 503 300 q 604 489 604 397 l 604 785 l 393 785 q 425 663 425 738 q 233 432 425 493 m 392 157 q 160 252 257 157 q 43 517 64 347 q 264 669 264 551 q 222 785 264 740 l -37 785 l -37 917 l 914 917 l 914 785 l 767 785 l 767 0 l 604 0 l 604 249 q 519 182 576 207 q 392 157 463 157 z "},"र":{"ha":557,"x_min":-37,"x_max":594,"o":"m 47 497 l 147 497 q 290 613 290 497 l 290 785 l -37 785 l -37 917 l 594 917 l 594 785 l 453 785 l 453 603 q 401 447 453 507 q 256 375 349 386 q 236 372 247 372 l 525 0 l 329 0 l 47 368 l 47 497 z "},"ऱ":{"ha":557,"x_min":-49,"x_max":594,"o":"m 47 497 l 147 497 q 290 613 290 497 l 290 785 l -37 785 l -37 917 l 594 917 l 594 785 l 453 785 l 453 603 q 401 447 453 507 q 256 375 349 386 q 236 372 247 372 l 525 0 l 329 0 l 47 368 l 47 497 m -22 -34 q -35 -20 -22 -34 q -49 32 -49 -7 q -22 98 -49 71 q 44 125 6 125 q 111 98 83 125 q 139 32 139 71 q 111 -34 139 -7 q 44 -61 83 -61 q -22 -34 6 -61 z "},"ल":{"ha":1043,"x_min":-37,"x_max":1081,"o":"m 1081 917 l 1081 785 l 933 785 l 933 0 l 768 0 l 768 536 q 725 540 747 540 q 624 503 657 540 q 590 386 590 467 l 590 293 l 426 293 l 426 389 q 331 525 426 525 q 250 485 281 525 q 219 353 219 446 q 276 198 219 260 q 446 136 332 136 q 497 139 479 136 l 497 6 q 426 1 461 1 q 158 103 258 1 q 58 368 58 204 q 126 581 58 500 q 314 661 194 661 q 445 626 394 661 q 508 535 496 592 q 715 669 544 669 q 768 663 740 669 l 768 785 l -37 785 l -37 917 l 1081 917 z "},"ळ":{"ha":1113,"x_min":-37,"x_max":1150,"o":"m 1150 785 l 857 785 l 857 660 q 1006 567 950 636 q 1063 399 1063 497 q 979 199 1063 275 q 767 124 896 124 q 542 213 639 124 q 342 124 471 124 q 132 199 214 124 q 50 397 50 274 q 131 597 50 519 q 339 674 213 674 q 560 589 465 674 q 701 665 619 651 l 701 785 l -37 785 l -37 917 l 1150 917 l 1150 785 m 344 254 q 464 379 424 254 q 478 428 469 399 q 490 472 486 458 q 343 543 422 543 q 249 502 283 543 q 215 397 215 461 q 249 293 215 332 q 344 254 283 254 m 862 294 q 880 315 862 294 q 897 399 897 335 q 862 501 897 463 q 764 540 826 540 q 636 415 676 540 q 614 329 629 392 q 767 254 683 254 q 862 294 826 254 z "},"ऴ":{"ha":1113,"x_min":-37,"x_max":1150,"o":"m 1150 785 l 857 785 l 857 660 q 1006 567 950 636 q 1063 399 1063 497 q 979 199 1063 275 q 767 124 896 124 q 542 213 639 124 q 342 124 471 124 q 132 199 214 124 q 50 397 50 274 q 131 597 50 519 q 339 674 213 674 q 560 589 465 674 q 701 665 619 651 l 701 785 l -37 785 l -37 917 l 1150 917 l 1150 785 m 344 254 q 464 379 424 254 q 478 428 469 399 q 490 472 486 458 q 343 543 422 543 q 249 502 283 543 q 215 397 215 461 q 249 293 215 332 q 344 254 283 254 m 862 294 q 880 315 862 294 q 897 399 897 335 q 862 501 897 463 q 764 540 826 540 q 636 415 676 540 q 614 329 629 392 q 767 254 683 254 q 862 294 826 254 m 237 -13 q 250 0 237 -13 q 303 14 264 14 q 369 -13 342 14 q 397 -79 397 -40 q 370 -145 397 -118 q 303 -172 343 -172 q 237 -145 264 -172 q 210 -79 210 -118 q 237 -13 210 -40 z "},"व":{"ha":822,"x_min":-37,"x_max":860,"o":"m 860 917 l 860 785 l 713 785 l 713 0 l 549 0 l 549 200 q 347 122 471 122 q 140 197 224 122 q 56 397 56 271 q 138 603 56 522 q 351 685 219 685 q 446 674 404 685 l 446 532 q 364 544 399 544 q 260 506 301 544 q 219 401 219 468 q 261 293 219 333 q 374 253 303 253 q 497 301 444 253 q 549 415 549 349 l 549 785 l -37 785 l -37 917 l 860 917 z "},"श":{"ha":972,"x_min":42,"x_max":1010,"o":"m 699 917 l 1010 917 l 1010 785 l 863 785 l 863 0 l 699 0 l 699 917 m 88 708 q 151 860 88 797 q 328 922 215 922 q 512 848 440 922 q 583 660 583 774 q 479 423 583 506 q 236 340 375 340 l 233 340 l 558 0 l 349 0 l 42 335 l 42 472 l 190 472 q 361 522 300 472 q 422 661 422 571 q 324 786 422 786 q 265 760 285 786 q 244 694 244 733 q 267 611 244 656 l 110 611 q 88 708 88 656 z "},"ष":{"ha":832,"x_min":-37,"x_max":869,"o":"m 869 917 l 869 785 l 722 785 l 722 0 l 561 0 l 561 301 q 365 233 486 233 q 168 305 244 233 q 92 519 92 376 l 92 785 l -37 785 l -37 917 l 869 917 m 249 515 q 290 401 249 439 q 401 363 331 363 q 521 415 472 363 l 249 686 l 249 515 m 561 501 l 561 785 l 283 785 l 561 501 z "},"स":{"ha":922,"x_min":-37,"x_max":960,"o":"m 960 917 l 960 785 l 813 785 l 813 0 l 650 0 l 650 349 l 432 349 q 236 361 324 349 l 493 0 l 297 0 l 32 381 l 32 497 l 128 497 q 258 614 258 497 l 258 785 l -37 785 l -37 917 l 960 917 m 650 481 l 650 785 l 421 785 l 421 611 q 389 481 421 533 l 650 481 z "},"ह":{"ha":754,"x_min":-37,"x_max":792,"o":"m 649 567 l 301 567 q 240 519 240 567 q 288 439 240 472 q 411 453 347 453 q 605 394 532 453 q 678 251 678 336 q 664 172 678 201 l 504 172 q 521 237 521 199 q 491 297 521 275 q 394 319 461 319 q 285 288 328 319 q 242 202 242 256 q 292 113 242 149 q 434 78 343 78 q 636 104 525 78 l 636 -31 q 443 -54 528 -54 q 173 24 267 -54 q 79 209 79 103 q 169 385 79 315 q 74 539 74 440 q 128 654 74 614 q 271 694 183 694 l 488 694 l 488 785 l -37 785 l -37 917 l 792 917 l 792 785 l 649 785 l 649 567 z "},"़":{"ha":0,"x_min":-483,"x_max":-296,"o":"m -456 -248 q -470 -234 -456 -248 q -483 -182 -483 -221 q -456 -115 -483 -143 q -390 -87 -429 -87 q -323 -115 -350 -87 q -296 -181 -296 -142 q -324 -248 -296 -221 q -390 -275 -351 -275 q -456 -248 -429 -275 z "},"ऽ":{"ha":742,"x_min":67,"x_max":679,"o":"m 679 242 q 602 66 679 136 q 367 -4 525 -4 q 67 76 208 -4 l 67 246 q 215 174 129 204 q 372 144 301 144 q 477 172 443 144 q 511 241 511 199 q 466 324 511 283 q 356 404 421 365 q 227 487 292 443 q 117 592 163 531 q 72 733 72 653 q 133 865 72 813 q 301 917 193 917 l 635 917 l 635 768 l 319 768 q 249 711 249 768 q 293 639 249 676 q 401 563 338 601 q 527 481 464 525 q 635 375 590 438 q 679 242 679 313 z "},"ा":{"ha":382,"x_min":-37,"x_max":419,"o":"m -37 785 l -37 917 l 419 917 l 419 785 l 272 785 l 272 0 l 110 0 l 110 785 l -37 785 z "},"ि":{"ha":382,"x_min":-37,"x_max":925,"o":"m 925 1004 q 644 1101 790 1065 q 419 1138 497 1138 q 272 1010 272 1138 l 272 917 l 419 917 l 419 785 l 272 785 l 272 0 l 110 0 l 110 785 l -37 785 l -37 917 l 110 917 l 110 1013 q 187 1203 110 1131 q 393 1275 264 1275 q 644 1244 522 1275 q 925 1151 767 1213 l 925 1004 z "},"ी":{"ha":382,"x_min":-281,"x_max":419,"o":"m 271 917 l 419 917 l 419 785 l 272 785 l 272 0 l 110 0 l 110 785 l -37 785 l -37 917 l 108 917 l 108 1013 q 77 1101 108 1069 q -7 1132 46 1132 q -117 1013 -117 1132 l -117 982 l -281 982 l -281 1018 q -203 1207 -281 1143 q -6 1271 -125 1271 q 192 1208 113 1271 q 271 1019 271 1144 l 271 917 z "},"ु":{"ha":0,"x_min":-601,"x_max":47,"o":"m -219 -269 q -140 -247 -168 -269 q -111 -188 -111 -224 q -136 -134 -111 -153 q -212 -115 -161 -115 q -349 -156 -264 -115 l -349 -14 q -203 15 -265 15 q -18 -39 -83 15 q 47 -187 47 -93 q -23 -342 47 -281 q -208 -404 -93 -404 q -427 -355 -322 -404 q -601 -246 -532 -306 l -601 -65 q -423 -205 -531 -140 q -219 -269 -315 -269 z "},"ू":{"ha":0,"x_min":-432,"x_max":156,"o":"m -197 -385 q -366 -332 -300 -385 q -432 -187 -432 -279 q -368 -36 -432 -94 q -207 22 -304 22 q -37 -19 -110 22 q 75 -125 35 -60 q 156 -401 156 -253 l 4 -401 q -51 -196 4 -282 q -196 -110 -106 -110 q -254 -130 -232 -110 q -276 -183 -276 -150 q -250 -238 -276 -217 q -188 -260 -224 -260 q -122 -247 -153 -260 l -122 -372 q -197 -385 -156 -385 z "},"ृ":{"ha":0,"x_min":-465,"x_max":-94,"o":"m -226 -421 q -399 -362 -332 -421 q -465 -217 -465 -304 q -412 -76 -465 -129 q -272 -14 -360 -24 l -272 15 l -110 15 l -110 -133 l -178 -133 q -307 -219 -307 -133 q -283 -275 -307 -254 q -203 -296 -258 -296 q -94 -261 -147 -296 l -94 -387 q -226 -421 -151 -421 z "},"ॅ":{"ha":0,"x_min":-479,"x_max":96,"o":"m 96 1267 q 14 1087 96 1153 q -195 1021 -68 1021 q -401 1083 -322 1021 q -479 1267 -479 1146 l -321 1267 q -287 1175 -321 1210 q -191 1140 -254 1140 q -95 1175 -128 1140 q -62 1267 -62 1210 l 96 1267 z "},"ॆ":{"ha":0,"x_min":-672,"x_max":-110,"o":"m -394 1150 l -344 1150 q -110 911 -110 1150 l -272 911 q -292 993 -274 968 q -360 1018 -311 1018 l -412 1018 q -614 1079 -556 1018 q -672 1256 -672 1139 l -508 1256 q -483 1172 -508 1193 q -394 1150 -458 1150 z "},"े":{"ha":0,"x_min":-582,"x_max":-104,"o":"m -500 1131 q -582 1118 -539 1131 l -582 1256 q -487 1265 -524 1265 q -256 1139 -336 1264 l -104 907 l -279 907 l -387 1067 q -500 1131 -428 1131 z "},"ै":{"ha":0,"x_min":-633,"x_max":-108,"o":"m -554 1003 q -633 992 -596 1003 l -633 1115 q -536 1126 -589 1126 q -425 1096 -483 1126 q -239 954 -358 1061 l -367 1110 q -539 1197 -439 1197 q -633 1185 -589 1197 l -633 1311 q -529 1322 -596 1322 q -269 1167 -365 1322 l -108 907 l -303 907 q -554 1003 -453 1003 z "},"ॉ":{"ha":382,"x_min":-103,"x_max":472,"o":"m 472 1267 q 390 1087 472 1153 q 181 1021 308 1021 q -24 1083 54 1021 q -103 1267 -103 1146 l 56 1267 q 89 1175 56 1210 q 185 1140 122 1140 q 281 1175 249 1140 q 314 1267 314 1210 l 472 1267 m -37 785 l -37 917 l 419 917 l 419 785 l 272 785 l 272 0 l 110 0 l 110 785 l -37 785 z "},"ॊ":{"ha":381,"x_min":-290,"x_max":418,"o":"m 418 917 l 418 785 l 271 785 l 271 0 l 110 0 l 110 785 l -37 785 l -37 917 l 110 917 q 89 994 107 971 q 22 1018 71 1018 l -31 1018 q -233 1079 -174 1018 q -290 1256 -290 1139 l -126 1256 q -101 1172 -126 1193 q -12 1150 -76 1150 l 38 1150 q 272 917 269 1150 l 418 917 z "},"ो":{"ha":381,"x_min":-200,"x_max":418,"o":"m 418 917 l 418 785 l 271 785 l 271 0 l 110 0 l 110 785 l -37 785 l -37 917 l 96 917 l -6 1067 q -118 1131 -46 1131 q -200 1118 -156 1131 l -200 1256 q -106 1265 -142 1265 q 126 1139 46 1264 l 271 917 l 418 917 z "},"ौ":{"ha":382,"x_min":-250,"x_max":419,"o":"m 419 917 l 419 785 l 272 785 l 272 0 l 110 0 l 110 785 l -37 785 l -37 917 l 65 917 q -171 1003 -71 1003 q -250 992 -212 1003 l -250 1115 q -153 1126 -206 1126 q -42 1096 -100 1126 q 144 954 25 1061 l 17 1110 q -156 1197 -56 1197 q -250 1185 -206 1197 l -250 1311 q -146 1322 -212 1322 q 114 1167 18 1322 l 269 917 l 419 917 z "},"्":{"ha":0,"x_min":-262,"x_max":101,"o":"m 101 -331 l -94 -331 l -262 -92 l -97 -92 l 101 -331 z "},"ॐ":{"ha":1717,"x_min":143,"x_max":1600,"o":"m 1265 958 q 1179 778 1265 843 q 964 713 1093 713 q 753 775 835 713 q 671 958 671 838 l 829 958 q 867 866 829 901 q 969 831 906 831 q 1070 866 1033 831 q 1107 958 1107 901 l 1265 958 m 969 947 q 950 947 969 947 q 907 972 932 947 q 882 1034 882 997 q 907 1097 882 1071 q 969 1122 932 1122 q 1031 1097 1006 1122 q 1057 1034 1057 1071 q 1031 972 1057 997 q 969 947 1006 947 m 851 75 q 676 178 733 75 q 574 50 651 101 q 394 -1 497 -1 q 143 58 253 -1 l 143 211 q 389 136 265 136 q 494 170 454 136 q 533 261 533 204 q 388 365 533 365 l 289 365 l 289 497 l 333 497 q 450 533 414 497 q 486 619 486 568 q 456 699 486 669 q 372 729 425 729 q 178 667 263 729 l 178 806 q 385 864 261 864 q 580 801 510 864 q 650 636 650 738 q 620 528 650 575 q 542 458 590 481 q 694 356 636 449 q 770 251 742 275 q 835 228 799 228 q 906 263 871 228 q 974 348 940 297 q 1040 451 1007 399 q 1088 528 1072 504 q 1136 590 1104 551 q 1194 647 1168 629 q 1333 694 1261 694 q 1527 610 1454 694 q 1600 390 1600 526 q 1523 159 1600 254 q 1317 64 1446 64 q 1182 89 1243 64 l 1182 231 q 1297 199 1231 199 q 1401 250 1364 199 q 1439 378 1439 301 q 1414 499 1439 456 q 1344 543 1389 543 q 1258 493 1299 543 q 1085 235 1217 443 q 851 75 985 75 z "},"॑":{"ha":0,"x_min":-250,"x_max":-119,"o":"m -250 1321 l -119 1321 l -119 981 l -250 981 l -250 1321 z "},"॒":{"ha":0,"x_min":-742,"x_max":-96,"o":"m -96 -322 l -742 -322 l -742 -197 l -96 -197 l -96 -322 z "},"॓":{"ha":0,"x_min":-425,"x_max":-106,"o":"m -425 1240 l -324 1324 l -106 1061 l -206 978 l -425 1240 z "},"॔":{"ha":0,"x_min":-290,"x_max":29,"o":"m -71 1324 l 29 1240 l -189 978 l -290 1061 l -71 1324 z "},"क़":{"ha":1104,"x_min":-37,"x_max":1142,"o":"m 1142 785 l 633 785 l 633 614 q 786 674 697 674 q 981 600 907 674 q 1054 405 1054 526 q 970 208 1054 283 q 758 133 886 133 q 726 135 736 133 l 726 267 q 751 265 735 265 q 852 305 814 265 q 890 405 890 344 q 855 504 890 465 q 763 543 819 543 q 669 505 706 543 q 633 407 633 467 l 633 0 l 469 0 l 469 178 q 317 119 407 119 q 123 193 197 119 q 49 388 49 267 q 133 585 49 510 q 344 660 217 660 q 376 658 365 660 l 376 526 q 351 528 368 528 q 251 488 289 528 q 213 388 213 449 q 248 289 213 328 q 340 250 283 250 q 433 288 397 250 q 469 386 469 326 l 469 785 l -37 785 l -37 917 l 1142 917 l 1142 785 m 139 -67 q 139 -47 139 -67 q 166 0 139 -28 q 233 28 193 28 q 299 0 272 28 q 326 -67 326 -28 q 299 -133 326 -106 q 232 -160 271 -160 q 166 -133 193 -160 q 139 -67 139 -106 z "},"ख़":{"ha":1136,"x_min":-37,"x_max":1174,"o":"m 1174 917 l 1174 785 l 1026 785 l 1026 0 l 863 0 l 863 207 q 708 161 804 161 q 542 231 613 161 q 471 411 471 301 q 544 590 471 521 q 728 660 618 660 q 776 654 751 660 l 776 532 q 749 535 769 535 q 659 499 693 535 q 625 407 625 463 q 658 318 625 351 q 744 285 692 285 q 829 316 796 285 q 863 406 863 347 l 863 785 l 453 785 l 453 603 q 400 447 453 507 q 238 371 340 381 l 528 0 l 331 0 l 47 368 l 47 497 l 147 497 q 290 614 290 497 l 290 785 l -37 785 l -37 917 l 1174 917 m 28 -72 q 28 -53 28 -72 q 55 -6 28 -33 q 122 22 82 22 q 188 -6 161 22 q 215 -72 215 -33 q 188 -138 215 -111 q 121 -165 160 -165 q 55 -138 82 -165 q 28 -72 28 -111 z "},"ग़":{"ha":807,"x_min":-37,"x_max":844,"o":"m -37 917 l 844 917 l 844 785 l 697 785 l 697 0 l 536 0 l 536 785 l 349 785 l 349 478 q 297 333 349 382 q 170 285 244 285 q 42 304 96 285 l 42 436 q 117 418 76 418 q 186 492 186 418 l 186 785 l -37 785 l -37 917 m 117 31 q 117 50 117 31 q 144 97 117 69 q 210 125 171 125 q 277 97 250 125 q 304 31 304 69 q 276 -35 304 -8 q 210 -62 249 -62 q 144 -35 171 -62 q 117 31 117 -8 z "},"ज़":{"ha":910,"x_min":-37,"x_max":949,"o":"m -37 917 l 949 917 l 949 785 l 800 785 l 800 0 l 636 0 l 636 503 l 408 503 q 497 331 497 447 q 420 147 497 214 q 231 81 343 81 q 42 111 119 81 l 42 256 q 184 219 110 219 q 300 253 258 219 q 342 356 342 288 q 286 463 342 424 q 126 503 231 503 l 126 638 l 636 638 l 636 785 l -37 785 l -37 917 m 165 -50 q 178 -36 165 -50 q 231 -22 192 -22 q 297 -50 269 -22 q 325 -117 325 -78 q 297 -183 325 -156 q 231 -210 269 -210 q 165 -183 192 -210 q 138 -117 138 -156 q 165 -50 138 -78 z "},"ड़":{"ha":735,"x_min":-37,"x_max":772,"o":"m 583 785 l 583 572 l 311 572 q 224 506 224 572 q 263 453 224 467 q 394 438 303 439 q 661 232 661 433 q 576 65 660 131 q 340 0 493 0 q 64 67 186 0 l 64 219 q 350 135 203 135 q 460 159 421 135 q 499 226 499 183 q 463 284 499 268 q 322 302 426 300 q 140 351 217 304 q 63 499 63 397 q 135 652 63 601 q 311 703 207 703 l 422 703 l 422 785 l -37 785 l -37 917 l 772 917 l 772 785 l 583 785 m 276 -119 q 289 -106 276 -119 q 342 -92 303 -92 q 408 -119 381 -92 q 436 -186 436 -147 q 408 -252 436 -225 q 342 -279 381 -279 q 276 -252 303 -279 q 249 -186 249 -225 q 276 -119 249 -147 z "},"ढ़":{"ha":779,"x_min":-37,"x_max":817,"o":"m 369 404 q 519 435 433 435 q 663 385 604 435 q 721 242 721 335 q 639 84 721 149 q 407 19 557 19 q 156 111 257 19 q 54 349 54 203 q 160 579 54 496 q 433 665 265 663 l 465 665 l 465 785 l -37 785 l -37 917 l 817 917 l 817 785 l 628 785 l 628 524 q 486 538 551 538 q 294 488 369 538 q 219 351 219 439 q 276 206 219 263 q 422 150 333 150 q 524 176 483 150 q 564 239 564 201 q 476 315 564 315 q 369 285 417 315 l 369 404 m 338 -248 q 325 -234 338 -248 q 311 -182 311 -221 q 338 -115 311 -143 q 405 -87 365 -87 q 472 -115 444 -87 q 499 -181 499 -142 q 471 -248 499 -221 q 404 -275 443 -275 q 338 -248 365 -275 z "},"फ़":{"ha":1144,"x_min":-37,"x_max":1182,"o":"m 1182 785 l 679 785 l 679 626 q 851 686 743 686 q 1028 611 960 686 q 1097 413 1097 536 q 1015 218 1097 290 q 806 146 932 146 q 772 147 782 146 l 772 281 q 796 278 786 278 q 898 315 861 278 q 935 415 935 351 q 901 517 935 479 q 812 556 868 556 q 717 518 756 556 q 679 418 679 481 l 679 0 l 515 0 l 515 307 q 344 242 450 242 q 88 519 88 242 l 88 785 l -37 785 l -37 917 l 1182 917 l 1182 785 m 515 525 l 515 785 l 251 785 l 251 515 q 281 406 251 439 q 372 372 311 372 q 474 413 433 372 q 515 525 515 453 m 106 31 q 106 50 106 31 q 133 97 106 69 q 199 125 160 125 q 266 97 239 125 q 293 31 293 69 q 265 -35 293 -8 q 199 -62 238 -62 q 133 -35 160 -62 q 106 31 106 -8 z "},"य़":{"ha":876,"x_min":-37,"x_max":914,"o":"m 134 -88 q 120 -75 134 -88 q 107 -22 107 -61 q 134 44 107 17 q 200 72 161 72 q 267 44 239 72 q 294 -22 294 17 q 267 -88 294 -61 q 200 -115 239 -115 q 134 -88 161 -115 m 233 432 q 298 336 250 372 q 424 300 346 300 q 553 349 503 300 q 604 489 604 397 l 604 785 l 393 785 q 425 663 425 738 q 233 432 425 493 m 392 157 q 160 252 257 157 q 43 517 64 347 q 264 669 264 551 q 222 785 264 740 l -37 785 l -37 917 l 914 917 l 914 785 l 767 785 l 767 0 l 604 0 l 604 249 q 519 182 576 207 q 392 157 463 157 z "},"ॠ":{"ha":1074,"x_min":-37,"x_max":1111,"o":"m 632 785 l 632 501 l 746 560 l 746 674 l 901 674 l 901 604 q 921 494 901 543 q 964 419 940 446 q 1028 279 1025 350 q 968 121 1031 172 q 794 69 906 69 q 729 75 761 69 l 731 215 q 778 208 756 208 q 871 288 871 206 q 858 330 871 310 q 822 376 844 350 q 788 424 800 403 l 632 344 l 632 0 l 472 0 l 472 289 l 74 88 l 74 250 l 314 367 q 261 484 300 444 q 151 524 222 524 q 68 507 111 524 l 68 653 q 167 667 117 667 q 443 429 394 667 l 472 444 l 472 785 l -37 785 l -37 917 l 1111 917 l 1111 785 l 632 785 z "},"ॡ":{"ha":1139,"x_min":-33,"x_max":1132,"o":"m 985 785 l 985 432 q 960 330 985 376 q 906 257 936 283 q 828 136 828 188 q 852 88 828 106 q 917 71 876 71 l 981 71 l 981 -61 l 883 -61 q 825 -83 846 -61 q 804 -137 804 -104 q 827 -195 804 -171 q 897 -219 850 -219 q 1028 -183 943 -219 l 1028 -326 q 889 -353 964 -353 q 708 -292 778 -353 q 638 -135 638 -232 q 721 14 638 -39 q 665 135 665 60 q 719 256 665 201 q 767 303 743 279 q 821 432 821 357 l 821 574 l 746 574 q 640 537 672 574 q 608 413 608 500 l 608 318 l 446 318 l 446 413 q 336 576 446 576 q 242 531 278 576 q 207 400 207 485 q 433 124 207 168 l 431 -12 q 147 124 250 18 q 43 403 43 229 q 119 622 43 536 q 331 707 194 707 q 528 615 468 707 q 739 704 583 704 l 821 704 l 821 785 l -33 785 l -33 917 l 1132 917 l 1132 785 l 985 785 z "},"।":{"ha":592,"x_min":269,"x_max":433,"o":"m 269 0 l 269 917 l 433 917 l 433 0 l 269 0 z "},"॥":{"ha":921,"x_min":269,"x_max":763,"o":"m 599 0 l 599 917 l 763 917 l 763 0 l 599 0 m 269 0 l 269 917 l 433 917 l 433 0 l 269 0 z "},"०":{"ha":756,"x_min":51,"x_max":704,"o":"m 264 692 q 243 652 264 692 q 222 458 222 611 q 263 223 222 306 q 378 140 304 140 q 492 222 451 140 q 533 458 533 304 q 491 693 533 613 q 377 774 449 774 q 264 692 306 774 m 378 -11 q 300 -11 378 -11 q 136 117 221 -11 q 51 459 51 244 q 136 799 51 674 q 377 925 221 925 q 619 799 533 925 q 704 459 704 674 q 620 117 704 244 q 378 -11 536 -11 z "},"१":{"ha":542,"x_min":58,"x_max":446,"o":"m 446 908 l 446 0 l 279 0 l 279 728 l 58 593 l 58 767 l 297 908 l 446 908 z "},"२":{"ha":711,"x_min":58,"x_max":651,"o":"m 651 143 l 651 0 l 58 0 l 58 133 q 339 380 221 249 q 457 617 457 511 q 416 725 457 686 q 299 764 375 764 q 78 678 186 764 l 78 840 q 192 897 124 875 q 328 919 261 919 q 546 847 461 919 q 631 642 631 774 q 289 143 631 396 l 651 143 z "},"३":{"ha":683,"x_min":67,"x_max":625,"o":"m 297 919 q 522 849 440 919 q 604 672 604 779 q 461 458 604 515 q 582 385 539 439 q 625 250 625 332 q 540 65 625 136 q 309 -7 456 -7 q 67 39 163 -7 l 67 201 q 293 143 172 143 q 412 178 369 143 q 454 269 454 214 q 257 390 454 390 l 204 390 l 204 531 l 257 531 q 382 563 332 531 q 432 653 432 594 q 289 769 432 769 q 99 711 193 769 l 99 868 q 297 919 193 919 z "},"४":{"ha":799,"x_min":60,"x_max":750,"o":"m 750 347 l 750 204 l 631 204 l 631 0 l 464 0 l 464 204 l 60 204 l 60 347 l 363 910 l 631 910 l 631 347 l 750 347 m 464 347 l 464 804 l 225 347 l 464 347 z "},"५":{"ha":722,"x_min":75,"x_max":664,"o":"m 281 767 l 281 567 q 358 575 321 575 q 584 500 504 575 q 664 291 664 425 q 572 74 664 157 q 326 -10 481 -10 q 75 39 172 -10 l 75 199 q 288 143 167 143 q 492 300 492 143 q 448 396 492 361 q 311 431 404 431 q 117 383 218 431 l 117 910 l 606 910 l 606 767 l 281 767 z "},"६":{"ha":757,"x_min":65,"x_max":706,"o":"m 511 778 q 335 703 403 778 q 246 513 267 629 q 443 586 326 586 q 633 506 560 586 q 706 292 706 426 q 622 67 706 157 q 396 -22 538 -22 q 149 95 232 -22 q 65 410 65 213 q 185 785 65 640 q 500 929 306 929 q 638 907 574 929 l 638 750 q 511 778 582 778 m 238 369 q 287 185 243 243 q 396 128 331 128 q 497 174 461 128 q 533 290 533 219 q 497 401 533 361 q 399 442 461 442 q 238 369 306 442 z "},"७":{"ha":686,"x_min":42,"x_max":644,"o":"m 42 910 l 644 910 l 644 765 l 283 0 l 107 0 l 469 765 l 42 765 l 42 910 z "},"८":{"ha":754,"x_min":58,"x_max":696,"o":"m 696 246 q 606 58 696 129 q 374 -12 515 -12 q 145 56 232 -12 q 58 239 58 124 q 200 456 58 393 q 72 649 72 518 q 159 851 72 779 q 376 922 246 922 q 593 855 507 922 q 679 656 679 788 q 554 460 679 524 q 696 246 696 401 m 510 656 q 510 686 510 656 q 478 751 510 715 q 378 786 447 786 q 276 749 310 786 q 242 653 242 711 q 281 563 242 596 q 377 531 319 531 q 472 564 435 531 q 510 656 510 597 m 226 247 q 226 221 226 247 q 264 159 226 194 q 376 124 301 124 q 489 160 450 124 q 528 252 528 197 q 489 344 528 307 q 375 382 450 381 q 264 340 301 381 q 226 247 226 300 z "},"९":{"ha":747,"x_min":60,"x_max":696,"o":"m 267 142 q 445 202 383 142 q 524 388 507 263 q 337 319 458 319 q 138 399 215 319 q 60 610 60 478 q 141 831 60 742 q 372 921 222 921 q 608 805 521 921 q 696 497 696 689 q 588 119 696 249 q 282 -11 479 -11 q 119 15 192 -11 l 119 175 q 267 142 194 142 m 376 458 q 528 532 468 458 q 481 709 522 649 q 373 769 439 769 q 269 726 307 769 q 232 613 232 683 q 271 500 232 542 q 376 458 310 458 z "},"॰":{"ha":661,"x_min":85,"x_max":579,"o":"m 332 546 q 309 546 332 546 q 254 513 286 546 q 222 435 222 481 q 254 358 222 390 q 332 325 286 325 q 410 358 378 325 q 442 435 442 390 q 410 513 442 481 q 332 546 378 546 m 332 188 q 281 188 332 188 q 158 260 231 188 q 85 435 85 333 q 157 610 85 538 q 332 682 229 682 q 507 610 435 682 q 579 435 579 538 q 506 260 579 333 q 332 188 433 188 z "},"ॽ":{"ha":826,"x_min":154,"x_max":656,"o":"m 154 928 q 376 978 247 978 q 580 913 504 978 q 656 733 656 849 q 619 606 656 668 q 541 501 583 544 q 463 394 499 458 q 426 260 426 329 l 426 0 l 267 0 l 267 274 q 301 424 267 353 q 375 536 335 494 q 485 715 485 647 q 451 802 485 769 q 353 835 418 835 q 154 768 253 835 l 154 928 z "},"Ẁ":{"ha":1331,"x_min":35,"x_max":1296,"o":"m 599 922 l 740 922 l 836 590 l 947 188 q 1033 592 982 381 l 1118 936 l 1296 936 l 1057 0 l 854 0 q 671 657 699 543 q 486 0 651 557 l 285 0 l 35 936 l 219 936 q 396 190 339 463 q 599 922 442 369 m 608 1239 l 735 1004 l 594 1004 l 433 1239 l 608 1239 z "},"ẁ":{"ha":1113,"x_min":18,"x_max":1094,"o":"m 240 0 l 18 704 l 192 704 q 331 160 311 269 q 411 472 344 244 l 479 704 l 631 704 q 779 158 761 260 q 861 472 793 240 l 928 704 l 1094 704 l 871 0 l 690 0 q 556 526 576 421 q 421 0 535 419 l 240 0 m 494 1007 l 621 772 l 481 772 l 319 1007 l 494 1007 z "},"Ẃ":{"ha":1331,"x_min":35,"x_max":1296,"o":"m 617 1004 l 743 1239 l 918 1239 l 757 1004 l 617 1004 m 599 922 l 740 922 l 836 590 l 947 188 q 1033 592 982 381 l 1118 936 l 1296 936 l 1057 0 l 854 0 q 671 657 699 543 q 486 0 651 557 l 285 0 l 35 936 l 219 936 q 396 190 339 463 q 599 922 442 369 z "},"ẃ":{"ha":1113,"x_min":18,"x_max":1094,"o":"m 497 772 l 624 1007 l 799 1007 l 638 772 l 497 772 m 240 0 l 18 704 l 192 704 q 331 160 311 269 q 411 472 344 244 l 479 704 l 631 704 q 779 158 761 260 q 861 472 793 240 l 928 704 l 1094 704 l 871 0 l 690 0 q 556 526 576 421 q 421 0 535 419 l 240 0 z "},"Ẅ":{"ha":1331,"x_min":35,"x_max":1296,"o":"m 502 1025 q 481 1025 502 1025 q 432 1053 460 1025 q 404 1122 404 1081 q 432 1190 404 1163 q 502 1218 460 1218 q 572 1190 544 1218 q 600 1122 600 1163 q 572 1053 600 1081 q 502 1025 544 1025 m 840 1025 q 818 1025 840 1025 q 769 1053 797 1025 q 740 1122 740 1081 q 769 1190 740 1163 q 840 1218 797 1218 q 910 1190 882 1218 q 938 1122 938 1163 q 910 1053 938 1081 q 840 1025 882 1025 m 599 922 l 740 922 l 836 590 l 947 188 q 1033 592 982 381 l 1118 936 l 1296 936 l 1057 0 l 854 0 q 671 657 699 543 q 486 0 651 557 l 285 0 l 35 936 l 219 936 q 396 190 339 463 q 599 922 442 369 z "},"ẅ":{"ha":1113,"x_min":18,"x_max":1094,"o":"m 387 793 q 366 793 387 793 q 317 821 344 793 q 289 890 289 849 q 317 958 289 931 q 387 986 344 986 q 457 958 429 986 q 485 890 485 931 q 457 821 485 849 q 387 793 429 793 m 724 793 q 703 793 724 793 q 653 821 682 793 q 625 890 625 849 q 653 958 625 931 q 724 986 682 986 q 794 958 767 986 q 822 890 822 931 q 794 821 822 849 q 724 793 767 793 m 240 0 l 18 704 l 192 704 q 331 160 311 269 q 411 472 344 244 l 479 704 l 631 704 q 779 158 761 260 q 861 472 793 240 l 928 704 l 1094 704 l 871 0 l 690 0 q 556 526 576 421 q 421 0 535 419 l 240 0 z "},"Ỳ":{"ha":867,"x_min":25,"x_max":842,"o":"m 519 0 l 344 0 l 344 342 l 25 936 l 229 936 q 431 482 397 572 q 574 800 443 533 l 638 936 l 842 936 l 519 347 l 519 0 m 513 1004 l 372 1004 l 211 1239 l 386 1239 l 513 1004 z "},"ỳ":{"ha":718,"x_min":8,"x_max":706,"o":"m 129 -262 q 60 -256 89 -262 l 60 -118 q 107 -124 82 -124 q 286 14 233 -124 l 8 704 l 193 704 q 368 206 351 268 q 531 704 372 221 l 706 704 l 451 19 q 129 -262 346 -262 m 311 1007 l 438 772 l 297 772 l 136 1007 l 311 1007 z "},"​":{"ha":0,"x_min":0,"x_max":0,"o":""},"‌":{"ha":0,"x_min":-32,"x_max":33,"o":"m 33 -319 l -32 -319 l -32 1126 l 33 1126 l 33 -319 z "},"‍":{"ha":0,"x_min":-176,"x_max":179,"o":"m 33 -319 l -32 -319 l -32 882 l -128 781 l -174 826 l -44 956 l -176 1088 l -131 1133 l 1 1001 l 135 1133 l 179 1089 l 46 956 l 179 824 l 133 778 l 33 882 l 33 -319 z "},"–":{"ha":763,"x_min":69,"x_max":694,"o":"m 69 310 l 69 438 l 694 438 l 694 310 l 69 310 z "},"—":{"ha":1154,"x_min":69,"x_max":1085,"o":"m 69 314 l 69 442 l 1085 442 l 1085 314 l 69 314 z "},"‘":{"ha":325,"x_min":29,"x_max":350,"o":"m 350 964 l 219 621 l 29 621 l 210 964 l 350 964 z "},"’":{"ha":325,"x_min":31,"x_max":351,"o":"m 31 621 l 161 964 l 351 964 l 172 621 l 31 621 z "},"‚":{"ha":325,"x_min":-6,"x_max":317,"o":"m -6 -175 l 126 168 l 317 168 l 136 -175 l -6 -175 z "},"“":{"ha":560,"x_min":29,"x_max":586,"o":"m 586 964 l 460 621 l 283 621 l 450 964 l 586 964 m 351 964 l 217 621 l 29 621 l 215 964 l 351 964 z "},"”":{"ha":560,"x_min":31,"x_max":588,"o":"m 31 621 l 157 964 l 332 964 l 167 621 l 31 621 m 265 621 l 400 964 l 588 964 l 401 621 l 265 621 z "},"„":{"ha":560,"x_min":0,"x_max":556,"o":"m 0 -175 l 126 168 l 301 168 l 136 -175 l 0 -175 m 235 -175 l 368 168 l 556 168 l 371 -175 l 235 -175 z "},"†":{"ha":758,"x_min":49,"x_max":710,"o":"m 710 717 l 710 578 l 451 578 l 451 0 l 301 0 l 301 578 l 49 578 l 49 717 l 301 717 l 301 936 l 451 936 l 451 717 l 710 717 z "},"‡":{"ha":788,"x_min":63,"x_max":725,"o":"m 725 578 l 467 578 l 467 364 l 725 364 l 725 225 l 467 225 l 467 0 l 317 0 l 317 225 l 63 225 l 63 364 l 317 364 l 317 578 l 63 578 l 63 717 l 317 717 l 317 936 l 467 936 l 467 717 l 725 717 l 725 578 z "},"•":{"ha":603,"x_min":118,"x_max":486,"o":"m 171 363 q 144 389 171 363 q 118 494 118 415 q 170 626 118 574 q 301 679 222 679 q 433 626 379 679 q 486 494 486 572 q 433 363 486 417 q 302 310 381 310 q 171 363 224 310 z "},"…":{"ha":1188,"x_min":71,"x_max":1117,"o":"m 933 21 q 917 37 933 21 q 901 97 901 53 q 933 173 901 142 q 1010 204 965 204 q 1085 173 1054 204 q 1117 97 1117 142 q 1085 21 1117 53 q 1010 -11 1054 -11 q 933 21 965 -11 m 518 21 q 502 37 518 21 q 486 97 486 53 q 518 173 486 142 q 594 204 550 204 q 670 173 639 204 q 701 97 701 142 q 670 21 701 53 q 594 -11 639 -11 q 518 21 550 -11 m 103 21 q 87 37 103 21 q 71 97 71 53 q 103 173 71 142 q 179 204 135 204 q 255 173 224 204 q 286 97 286 142 q 255 21 286 53 q 179 -11 224 -11 q 103 21 135 -11 z "},"‰":{"ha":1856,"x_min":63,"x_max":1803,"o":"m 1555 347 q 1532 347 1555 347 q 1478 315 1510 347 q 1446 237 1446 282 q 1478 159 1446 192 q 1555 126 1510 126 q 1633 159 1600 126 q 1665 237 1665 192 q 1633 315 1665 282 q 1555 347 1600 347 m 1381 61 q 1344 97 1381 61 q 1308 236 1308 133 q 1381 411 1308 339 q 1556 483 1453 483 q 1731 411 1658 483 q 1803 236 1803 339 q 1731 61 1803 133 q 1556 -11 1658 -11 q 1381 61 1453 -11 m 972 347 q 949 347 972 347 q 894 315 926 347 q 861 237 861 282 q 894 159 861 192 q 972 126 926 126 q 1049 159 1017 126 q 1082 237 1082 192 q 1049 315 1082 282 q 972 347 1017 347 m 310 840 q 287 840 310 840 q 232 808 264 840 q 200 730 200 775 q 232 652 200 685 q 310 619 264 619 q 388 652 356 619 q 419 730 419 685 q 388 808 419 775 q 310 840 356 840 m 310 482 q 259 482 310 482 q 135 555 208 482 q 63 730 63 628 q 135 904 63 832 q 310 976 207 976 q 485 904 413 976 q 557 730 557 832 q 484 555 557 628 q 310 482 411 482 m 797 61 q 760 97 797 61 q 724 236 724 133 q 797 411 724 339 q 971 483 869 483 q 1145 411 1072 483 q 1218 236 1218 339 q 1145 61 1218 133 q 971 -11 1072 -11 q 797 61 869 -11 m 301 -1 l 817 960 l 971 960 l 454 -1 l 301 -1 z "},"‹":{"ha":478,"x_min":38,"x_max":425,"o":"m 425 576 l 222 351 l 425 126 l 249 126 l 38 351 l 249 576 l 425 576 z "},"›":{"ha":476,"x_min":53,"x_max":440,"o":"m 229 576 l 440 351 l 229 126 l 53 126 l 256 351 l 53 576 l 229 576 z "},"⁄":{"ha":392,"x_min":15,"x_max":321,"o":"m 321 692 l 94 297 l 15 297 l 242 692 l 321 692 z "},"⁴":{"ha":553,"x_min":49,"x_max":507,"o":"m 507 775 l 507 676 l 428 676 l 428 546 l 314 546 l 314 676 l 49 676 l 49 775 l 249 1146 l 428 1146 l 428 775 l 507 775 m 314 775 l 314 1067 l 160 775 l 314 775 z "},"€":{"ha":847,"x_min":63,"x_max":792,"o":"m 615 761 q 383 614 450 761 l 643 614 l 643 506 l 354 506 q 350 452 350 476 q 353 397 350 428 l 643 397 l 643 290 l 381 290 q 471 182 411 219 q 622 144 531 144 q 792 200 714 144 l 792 32 q 578 -11 710 -11 q 341 70 446 -11 q 194 290 236 151 l 63 290 l 63 397 l 175 397 q 174 440 174 414 q 176 506 174 467 l 63 506 l 63 614 l 196 614 q 343 839 236 758 q 582 919 450 919 q 792 875 714 919 l 792 707 q 615 761 718 761 z "},"₹":{"ha":767,"x_min":86,"x_max":706,"o":"m 706 807 l 489 807 q 553 699 536 760 l 706 699 l 706 569 l 563 569 q 477 400 549 464 q 283 325 406 336 l 554 0 l 343 0 l 86 324 l 86 458 l 213 458 q 393 569 368 458 l 86 569 l 86 699 l 386 699 q 210 807 346 807 l 86 807 l 86 936 l 706 936 l 706 807 z "},"™":{"ha":1015,"x_min":10,"x_max":983,"o":"m 10 838 l 10 936 l 357 936 l 357 838 l 240 838 l 240 460 l 128 460 l 128 838 l 10 838 m 857 808 q 803 638 843 743 l 739 467 l 639 467 q 526 808 547 725 q 526 638 533 739 l 514 460 l 403 460 l 442 936 l 568 936 l 667 672 q 688 594 681 628 q 813 936 708 667 l 939 936 l 983 460 l 872 460 q 854 731 854 693 q 857 808 854 768 z "},"Ω":{"ha":1092,"x_min":67,"x_max":1025,"o":"m 1025 144 l 1025 0 l 608 0 l 608 144 q 746 256 700 165 q 792 485 792 346 q 728 708 792 625 q 547 792 664 792 q 365 708 429 792 q 301 486 301 624 q 348 258 301 349 q 483 144 394 167 l 483 0 l 67 0 l 67 144 l 260 144 q 114 476 114 260 q 230 823 114 693 q 547 953 346 953 q 864 824 749 953 q 979 476 979 694 q 832 144 979 258 l 1025 144 z "},"∂":{"ha":747,"x_min":51,"x_max":681,"o":"m 681 396 q 596 96 681 204 q 362 -12 511 -12 q 132 76 213 -12 q 51 298 51 164 q 135 514 51 432 q 326 596 219 596 q 503 540 433 596 q 370 762 464 658 q 161 936 276 865 l 393 936 q 598 694 515 847 q 681 396 681 540 m 222 294 q 222 259 222 294 q 259 181 222 224 q 365 138 296 138 q 478 199 433 138 q 525 385 522 261 q 365 451 463 451 q 263 408 303 451 q 222 294 222 365 z "},"∆":{"ha":913,"x_min":47,"x_max":867,"o":"m 867 0 l 47 0 l 47 122 l 346 936 l 572 936 l 867 122 l 867 0 m 233 143 l 679 143 l 457 807 l 233 143 z "},"∏":{"ha":871,"x_min":-33,"x_max":776,"o":"m 776 936 l 776 -250 l 600 -250 l 600 785 l 301 785 l 301 35 q 63 -257 301 -257 q -33 -240 11 -257 l -33 -86 q 42 -104 0 -104 q 125 29 125 -104 l 125 936 l 776 936 z "},"∑":{"ha":650,"x_min":42,"x_max":678,"o":"m 678 936 l 678 792 l 229 792 l 446 339 l 228 -133 l 678 -133 l 678 -278 l 42 -278 l 42 -133 l 263 339 l 42 792 l 42 936 l 678 936 z "},"−":{"ha":800,"x_min":69,"x_max":731,"o":"m 69 397 l 69 546 l 731 546 l 731 397 l 69 397 z "},"∕":{"ha":944,"x_min":307,"x_max":613,"o":"m 613 692 l 386 297 l 307 297 l 533 692 l 613 692 z "},"∙":{"ha":400,"x_min":92,"x_max":308,"o":"m 124 392 q 108 408 124 392 q 92 468 92 424 q 124 544 92 513 q 200 576 156 576 q 276 544 244 576 q 308 468 308 513 q 276 392 308 424 q 200 360 244 360 q 124 392 156 360 z "},"√":{"ha":1108,"x_min":40,"x_max":1172,"o":"m 360 619 q 547 61 522 143 q 596 -112 590 -78 q 689 253 626 46 q 996 1254 822 682 l 1172 1254 l 697 -268 l 492 -268 l 218 486 l 40 486 l 74 619 l 360 619 z "},"∞":{"ha":1156,"x_min":65,"x_max":1090,"o":"m 828 372 q 856 372 828 372 q 912 400 883 372 q 940 476 940 428 q 911 556 940 525 q 831 586 882 586 q 668 474 747 586 q 718 424 699 442 q 828 372 774 372 m 315 238 q 130 299 194 238 q 65 471 65 361 q 135 647 65 581 q 321 714 204 714 q 460 677 401 714 q 578 574 519 640 q 840 717 694 717 q 1024 654 958 717 q 1090 483 1090 592 q 1020 308 1090 375 q 835 240 950 240 q 576 379 694 240 q 513 312 542 338 q 430 262 483 286 q 315 238 376 238 m 242 553 q 227 539 242 553 q 213 476 213 525 q 243 398 213 428 q 326 368 274 368 q 486 479 411 368 q 439 528 458 510 q 388 565 419 547 q 315 582 357 582 q 242 553 272 582 z "},"≈":{"ha":833,"x_min":44,"x_max":785,"o":"m 575 504 q 419 543 506 504 q 292 582 333 582 q 151 500 214 582 l 44 586 q 261 721 140 721 q 427 682 340 721 q 549 643 514 643 q 676 721 618 643 l 785 636 q 575 504 697 504 m 575 224 q 419 262 506 224 q 292 300 333 300 q 151 219 213 300 l 44 306 q 261 439 142 439 q 427 401 340 439 q 549 363 514 363 q 676 440 618 363 l 785 354 q 575 224 699 224 z "},"≠":{"ha":800,"x_min":69,"x_max":731,"o":"m 731 558 l 486 558 l 407 388 l 731 388 l 731 251 l 344 251 l 292 136 l 197 136 l 250 251 l 69 251 l 69 388 l 314 388 l 393 558 l 69 558 l 69 693 l 456 693 l 508 808 l 601 808 l 549 693 l 731 693 l 731 558 z "},"≤":{"ha":793,"x_min":63,"x_max":724,"o":"m 724 807 l 724 660 l 158 574 l 724 488 l 724 340 l 63 467 l 63 682 l 724 807 m 63 135 l 63 271 l 724 271 l 724 135 l 63 135 z "},"≥":{"ha":793,"x_min":69,"x_max":731,"o":"m 69 807 l 731 682 l 731 467 l 69 340 l 69 488 l 635 574 l 69 660 l 69 807 m 69 135 l 69 271 l 731 271 l 731 135 l 69 135 z "},"◊":{"ha":818,"x_min":53,"x_max":765,"o":"m 497 936 l 765 468 l 497 0 l 317 0 l 53 468 l 317 936 l 497 936 m 549 388 l 594 468 q 408 804 447 728 q 271 549 368 718 l 226 468 q 408 132 378 194 q 549 388 449 218 z "},"◌":{"ha":974,"x_min":100,"x_max":894,"o":"m 413 749 q 405 758 413 749 q 396 793 396 767 q 413 837 396 819 q 457 854 431 854 q 501 837 483 854 q 518 793 518 819 q 501 749 518 767 q 457 732 483 732 q 413 749 431 732 m 633 711 q 620 711 633 711 q 589 729 607 711 q 571 774 571 747 q 588 817 571 800 q 633 835 606 835 q 676 817 660 835 q 693 774 693 800 q 676 729 693 747 q 633 711 658 711 m 720 634 q 711 643 720 634 q 703 678 703 651 q 720 722 703 704 q 764 740 738 740 q 808 723 790 740 q 825 678 825 706 q 808 634 825 651 q 764 617 790 617 q 720 634 738 617 m 789 469 q 781 478 789 469 q 772 514 772 486 q 789 558 772 542 q 833 575 806 575 q 877 558 860 575 q 894 514 894 540 q 877 470 894 488 q 833 453 860 453 q 789 469 806 453 m 820 267 q 807 267 820 267 q 776 284 794 267 q 758 328 758 301 q 776 373 758 356 q 820 390 794 390 q 863 372 846 390 q 881 328 881 354 q 863 284 881 301 q 820 267 846 267 m 674 148 q 666 157 674 148 q 657 192 657 165 q 674 235 657 218 q 718 253 692 253 q 763 235 744 253 q 781 192 781 218 q 763 148 781 165 q 718 131 744 131 q 674 148 692 131 m 506 74 q 497 83 506 74 q 489 118 489 92 q 506 162 489 144 q 550 179 522 179 q 595 162 578 179 q 613 118 613 144 q 595 74 613 92 q 550 57 578 57 q 506 74 522 57 m 375 76 q 362 76 375 76 q 331 94 349 76 q 313 139 313 113 q 331 183 313 165 q 375 201 349 201 q 419 183 401 201 q 436 139 436 165 q 419 94 436 113 q 375 76 401 76 m 233 183 q 219 183 233 183 q 189 200 206 183 q 172 244 172 217 q 190 288 172 271 q 233 306 207 306 q 277 288 260 306 q 294 244 294 271 q 277 201 294 218 q 233 183 260 183 m 117 363 q 109 371 117 363 q 100 406 100 379 q 117 450 100 432 q 161 468 135 468 q 205 451 188 468 q 222 406 222 433 q 205 363 222 379 q 161 346 188 346 q 117 363 135 346 m 136 537 q 127 545 136 537 q 118 581 118 554 q 136 624 118 607 q 181 642 154 642 q 225 624 207 642 q 243 581 243 607 q 225 537 243 554 q 181 519 207 519 q 136 537 154 519 m 293 671 q 280 671 293 671 q 249 688 267 671 q 232 733 232 706 q 249 777 232 760 q 293 794 267 794 q 337 777 319 794 q 354 733 354 760 q 337 688 354 706 q 293 671 319 671 z "},"":{"ha":636,"x_min":181,"x_max":465,"o":"m 181 -354 l 286 -71 l 465 -71 l 306 -354 l 181 -354 z "},"ﬀ":{"ha":853,"x_min":42,"x_max":863,"o":"m 793 858 q 692 744 692 858 l 692 704 l 833 704 l 833 579 l 692 579 l 692 0 l 526 0 l 526 579 l 311 579 l 311 0 l 144 0 l 144 579 l 42 579 l 42 704 l 144 704 l 144 746 q 210 931 144 864 q 392 997 276 997 q 611 949 508 997 q 771 997 672 997 q 863 985 824 997 l 863 844 q 793 858 826 858 m 526 704 l 526 746 q 538 835 526 793 q 417 858 471 858 q 338 833 364 858 q 311 744 311 807 l 311 704 l 526 704 z "},"ﬁ":{"ha":767,"x_min":42,"x_max":693,"o":"m 693 704 l 693 0 l 526 0 l 526 579 l 311 579 l 311 0 l 144 0 l 144 579 l 42 579 l 42 704 l 144 704 l 144 746 q 210 931 144 864 q 394 997 275 997 q 628 943 513 997 l 628 803 q 414 858 510 858 q 337 833 363 858 q 311 744 311 807 l 311 704 l 693 704 z "},"ﬂ":{"ha":781,"x_min":42,"x_max":690,"o":"m 144 704 l 144 746 q 210 931 144 864 q 402 997 275 997 q 690 917 529 997 l 690 0 l 522 0 l 522 843 q 417 858 468 858 q 339 834 367 858 q 311 744 311 810 l 311 704 l 451 704 l 451 579 l 311 579 l 311 0 l 144 0 l 144 579 l 42 579 l 42 704 l 144 704 z "},"ﬃ":{"ha":1250,"x_min":42,"x_max":1074,"o":"m 1074 704 l 1074 0 l 907 0 l 907 579 l 692 579 l 692 0 l 526 0 l 526 579 l 311 579 l 311 0 l 144 0 l 144 579 l 42 579 l 42 704 l 144 704 l 144 746 q 210 931 144 864 q 392 997 276 997 q 611 949 508 997 q 782 997 672 997 q 1010 943 892 997 l 1010 803 q 796 858 889 858 q 718 833 744 858 q 692 744 692 807 l 692 704 l 1074 704 m 526 704 l 526 746 q 538 835 526 793 q 417 858 471 858 q 338 833 364 858 q 311 744 311 807 l 311 704 l 526 704 z "},"ﬄ":{"ha":1161,"x_min":42,"x_max":1071,"o":"m 144 704 l 144 746 q 210 931 144 864 q 392 997 276 997 q 611 949 508 997 q 774 997 675 997 q 1071 917 913 997 l 1071 0 l 904 0 l 904 843 q 799 858 850 858 q 721 834 749 858 q 693 744 693 810 l 693 704 l 833 704 l 833 579 l 693 579 l 693 0 l 526 0 l 526 579 l 311 579 l 311 0 l 144 0 l 144 579 l 42 579 l 42 704 l 144 704 m 526 704 l 526 746 q 538 835 526 793 q 417 858 471 858 q 338 833 364 858 q 311 744 311 807 l 311 704 l 526 704 z "}}}
